Asap-BoldItalic.ufo
<glyph name="exclam" format="1">
  <advance width="294"/>
  <unicode hex="0021"/>
  <outline>
    <contour>
      <point x="190" y="702" type="curve" smooth="yes"/>
      <point x="233" y="702" type="line" smooth="yes"/>
      <point x="273" y="702"/>
      <point x="291" y="691"/>
      <point x="291" y="673" type="curve" smooth="yes"/>
      <point x="291" y="654"/>
      <point x="228" y="394"/>
      <point x="196" y="254" type="curve" smooth="yes"/>
      <point x="191" y="233"/>
      <point x="183" y="222"/>
      <point x="142" y="222" type="curve" smooth="yes"/>
      <point x="131" y="222" type="line" smooth="yes"/>
      <point x="88" y="222"/>
      <point x="83" y="232"/>
      <point x="83" y="254" type="curve" smooth="yes"/>
      <point x="127" y="670" type="line" smooth="yes"/>
      <point x="129" y="691"/>
      <point x="148" y="702"/>
    </contour>
    <contour>
      <point x="113" y="154" type="curve" smooth="yes"/>
      <point x="145" y="154" type="line" smooth="yes"/>
      <point x="188" y="154"/>
      <point x="202" y="143"/>
      <point x="202" y="122" type="curve" smooth="yes"/>
      <point x="192" y="30" type="line" smooth="yes"/>
      <point x="190" y="9"/>
      <point x="171" y="-2"/>
      <point x="129" y="-2" type="curve" smooth="yes"/>
      <point x="97" y="-2" type="line" smooth="yes"/>
      <point x="54" y="-2"/>
      <point x="40" y="9"/>
      <point x="40" y="30" type="curve" smooth="yes"/>
      <point x="50" y="122" type="line" smooth="yes"/>
      <point x="52" y="143"/>
      <point x="71" y="154"/>
    </contour>
  </outline>
</glyph>
<glyph name="numbersign" format="1">
  <advance width="534"/>
  <unicode hex="0023"/>
  <outline>
    <contour>
      <point x="467" y="686" type="curve" smooth="yes"/>
      <point x="480" y="686" type="line" smooth="yes"/>
      <point x="512" y="686"/>
      <point x="522" y="678"/>
      <point x="522" y="664" type="curve" smooth="yes"/>
      <point x="522" y="654"/>
      <point x="508" y="615"/>
      <point x="479" y="513" type="curve"/>
      <point x="512" y="513" type="line" smooth="yes"/>
      <point x="529" y="513"/>
      <point x="538" y="502"/>
      <point x="538" y="479" type="curve" smooth="yes"/>
      <point x="538" y="455"/>
      <point x="535" y="403"/>
      <point x="501" y="403" type="curve" smooth="yes"/>
      <point x="448" y="403" type="line"/>
      <point x="415" y="293" type="line"/>
      <point x="457" y="293" type="line" smooth="yes"/>
      <point x="474" y="293"/>
      <point x="483" y="282"/>
      <point x="483" y="259" type="curve" smooth="yes"/>
      <point x="483" y="235"/>
      <point x="480" y="183"/>
      <point x="446" y="183" type="curve" smooth="yes"/>
      <point x="384" y="183" type="line"/>
      <point x="339" y="29" type="line" smooth="yes"/>
      <point x="333" y="8"/>
      <point x="312" y="-2"/>
      <point x="280" y="-2" type="curve" smooth="yes"/>
      <point x="267" y="-2" type="line" smooth="yes"/>
      <point x="233" y="-2"/>
      <point x="225" y="6"/>
      <point x="225" y="21" type="curve" smooth="yes"/>
      <point x="225" y="37"/>
      <point x="236" y="56"/>
      <point x="271" y="183" type="curve"/>
      <point x="177" y="183" type="line"/>
      <point x="132" y="29" type="line" smooth="yes"/>
      <point x="126" y="8"/>
      <point x="105" y="-2"/>
      <point x="73" y="-2" type="curve" smooth="yes"/>
      <point x="60" y="-2" type="line" smooth="yes"/>
      <point x="26" y="-2"/>
      <point x="16" y="6"/>
      <point x="17" y="21" type="curve" smooth="yes"/>
      <point x="18" y="37"/>
      <point x="28" y="56"/>
      <point x="64" y="183" type="curve"/>
      <point x="21" y="183" type="line" smooth="yes"/>
      <point x="4" y="183"/>
      <point x="-4" y="193"/>
      <point x="-4" y="216" type="curve" smooth="yes"/>
      <point x="-4" y="240"/>
      <point x="-3" y="293"/>
      <point x="32" y="293" type="curve" smooth="yes"/>
      <point x="95" y="293" type="line"/>
      <point x="128" y="403" type="line"/>
      <point x="80" y="403" type="line" smooth="yes"/>
      <point x="62" y="403"/>
      <point x="54" y="413"/>
      <point x="54" y="437" type="curve" smooth="yes"/>
      <point x="54" y="461"/>
      <point x="57" y="513"/>
      <point x="91" y="513" type="curve" smooth="yes"/>
      <point x="159" y="513" type="line"/>
      <point x="200" y="655" type="line" smooth="yes"/>
      <point x="206" y="676"/>
      <point x="228" y="686"/>
      <point x="260" y="686" type="curve" smooth="yes"/>
      <point x="273" y="686" type="line" smooth="yes"/>
      <point x="305" y="686"/>
      <point x="315" y="678"/>
      <point x="315" y="664" type="curve" smooth="yes"/>
      <point x="315" y="654"/>
      <point x="301" y="615"/>
      <point x="272" y="513" type="curve"/>
      <point x="366" y="513" type="line"/>
      <point x="407" y="655" type="line" smooth="yes"/>
      <point x="413" y="676"/>
      <point x="435" y="686"/>
    </contour>
    <contour>
      <point x="241" y="403" type="line"/>
      <point x="208" y="293" type="line"/>
      <point x="302" y="293" type="line"/>
      <point x="335" y="403" type="line"/>
    </contour>
  </outline>
</glyph>
<glyph name="dollar" format="1">
  <advance width="496"/>
  <unicode hex="0024"/>
  <outline>
    <contour>
      <point x="297" y="765" type="curve" smooth="yes"/>
      <point x="314" y="765" type="line" smooth="yes"/>
      <point x="328" y="765"/>
      <point x="332" y="759"/>
      <point x="332" y="745" type="curve" smooth="yes"/>
      <point x="332" y="742"/>
      <point x="329" y="720"/>
      <point x="328" y="707" type="curve"/>
      <point x="420" y="703"/>
      <point x="480" y="670"/>
      <point x="480" y="640" type="curve" smooth="yes"/>
      <point x="480" y="614"/>
      <point x="440" y="551"/>
      <point x="416" y="551" type="curve" smooth="yes"/>
      <point x="403" y="551"/>
      <point x="376" y="574"/>
      <point x="314" y="576" type="curve"/>
      <point x="298" y="420" type="line"/>
      <point x="374" y="385"/>
      <point x="466" y="345"/>
      <point x="466" y="233" type="curve" smooth="yes"/>
      <point x="466" y="65"/>
      <point x="355" y="5"/>
      <point x="253" y="-6" type="curve"/>
      <point x="248" y="-55" type="line" smooth="yes"/>
      <point x="246" y="-69"/>
      <point x="238" y="-75"/>
      <point x="226" y="-75" type="curve" smooth="yes"/>
      <point x="209" y="-75" type="line" smooth="yes"/>
      <point x="194" y="-75"/>
      <point x="191" y="-69"/>
      <point x="191" y="-55" type="curve" smooth="yes"/>
      <point x="191" y="-50"/>
      <point x="194" y="-23"/>
      <point x="196" y="-7" type="curve"/>
      <point x="128" y="-4"/>
      <point x="24" y="17"/>
      <point x="24" y="70" type="curve" smooth="yes"/>
      <point x="24" y="171"/>
      <point x="39" y="181"/>
      <point x="50" y="181" type="curve" smooth="yes"/>
      <point x="68" y="181"/>
      <point x="119" y="123"/>
      <point x="209" y="123" type="curve"/>
      <point x="227" y="289" type="line"/>
      <point x="146" y="323"/>
      <point x="47" y="363"/>
      <point x="47" y="483" type="curve" smooth="yes"/>
      <point x="47" y="633"/>
      <point x="158" y="695"/>
      <point x="271" y="706" type="curve"/>
      <point x="275" y="745" type="line" smooth="yes"/>
      <point x="276" y="759"/>
      <point x="283" y="765"/>
    </contour>
    <contour>
      <point x="243" y="447" type="curve"/>
      <point x="256" y="571" type="line"/>
      <point x="203" y="559"/>
      <point x="196" y="527"/>
      <point x="196" y="510" type="curve" smooth="yes"/>
      <point x="196" y="482"/>
      <point x="215" y="463"/>
    </contour>
    <contour>
      <point x="281" y="260" type="curve"/>
      <point x="267" y="133" type="line"/>
      <point x="295" y="143"/>
      <point x="317" y="164"/>
      <point x="317" y="203" type="curve" smooth="yes"/>
      <point x="317" y="227"/>
      <point x="302" y="245"/>
    </contour>
  </outline>
</glyph>
<glyph name="percent" format="1">
  <advance width="765"/>
  <unicode hex="0025"/>
  <outline>
    <contour>
      <point x="232" y="708" type="curve" smooth="yes"/>
      <point x="296" y="708"/>
      <point x="366" y="684"/>
      <point x="366" y="573" type="curve" smooth="yes"/>
      <point x="366" y="406"/>
      <point x="269" y="372"/>
      <point x="197" y="372" type="curve" smooth="yes"/>
      <point x="133" y="372"/>
      <point x="62" y="396"/>
      <point x="62" y="508" type="curve" smooth="yes"/>
      <point x="62" y="675"/>
      <point x="161" y="708"/>
    </contour>
    <contour>
      <point x="595" y="702" type="curve" smooth="yes"/>
      <point x="639" y="702" type="line" smooth="yes"/>
      <point x="652" y="702"/>
      <point x="659" y="696"/>
      <point x="659" y="690" type="curve" smooth="yes"/>
      <point x="659" y="686"/>
      <point x="657" y="681"/>
      <point x="653" y="675" type="curve" smooth="yes"/>
      <point x="227" y="25" type="line" smooth="yes"/>
      <point x="216" y="8"/>
      <point x="202" y="-2"/>
      <point x="181" y="-2" type="curve" smooth="yes"/>
      <point x="137" y="-2" type="line" smooth="yes"/>
      <point x="123" y="-2"/>
      <point x="117" y="3"/>
      <point x="117" y="10" type="curve" smooth="yes"/>
      <point x="117" y="14"/>
      <point x="119" y="19"/>
      <point x="123" y="25" type="curve" smooth="yes"/>
      <point x="549" y="675" type="line" smooth="yes"/>
      <point x="560" y="692"/>
      <point x="574" y="702"/>
    </contour>
    <contour>
      <point x="223" y="622" type="curve" smooth="yes"/>
      <point x="177" y="622"/>
      <point x="165" y="560"/>
      <point x="165" y="517" type="curve" smooth="yes"/>
      <point x="165" y="485"/>
      <point x="173" y="454"/>
      <point x="205" y="454" type="curve" smooth="yes"/>
      <point x="252" y="454"/>
      <point x="263" y="525"/>
      <point x="263" y="565" type="curve" smooth="yes"/>
      <point x="263" y="595"/>
      <point x="254" y="622"/>
    </contour>
    <contour>
      <point x="579" y="328" type="curve" smooth="yes"/>
      <point x="643" y="328"/>
      <point x="714" y="303"/>
      <point x="714" y="191" type="curve" smooth="yes"/>
      <point x="714" y="25"/>
      <point x="615" y="-8"/>
      <point x="544" y="-8" type="curve" smooth="yes"/>
      <point x="480" y="-8"/>
      <point x="410" y="16"/>
      <point x="410" y="127" type="curve" smooth="yes"/>
      <point x="410" y="294"/>
      <point x="506" y="328"/>
    </contour>
    <contour>
      <point x="570" y="242" type="curve" smooth="yes"/>
      <point x="523" y="242"/>
      <point x="512" y="177"/>
      <point x="512" y="134" type="curve" smooth="yes"/>
      <point x="512" y="103"/>
      <point x="521" y="74"/>
      <point x="552" y="74" type="curve" smooth="yes"/>
      <point x="597" y="74"/>
      <point x="610" y="142"/>
      <point x="610" y="182" type="curve" smooth="yes"/>
      <point x="610" y="214"/>
      <point x="601" y="242"/>
    </contour>
  </outline>
</glyph>
<glyph name="ampersand" format="1">
  <advance width="624"/>
  <unicode hex="0026"/>
  <outline>
    <contour>
      <point x="288" y="708" type="curve" smooth="yes"/>
      <point x="332" y="708"/>
      <point x="394" y="705"/>
      <point x="394" y="669" type="curve" smooth="yes"/>
      <point x="394" y="620"/>
      <point x="364" y="584"/>
      <point x="350" y="584" type="curve" smooth="yes"/>
      <point x="345" y="584"/>
      <point x="325" y="591"/>
      <point x="302" y="591" type="curve" smooth="yes"/>
      <point x="246" y="591"/>
      <point x="211" y="554"/>
      <point x="211" y="499" type="curve" smooth="yes"/>
      <point x="211" y="455"/>
      <point x="245" y="426"/>
      <point x="306" y="426" type="curve" smooth="yes"/>
      <point x="400" y="426" type="line"/>
      <point x="409" y="501" type="line" smooth="yes"/>
      <point x="411" y="522"/>
      <point x="433" y="533"/>
      <point x="472" y="533" type="curve" smooth="yes"/>
      <point x="499" y="533" type="line" smooth="yes"/>
      <point x="539" y="533"/>
      <point x="556" y="518"/>
      <point x="556" y="502" type="curve" smooth="yes"/>
      <point x="548" y="426" type="line"/>
      <point x="607" y="426" type="line" smooth="yes"/>
      <point x="621" y="426"/>
      <point x="623" y="420"/>
      <point x="623" y="406" type="curve" smooth="yes"/>
      <point x="623" y="369"/>
      <point x="604" y="309"/>
      <point x="565" y="309" type="curve" smooth="yes"/>
      <point x="536" y="309" type="line"/>
      <point x="536" y="309"/>
      <point x="519" y="145"/>
      <point x="519" y="142" type="curve" smooth="yes"/>
      <point x="519" y="119"/>
      <point x="528" y="109"/>
      <point x="549" y="109" type="curve" smooth="yes"/>
      <point x="568" y="109"/>
      <point x="582" y="115"/>
      <point x="587" y="115" type="curve" smooth="yes"/>
      <point x="593" y="115"/>
      <point x="595" y="113"/>
      <point x="595" y="104" type="curve" smooth="yes"/>
      <point x="595" y="102"/>
      <point x="594" y="79"/>
      <point x="588" y="44" type="curve" smooth="yes"/>
      <point x="582" y="7"/>
      <point x="535" y="-8"/>
      <point x="500" y="-8" type="curve" smooth="yes"/>
      <point x="455" y="-8"/>
      <point x="420" y="4"/>
      <point x="397" y="32" type="curve"/>
      <point x="339" y="5"/>
      <point x="289" y="-8"/>
      <point x="211" y="-8" type="curve" smooth="yes"/>
      <point x="87" y="-8"/>
      <point x="6" y="60"/>
      <point x="6" y="177" type="curve" smooth="yes"/>
      <point x="6" y="271"/>
      <point x="52" y="350"/>
      <point x="142" y="383" type="curve"/>
      <point x="142" y="387" type="line"/>
      <point x="94" y="408"/>
      <point x="64" y="453"/>
      <point x="64" y="512" type="curve" smooth="yes"/>
      <point x="64" y="631"/>
      <point x="156" y="708"/>
    </contour>
    <contour>
      <point x="388" y="309" type="curve"/>
      <point x="285" y="309" type="line" smooth="yes"/>
      <point x="198" y="309"/>
      <point x="156" y="267"/>
      <point x="156" y="193" type="curve" smooth="yes"/>
      <point x="156" y="139"/>
      <point x="191" y="109"/>
      <point x="246" y="109" type="curve" smooth="yes"/>
      <point x="280" y="109"/>
      <point x="323" y="116"/>
      <point x="370" y="135" type="curve"/>
      <point x="373" y="178"/>
      <point x="388" y="309"/>
    </contour>
  </outline>
</glyph>
<glyph name="quotesingle" format="1">
  <advance width="183"/>
  <unicode hex="0027"/>
  <outline>
    <contour>
      <point x="104" y="702" type="curve" smooth="yes"/>
      <point x="111" y="702" type="line" smooth="yes"/>
      <point x="154" y="702"/>
      <point x="168" y="691"/>
      <point x="168" y="670" type="curve" smooth="yes"/>
      <point x="168" y="664"/>
      <point x="141" y="553"/>
      <point x="127" y="494" type="curve" smooth="yes"/>
      <point x="122" y="473"/>
      <point x="111" y="464"/>
      <point x="90" y="464" type="curve" smooth="yes"/>
      <point x="75" y="464" type="line" smooth="yes"/>
      <point x="54" y="464"/>
      <point x="41" y="473"/>
      <point x="41" y="494" type="curve" smooth="yes"/>
      <point x="41" y="670" type="line" smooth="yes"/>
      <point x="41" y="691"/>
      <point x="62" y="702"/>
    </contour>
  </outline>
</glyph>
<glyph name="parenright" format="1">
  <advance width="301"/>
  <unicode hex="0029"/>
  <outline>
    <contour>
      <point x="122" y="783" type="curve" smooth="yes"/>
      <point x="132" y="783"/>
      <point x="140" y="778"/>
      <point x="147" y="767" type="curve" smooth="yes"/>
      <point x="215" y="652"/>
      <point x="251" y="518"/>
      <point x="251" y="378" type="curve" smooth="yes"/>
      <point x="251" y="211"/>
      <point x="200" y="0"/>
      <point x="46" y="-192" type="curve" smooth="yes"/>
      <point x="37" y="-203"/>
      <point x="27" y="-208"/>
      <point x="17" y="-208" type="curve" smooth="yes"/>
      <point x="-2" y="-208"/>
      <point x="-34" y="-186"/>
      <point x="-34" y="-164" type="curve" smooth="yes"/>
      <point x="-34" y="-158"/>
      <point x="-32" y="-151"/>
      <point x="-27" y="-143" type="curve" smooth="yes"/>
      <point x="86" y="40"/>
      <point x="134" y="197"/>
      <point x="134" y="388" type="curve" smooth="yes"/>
      <point x="134" y="497"/>
      <point x="117" y="588"/>
      <point x="63" y="717" type="curve" smooth="yes"/>
      <point x="61" y="722"/>
      <point x="59" y="726"/>
      <point x="59" y="731" type="curve" smooth="yes"/>
      <point x="59" y="756"/>
      <point x="97" y="783"/>
    </contour>
  </outline>
</glyph>
<glyph name="asterisk" format="1">
  <advance width="373"/>
  <unicode hex="002A"/>
  <outline>
    <contour>
      <point x="197" y="708" type="curve" smooth="yes"/>
      <point x="220" y="708"/>
      <point x="224" y="698"/>
      <point x="224" y="678" type="curve" smooth="yes"/>
      <point x="215" y="596" type="line"/>
      <point x="293" y="621" type="line" smooth="yes"/>
      <point x="298" y="622"/>
      <point x="302" y="623"/>
      <point x="306" y="623" type="curve" smooth="yes"/>
      <point x="318" y="623"/>
      <point x="331" y="612"/>
      <point x="331" y="592" type="curve" smooth="yes"/>
      <point x="331" y="576"/>
      <point x="325" y="568"/>
      <point x="307" y="563" type="curve" smooth="yes"/>
      <point x="228" y="539" type="line"/>
      <point x="277" y="460" type="line" smooth="yes"/>
      <point x="281" y="454"/>
      <point x="283" y="448"/>
      <point x="283" y="443" type="curve" smooth="yes"/>
      <point x="283" y="431"/>
      <point x="263" y="411"/>
      <point x="247" y="411" type="curve" smooth="yes"/>
      <point x="239" y="411"/>
      <point x="231" y="416"/>
      <point x="225" y="426" type="curve" smooth="yes"/>
      <point x="175" y="509" type="line"/>
      <point x="107" y="426" type="line" smooth="yes"/>
      <point x="98" y="415"/>
      <point x="90" y="411"/>
      <point x="83" y="411" type="curve" smooth="yes"/>
      <point x="69" y="411"/>
      <point x="52" y="427"/>
      <point x="52" y="439" type="curve" smooth="yes"/>
      <point x="52" y="445"/>
      <point x="56" y="453"/>
      <point x="63" y="460" type="curve" smooth="yes"/>
      <point x="127" y="539" type="line"/>
      <point x="55" y="563" type="line" smooth="yes"/>
      <point x="42" y="567"/>
      <point x="36" y="575"/>
      <point x="36" y="585" type="curve" smooth="yes"/>
      <point x="36" y="600"/>
      <point x="46" y="623"/>
      <point x="67" y="623" type="curve" smooth="yes"/>
      <point x="71" y="623"/>
      <point x="76" y="622"/>
      <point x="81" y="621" type="curve" smooth="yes"/>
      <point x="155" y="596" type="line"/>
      <point x="164" y="678" type="line" smooth="yes"/>
      <point x="166" y="699"/>
      <point x="176" y="708"/>
    </contour>
  </outline>
</glyph>
<glyph name="plus" format="1">
  <advance width="560"/>
  <unicode hex="002B"/>
  <outline>
    <contour>
      <point x="296" y="473" type="curve" smooth="yes"/>
      <point x="310" y="473" type="line" smooth="yes"/>
      <point x="347" y="473"/>
      <point x="357" y="464"/>
      <point x="357" y="443" type="curve" smooth="yes"/>
      <point x="341" y="289" type="line"/>
      <point x="494" y="289" type="line" smooth="yes"/>
      <point x="512" y="289"/>
      <point x="520" y="278"/>
      <point x="520" y="253" type="curve" smooth="yes"/>
      <point x="520" y="228"/>
      <point x="519" y="182"/>
      <point x="483" y="182" type="curve" smooth="yes"/>
      <point x="330" y="182" type="line"/>
      <point x="314" y="30" type="line" smooth="yes"/>
      <point x="312" y="9"/>
      <point x="296" y="0"/>
      <point x="261" y="0" type="curve" smooth="yes"/>
      <point x="247" y="0" type="line" smooth="yes"/>
      <point x="210" y="0"/>
      <point x="200" y="9"/>
      <point x="200" y="30" type="curve" smooth="yes"/>
      <point x="216" y="182" type="line"/>
      <point x="65" y="182" type="line" smooth="yes"/>
      <point x="47" y="182"/>
      <point x="39" y="192"/>
      <point x="39" y="216" type="curve" smooth="yes"/>
      <point x="39" y="240"/>
      <point x="42" y="289"/>
      <point x="76" y="289" type="curve" smooth="yes"/>
      <point x="227" y="289" type="line"/>
      <point x="243" y="443" type="line" smooth="yes"/>
      <point x="245" y="464"/>
      <point x="261" y="473"/>
    </contour>
  </outline>
</glyph>
<glyph name="comma" format="1">
  <advance width="198"/>
  <unicode hex="002C"/>
  <outline>
    <contour>
      <point x="109" y="154" type="curve" smooth="yes"/>
      <point x="128" y="154" type="line" smooth="yes"/>
      <point x="168" y="154"/>
      <point x="184" y="137"/>
      <point x="184" y="114" type="curve" smooth="yes"/>
      <point x="184" y="29"/>
      <point x="68" y="-125"/>
      <point x="21" y="-125" type="curve" smooth="yes"/>
      <point x="4" y="-125"/>
      <point x="-21" y="-120"/>
      <point x="-21" y="-105" type="curve" smooth="yes"/>
      <point x="-21" y="-97"/>
      <point x="-18" y="-89"/>
      <point x="-13" y="-79" type="curve" smooth="yes"/>
      <point x="2" y="-47"/>
      <point x="34" y="4"/>
      <point x="45" y="110" type="curve" smooth="yes"/>
      <point x="47" y="137"/>
      <point x="67" y="154"/>
    </contour>
  </outline>
</glyph>
<glyph name="period" format="1">
  <advance width="198"/>
  <unicode hex="002E"/>
  <outline>
    <contour>
      <point x="90" y="154" type="curve" smooth="yes"/>
      <point x="122" y="154" type="line" smooth="yes"/>
      <point x="165" y="154"/>
      <point x="178" y="142"/>
      <point x="178" y="122" type="curve" smooth="yes"/>
      <point x="169" y="30" type="line" smooth="yes"/>
      <point x="167" y="9"/>
      <point x="146" y="-2"/>
      <point x="105" y="-2" type="curve" smooth="yes"/>
      <point x="73" y="-2" type="line" smooth="yes"/>
      <point x="28" y="-2"/>
      <point x="17" y="8"/>
      <point x="17" y="30" type="curve" smooth="yes"/>
      <point x="26" y="122" type="line" smooth="yes"/>
      <point x="28" y="143"/>
      <point x="49" y="154"/>
    </contour>
  </outline>
</glyph>
<glyph name="slash" format="1">
  <advance width="370"/>
  <unicode hex="002F"/>
  <outline>
    <contour>
      <point x="367" y="702" type="curve" smooth="yes"/>
      <point x="391" y="702" type="line" smooth="yes"/>
      <point x="419" y="702"/>
      <point x="431" y="696"/>
      <point x="431" y="687" type="curve" smooth="yes"/>
      <point x="431" y="683"/>
      <point x="429" y="678"/>
      <point x="426" y="672" type="curve" smooth="yes"/>
      <point x="60" y="-49" type="line" smooth="yes"/>
      <point x="49" y="-71"/>
      <point x="25" y="-79"/>
      <point x="-4" y="-79" type="curve" smooth="yes"/>
      <point x="-28" y="-79" type="line" smooth="yes"/>
      <point x="-56" y="-79"/>
      <point x="-69" y="-73"/>
      <point x="-69" y="-64" type="curve" smooth="yes"/>
      <point x="-69" y="-61"/>
      <point x="-67" y="-56"/>
      <point x="-63" y="-49" type="curve" smooth="yes"/>
      <point x="302" y="672" type="line" smooth="yes"/>
      <point x="313" y="694"/>
      <point x="336" y="702"/>
    </contour>
  </outline>
</glyph>
<glyph name="zero" format="1">
  <advance width="535"/>
  <unicode hex="0030"/>
  <outline>
    <contour>
      <point x="304" y="708" type="curve" smooth="yes"/>
      <point x="434" y="708"/>
      <point x="508" y="605"/>
      <point x="508" y="426" type="curve" smooth="yes"/>
      <point x="508" y="156"/>
      <point x="388" y="-8"/>
      <point x="229" y="-8" type="curve" smooth="yes"/>
      <point x="99" y="-8"/>
      <point x="25" y="94"/>
      <point x="25" y="271" type="curve" smooth="yes"/>
      <point x="25" y="543"/>
      <point x="143" y="708"/>
    </contour>
    <contour>
      <point x="292" y="591" type="curve" smooth="yes"/>
      <point x="231" y="591"/>
      <point x="174" y="475"/>
      <point x="174" y="256" type="curve" smooth="yes"/>
      <point x="174" y="159"/>
      <point x="197" y="109"/>
      <point x="241" y="109" type="curve" smooth="yes"/>
      <point x="301" y="109"/>
      <point x="359" y="223"/>
      <point x="359" y="441" type="curve" smooth="yes"/>
      <point x="359" y="540"/>
      <point x="336" y="591"/>
    </contour>
  </outline>
</glyph>
<glyph name="one" format="1">
  <advance width="535"/>
  <unicode hex="0031"/>
  <outline>
    <contour>
      <point x="118" y="658" type="curve" smooth="yes"/>
      <point x="371" y="704" type="line" smooth="yes"/>
      <point x="388" y="704"/>
      <point x="410" y="692"/>
      <point x="410" y="680" type="curve" smooth="yes"/>
      <point x="351" y="117" type="line"/>
      <point x="458" y="117" type="line" smooth="yes"/>
      <point x="476" y="117"/>
      <point x="484" y="106"/>
      <point x="484" y="81" type="curve" smooth="yes"/>
      <point x="484" y="35"/>
      <point x="475" y="0"/>
      <point x="446" y="0" type="curve" smooth="yes"/>
      <point x="58" y="0" type="line" smooth="yes"/>
      <point x="40" y="0"/>
      <point x="32" y="11"/>
      <point x="32" y="36" type="curve" smooth="yes"/>
      <point x="32" y="82"/>
      <point x="41" y="117"/>
      <point x="70" y="117" type="curve" smooth="yes"/>
      <point x="203" y="117" type="line"/>
      <point x="250" y="566" type="line"/>
      <point x="112" y="546" type="line" smooth="yes"/>
      <point x="92" y="546"/>
      <point x="88" y="577"/>
      <point x="88" y="605" type="curve" smooth="yes"/>
      <point x="88" y="635"/>
      <point x="89" y="653"/>
    </contour>
  </outline>
</glyph>
<glyph name="four" format="1">
  <advance width="535"/>
  <unicode hex="0034"/>
  <outline>
    <contour>
      <point x="407" y="702" type="curve" smooth="yes"/>
      <point x="434" y="702" type="line" smooth="yes"/>
      <point x="477" y="702"/>
      <point x="491" y="691"/>
      <point x="491" y="670" type="curve" smooth="yes"/>
      <point x="448" y="259" type="line"/>
      <point x="487" y="259" type="line" smooth="yes"/>
      <point x="505" y="259"/>
      <point x="513" y="248"/>
      <point x="513" y="223" type="curve" smooth="yes"/>
      <point x="513" y="177"/>
      <point x="504" y="142"/>
      <point x="474" y="142" type="curve" smooth="yes"/>
      <point x="436" y="142" type="line"/>
      <point x="424" y="30" type="line" smooth="yes"/>
      <point x="422" y="9"/>
      <point x="403" y="-2"/>
      <point x="361" y="-2" type="curve" smooth="yes"/>
      <point x="333" y="-2" type="line" smooth="yes"/>
      <point x="290" y="-2"/>
      <point x="276" y="9"/>
      <point x="276" y="30" type="curve" smooth="yes"/>
      <point x="288" y="142" type="line"/>
      <point x="26" y="142" type="line" smooth="yes"/>
      <point x="10" y="142"/>
      <point x="-1" y="199"/>
      <point x="-1" y="228" type="curve" smooth="yes"/>
      <point x="-1" y="235"/>
      <point x="0" y="244"/>
      <point x="2" y="246" type="curve" smooth="yes"/>
      <point x="344" y="683" type="line" smooth="yes"/>
      <point x="357" y="700"/>
      <point x="378" y="702"/>
    </contour>
    <contour>
      <point x="150" y="259" type="line"/>
      <point x="300" y="259" type="line"/>
      <point x="324" y="488" type="line"/>
      <point x="320" y="489" type="line"/>
    </contour>
  </outline>
</glyph>
<glyph name="five" format="1">
  <advance width="535"/>
  <unicode hex="0035"/>
  <outline>
    <contour>
      <point x="167" y="700" type="curve" smooth="yes"/>
      <point x="462" y="700" type="line" smooth="yes"/>
      <point x="480" y="700"/>
      <point x="488" y="689"/>
      <point x="488" y="664" type="curve" smooth="yes"/>
      <point x="488" y="618"/>
      <point x="479" y="583"/>
      <point x="449" y="583" type="curve" smooth="yes"/>
      <point x="247" y="583" type="line"/>
      <point x="222" y="440" type="line"/>
      <point x="248" y="440" type="line" smooth="yes"/>
      <point x="387" y="440"/>
      <point x="478" y="396"/>
      <point x="478" y="255" type="curve" smooth="yes"/>
      <point x="478" y="55"/>
      <point x="326" y="-8"/>
      <point x="196" y="-8" type="curve" smooth="yes"/>
      <point x="147" y="-8"/>
      <point x="35" y="-2"/>
      <point x="35" y="55" type="curve" smooth="yes"/>
      <point x="35" y="127"/>
      <point x="48" y="149"/>
      <point x="59" y="149" type="curve" smooth="yes"/>
      <point x="73" y="149"/>
      <point x="111" y="109"/>
      <point x="208" y="109" type="curve" smooth="yes"/>
      <point x="281" y="109"/>
      <point x="326" y="155"/>
      <point x="326" y="233" type="curve" smooth="yes"/>
      <point x="326" y="290"/>
      <point x="294" y="323"/>
      <point x="212" y="323" type="curve" smooth="yes"/>
      <point x="103" y="323" type="line" smooth="yes"/>
      <point x="79" y="323"/>
      <point x="69" y="329"/>
      <point x="69" y="352" type="curve" smooth="yes"/>
      <point x="69" y="355"/>
      <point x="74" y="387"/>
      <point x="120" y="660" type="curve" smooth="yes"/>
      <point x="125" y="688"/>
      <point x="137" y="700"/>
    </contour>
  </outline>
</glyph>
<glyph name="seven" format="1">
  <advance width="535"/>
  <unicode hex="0037"/>
  <outline>
    <contour>
      <point x="104" y="700" type="curve" smooth="yes"/>
      <point x="500" y="700" type="line" smooth="yes"/>
      <point x="510" y="700"/>
      <point x="521" y="652"/>
      <point x="521" y="620" type="curve" smooth="yes"/>
      <point x="521" y="611"/>
      <point x="520" y="602"/>
      <point x="518" y="597" type="curve" smooth="yes"/>
      <point x="199" y="18" type="line" smooth="yes"/>
      <point x="190" y="2"/>
      <point x="168" y="-2"/>
      <point x="139" y="-2" type="curve" smooth="yes"/>
      <point x="97" y="-2" type="line" smooth="yes"/>
      <point x="72" y="-2"/>
      <point x="41" y="-2"/>
      <point x="41" y="17" type="curve" smooth="yes"/>
      <point x="41" y="22"/>
      <point x="43" y="28"/>
      <point x="48" y="36" type="curve" smooth="yes"/>
      <point x="353" y="583" type="line"/>
      <point x="92" y="583" type="line" smooth="yes"/>
      <point x="73" y="583"/>
      <point x="65" y="594"/>
      <point x="65" y="619" type="curve" smooth="yes"/>
      <point x="65" y="665"/>
      <point x="74" y="700"/>
    </contour>
  </outline>
</glyph>
<glyph name="nine" format="1">
  <advance width="535"/>
  <unicode hex="0039"/>
  <outline>
    <contour>
      <point x="301" y="708" type="curve" smooth="yes"/>
      <point x="405" y="708"/>
      <point x="512" y="651"/>
      <point x="512" y="491" type="curve" smooth="yes"/>
      <point x="512" y="105"/>
      <point x="143" y="-4"/>
      <point x="108" y="-4" type="curve" smooth="yes"/>
      <point x="77" y="-4"/>
      <point x="67" y="49"/>
      <point x="67" y="73" type="curve" smooth="yes"/>
      <point x="67" y="92"/>
      <point x="70" y="97"/>
      <point x="82" y="100" type="curve" smooth="yes"/>
      <point x="187" y="132"/>
      <point x="278" y="203"/>
      <point x="320" y="297" type="curve"/>
      <point x="279" y="276"/>
      <point x="246" y="272"/>
      <point x="217" y="272" type="curve" smooth="yes"/>
      <point x="148" y="272"/>
      <point x="40" y="316"/>
      <point x="40" y="454" type="curve" smooth="yes"/>
      <point x="40" y="638"/>
      <point x="184" y="708"/>
    </contour>
    <contour>
      <point x="288" y="591" type="curve" smooth="yes"/>
      <point x="236" y="591"/>
      <point x="191" y="541"/>
      <point x="191" y="471" type="curve" smooth="yes"/>
      <point x="191" y="420"/>
      <point x="220" y="389"/>
      <point x="272" y="389" type="curve" smooth="yes"/>
      <point x="299" y="389"/>
      <point x="327" y="399"/>
      <point x="354" y="413" type="curve"/>
      <point x="358" y="439"/>
      <point x="362" y="467"/>
      <point x="362" y="491" type="curve" smooth="yes"/>
      <point x="362" y="565"/>
      <point x="330" y="591"/>
    </contour>
  </outline>
</glyph>
<glyph name="semicolon" format="1">
  <advance width="198"/>
  <unicode hex="003B"/>
  <outline>
    <contour>
      <point x="115" y="525" type="curve" smooth="yes"/>
      <point x="147" y="525" type="line" smooth="yes"/>
      <point x="190" y="525"/>
      <point x="204" y="514"/>
      <point x="204" y="493" type="curve" smooth="yes"/>
      <point x="194" y="401" type="line" smooth="yes"/>
      <point x="192" y="380"/>
      <point x="173" y="369"/>
      <point x="131" y="369" type="curve" smooth="yes"/>
      <point x="99" y="369" type="line" smooth="yes"/>
      <point x="56" y="369"/>
      <point x="42" y="380"/>
      <point x="42" y="401" type="curve" smooth="yes"/>
      <point x="52" y="493" type="line" smooth="yes"/>
      <point x="53" y="514"/>
      <point x="73" y="525"/>
    </contour>
    <contour>
      <point x="89" y="154" type="curve" smooth="yes"/>
      <point x="108" y="154" type="line" smooth="yes"/>
      <point x="148" y="154"/>
      <point x="164" y="137"/>
      <point x="164" y="114" type="curve" smooth="yes"/>
      <point x="164" y="29"/>
      <point x="48" y="-125"/>
      <point x="1" y="-125" type="curve" smooth="yes"/>
      <point x="-16" y="-125"/>
      <point x="-41" y="-120"/>
      <point x="-41" y="-105" type="curve" smooth="yes"/>
      <point x="-41" y="-97"/>
      <point x="-38" y="-89"/>
      <point x="-33" y="-79" type="curve" smooth="yes"/>
      <point x="-18" y="-47"/>
      <point x="14" y="4"/>
      <point x="25" y="110" type="curve" smooth="yes"/>
      <point x="27" y="137"/>
      <point x="47" y="154"/>
    </contour>
  </outline>
</glyph>
<glyph name="less" format="1">
  <advance width="560"/>
  <unicode hex="003C"/>
  <outline>
    <contour>
      <point x="520" y="478" type="curve" smooth="yes"/>
      <point x="531" y="478"/>
      <point x="536" y="470"/>
      <point x="536" y="453" type="curve" smooth="yes"/>
      <point x="536" y="424"/>
      <point x="531" y="374"/>
      <point x="497" y="361" type="curve" smooth="yes"/>
      <point x="193" y="245" type="line"/>
      <point x="473" y="129" type="line" smooth="yes"/>
      <point x="491" y="121"/>
      <point x="498" y="105"/>
      <point x="498" y="82" type="curve" smooth="yes"/>
      <point x="498" y="65"/>
      <point x="496" y="11"/>
      <point x="471" y="11" type="curve" smooth="yes"/>
      <point x="468" y="11"/>
      <point x="465" y="12"/>
      <point x="461" y="14" type="curve" smooth="yes"/>
      <point x="60" y="194" type="line" smooth="yes"/>
      <point x="44" y="201"/>
      <point x="36" y="210"/>
      <point x="36" y="227" type="curve" smooth="yes"/>
      <point x="36" y="254"/>
      <point x="44" y="286"/>
      <point x="71" y="297" type="curve" smooth="yes"/>
      <point x="509" y="476" type="line" smooth="yes"/>
      <point x="513" y="477"/>
      <point x="517" y="478"/>
    </contour>
  </outline>
</glyph>
<glyph name="equal" format="1">
  <advance width="560"/>
  <unicode hex="003D"/>
  <outline>
    <contour>
      <point x="84" y="374" type="curve" smooth="yes"/>
      <point x="504" y="374" type="line" smooth="yes"/>
      <point x="521" y="374"/>
      <point x="530" y="363"/>
      <point x="530" y="340" type="curve" smooth="yes"/>
      <point x="530" y="317"/>
      <point x="526" y="267"/>
      <point x="493" y="267" type="curve" smooth="yes"/>
      <point x="73" y="267" type="line" smooth="yes"/>
      <point x="55" y="267"/>
      <point x="47" y="277"/>
      <point x="47" y="301" type="curve" smooth="yes"/>
      <point x="47" y="325"/>
      <point x="50" y="374"/>
    </contour>
    <contour>
      <point x="65" y="193" type="curve" smooth="yes"/>
      <point x="485" y="193" type="line" smooth="yes"/>
      <point x="502" y="193"/>
      <point x="511" y="182"/>
      <point x="511" y="159" type="curve" smooth="yes"/>
      <point x="511" y="136"/>
      <point x="507" y="86"/>
      <point x="474" y="86" type="curve" smooth="yes"/>
      <point x="54" y="86" type="line" smooth="yes"/>
      <point x="36" y="86"/>
      <point x="28" y="96"/>
      <point x="28" y="120" type="curve" smooth="yes"/>
      <point x="28" y="144"/>
      <point x="31" y="193"/>
    </contour>
  </outline>
</glyph>
<glyph name="question" format="1">
  <advance width="445"/>
  <unicode hex="003F"/>
  <outline>
    <contour>
      <point x="257" y="708" type="curve" smooth="yes"/>
      <point x="382" y="708"/>
      <point x="456" y="649"/>
      <point x="456" y="552" type="curve" smooth="yes"/>
      <point x="456" y="380"/>
      <point x="269" y="349"/>
      <point x="240" y="249" type="curve" smooth="yes"/>
      <point x="231" y="228"/>
      <point x="217" y="222"/>
      <point x="184" y="222" type="curve" smooth="yes"/>
      <point x="161" y="222" type="line" smooth="yes"/>
      <point x="124" y="222"/>
      <point x="115" y="230"/>
      <point x="115" y="251" type="curve" smooth="yes"/>
      <point x="115" y="317"/>
      <point x="164" y="368"/>
      <point x="211" y="413" type="curve" smooth="yes"/>
      <point x="256" y="454"/>
      <point x="298" y="490"/>
      <point x="298" y="528" type="curve" smooth="yes"/>
      <point x="298" y="558"/>
      <point x="277" y="576"/>
      <point x="230" y="576" type="curve" smooth="yes"/>
      <point x="172" y="576"/>
      <point x="129" y="545"/>
      <point x="115" y="545" type="curve" smooth="yes"/>
      <point x="88" y="545"/>
      <point x="60" y="602"/>
      <point x="60" y="625" type="curve" smooth="yes"/>
      <point x="60" y="685"/>
      <point x="180" y="708"/>
    </contour>
    <contour>
      <point x="149" y="154" type="curve" smooth="yes"/>
      <point x="181" y="154" type="line" smooth="yes"/>
      <point x="224" y="154"/>
      <point x="237" y="143"/>
      <point x="237" y="122" type="curve" smooth="yes"/>
      <point x="228" y="30" type="line" smooth="yes"/>
      <point x="226" y="9"/>
      <point x="205" y="-2"/>
      <point x="164" y="-2" type="curve" smooth="yes"/>
      <point x="132" y="-2" type="line" smooth="yes"/>
      <point x="87" y="-2"/>
      <point x="76" y="8"/>
      <point x="76" y="30" type="curve" smooth="yes"/>
      <point x="85" y="122" type="line" smooth="yes"/>
      <point x="87" y="143"/>
      <point x="107" y="154"/>
    </contour>
  </outline>
</glyph>
<glyph name="at" format="1">
  <advance width="974"/>
  <unicode hex="0040"/>
  <outline>
    <contour>
      <point x="534" y="708" type="curve" smooth="yes"/>
      <point x="735" y="708"/>
      <point x="867" y="579"/>
      <point x="867" y="383" type="curve" smooth="yes"/>
      <point x="867" y="202"/>
      <point x="765" y="58"/>
      <point x="634" y="58" type="curve" smooth="yes"/>
      <point x="564" y="58"/>
      <point x="533" y="91"/>
      <point x="520" y="122" type="curve"/>
      <point x="498" y="85"/>
      <point x="457" y="58"/>
      <point x="407" y="58" type="curve" smooth="yes"/>
      <point x="326" y="58"/>
      <point x="272" y="121"/>
      <point x="272" y="239" type="curve" smooth="yes"/>
      <point x="272" y="400"/>
      <point x="348" y="508"/>
      <point x="457" y="508" type="curve" smooth="yes"/>
      <point x="505" y="508"/>
      <point x="542" y="480"/>
      <point x="559" y="463" type="curve"/>
      <point x="566" y="491"/>
      <point x="574" y="503"/>
      <point x="611" y="503" type="curve" smooth="yes"/>
      <point x="623" y="503" type="line" smooth="yes"/>
      <point x="657" y="503"/>
      <point x="670" y="493"/>
      <point x="670" y="477" type="curve" smooth="yes"/>
      <point x="670" y="472"/>
      <point x="639" y="195"/>
      <point x="639" y="177" type="curve" smooth="yes"/>
      <point x="639" y="153"/>
      <point x="650" y="141"/>
      <point x="674" y="141" type="curve" smooth="yes"/>
      <point x="744" y="141"/>
      <point x="803" y="252"/>
      <point x="803" y="383" type="curve" smooth="yes"/>
      <point x="803" y="546"/>
      <point x="695" y="654"/>
      <point x="534" y="654" type="curve" smooth="yes"/>
      <point x="318" y="654"/>
      <point x="148" y="472"/>
      <point x="148" y="240" type="curve" smooth="yes"/>
      <point x="148" y="56"/>
      <point x="254" y="-69"/>
      <point x="410" y="-69" type="curve" smooth="yes"/>
      <point x="508" y="-69"/>
      <point x="546" y="-38"/>
      <point x="559" y="-38" type="curve" smooth="yes"/>
      <point x="563" y="-38"/>
      <point x="565" y="-41"/>
      <point x="565" y="-50" type="curve" smooth="yes"/>
      <point x="565" y="-52"/>
      <point x="564" y="-66"/>
      <point x="562" y="-76" type="curve" smooth="yes"/>
      <point x="554" y="-117"/>
      <point x="443" y="-123"/>
      <point x="410" y="-123" type="curve" smooth="yes"/>
      <point x="216" y="-123"/>
      <point x="84" y="24"/>
      <point x="84" y="240" type="curve" smooth="yes"/>
      <point x="84" y="503"/>
      <point x="281" y="708"/>
    </contour>
    <contour>
      <point x="519" y="207" type="curve"/>
      <point x="522" y="267"/>
      <point x="528" y="327"/>
      <point x="540" y="387" type="curve"/>
      <point x="526" y="400"/>
      <point x="509" y="410"/>
      <point x="486" y="410" type="curve" smooth="yes"/>
      <point x="430" y="410"/>
      <point x="397" y="354"/>
      <point x="397" y="247" type="curve" smooth="yes"/>
      <point x="397" y="189"/>
      <point x="416" y="159"/>
      <point x="454" y="159" type="curve" smooth="yes"/>
      <point x="481" y="159"/>
      <point x="502" y="181"/>
    </contour>
  </outline>
</glyph>
<glyph name="A" format="1">
  <advance width="613"/>
  <unicode hex="0041"/>
  <outline>
    <contour>
      <point x="345" y="700" type="move" name="Anchor-1"/>
    </contour>
    <contour>
      <point x="301" y="0" type="move" name="Anchor-0"/>
    </contour>
    <contour>
      <point x="319" y="702" type="curve" smooth="yes"/>
      <point x="371" y="702" type="line" smooth="yes"/>
      <point x="400" y="702"/>
      <point x="422" y="697"/>
      <point x="426" y="681" type="curve" smooth="yes"/>
      <point x="584" y="38" type="line" smooth="yes"/>
      <point x="585" y="35"/>
      <point x="587" y="24"/>
      <point x="587" y="21" type="curve" smooth="yes"/>
      <point x="587" y="7"/>
      <point x="568" y="-2"/>
      <point x="533" y="-2" type="curve" smooth="yes"/>
      <point x="489" y="-2" type="line" smooth="yes"/>
      <point x="459" y="-2"/>
      <point x="439" y="3"/>
      <point x="435" y="19" type="curve" smooth="yes"/>
      <point x="406" y="141" type="line"/>
      <point x="164" y="141" type="line"/>
      <point x="109" y="19" type="line" smooth="yes"/>
      <point x="102" y="4"/>
      <point x="85" y="-2"/>
      <point x="61" y="-2" type="curve" smooth="yes"/>
      <point x="21" y="-2" type="line" smooth="yes"/>
      <point x="-18" y="-2"/>
      <point x="-37" y="5"/>
      <point x="-37" y="18" type="curve" smooth="yes"/>
      <point x="-37" y="24"/>
      <point x="-35" y="30"/>
      <point x="-31" y="38" type="curve" smooth="yes"/>
      <point x="260" y="681" type="line" smooth="yes"/>
      <point x="267" y="697"/>
      <point x="290" y="702"/>
    </contour>
    <contour>
      <point x="327" y="515" type="curve"/>
      <point x="323" y="515" type="line"/>
      <point x="317" y="494"/>
      <point x="310" y="471"/>
      <point x="301" y="451" type="curve" smooth="yes"/>
      <point x="221" y="273" type="line"/>
      <point x="375" y="273" type="line"/>
      <point x="335" y="451" type="line" smooth="yes"/>
      <point x="330" y="472"/>
      <point x="328" y="494"/>
    </contour>
  </outline>
</glyph>
<glyph name="B" format="1">
  <advance width="593"/>
  <unicode hex="0042"/>
  <outline>
    <contour>
      <point x="149" y="700" type="curve" smooth="yes"/>
      <point x="347" y="700" type="line" smooth="yes"/>
      <point x="503" y="700"/>
      <point x="566" y="638"/>
      <point x="566" y="546" type="curve" smooth="yes"/>
      <point x="566" y="467"/>
      <point x="512" y="400"/>
      <point x="441" y="371" type="curve"/>
      <point x="441" y="367" type="line"/>
      <point x="514" y="352"/>
      <point x="560" y="290"/>
      <point x="560" y="220" type="curve" smooth="yes"/>
      <point x="560" y="80"/>
      <point x="458" y="0"/>
      <point x="288" y="0" type="curve" smooth="yes"/>
      <point x="76" y="0" type="line" smooth="yes"/>
      <point x="49" y="0"/>
      <point x="40" y="8"/>
      <point x="40" y="32" type="curve" smooth="yes"/>
      <point x="40" y="41"/>
      <point x="44" y="69"/>
      <point x="105" y="660" type="curve" smooth="yes"/>
      <point x="108" y="688"/>
      <point x="121" y="700"/>
    </contour>
    <contour>
      <point x="250" y="570" type="line"/>
      <point x="234" y="421" type="line"/>
      <point x="303" y="421" type="line" smooth="yes"/>
      <point x="368" y="421"/>
      <point x="404" y="460"/>
      <point x="404" y="507" type="curve" smooth="yes"/>
      <point x="404" y="549"/>
      <point x="377" y="570"/>
      <point x="321" y="570" type="curve" smooth="yes"/>
    </contour>
    <contour>
      <point x="220" y="290" type="line"/>
      <point x="203" y="131" type="line"/>
      <point x="301" y="131" type="line" smooth="yes"/>
      <point x="361" y="131"/>
      <point x="402" y="163"/>
      <point x="402" y="221" type="curve" smooth="yes"/>
      <point x="402" y="267"/>
      <point x="367" y="290"/>
      <point x="302" y="290" type="curve" smooth="yes"/>
    </contour>
  </outline>
</glyph>
<glyph name="D" format="1">
  <advance width="695"/>
  <unicode hex="0044"/>
  <outline>
    <contour>
      <point x="348" y="700" type="move" name="Anchor-1"/>
    </contour>
    <contour>
      <point x="291" y="0" type="move" name="Anchor-0"/>
    </contour>
    <contour>
      <point x="149" y="700" type="curve" smooth="yes"/>
      <point x="373" y="700" type="line" smooth="yes"/>
      <point x="560" y="700"/>
      <point x="660" y="598"/>
      <point x="660" y="411" type="curve" smooth="yes"/>
      <point x="660" y="146"/>
      <point x="519" y="0"/>
      <point x="300" y="0" type="curve" smooth="yes"/>
      <point x="76" y="0" type="line" smooth="yes"/>
      <point x="49" y="0"/>
      <point x="40" y="9"/>
      <point x="40" y="33" type="curve" smooth="yes"/>
      <point x="40" y="45"/>
      <point x="83" y="451"/>
      <point x="105" y="660" type="curve" smooth="yes"/>
      <point x="108" y="688"/>
      <point x="121" y="700"/>
    </contour>
    <contour>
      <point x="251" y="569" type="line"/>
      <point x="204" y="131" type="line"/>
      <point x="313" y="131" type="line" smooth="yes"/>
      <point x="428" y="131"/>
      <point x="501" y="225"/>
      <point x="501" y="397" type="curve" smooth="yes"/>
      <point x="501" y="509"/>
      <point x="454" y="569"/>
      <point x="360" y="569" type="curve" smooth="yes"/>
    </contour>
  </outline>
</glyph>
<glyph name="F" format="1">
  <advance width="503"/>
  <unicode hex="0046"/>
  <outline>
    <contour>
      <point x="152" y="700" type="curve" smooth="yes"/>
      <point x="487" y="700" type="line" smooth="yes"/>
      <point x="505" y="700"/>
      <point x="513" y="688"/>
      <point x="513" y="660" type="curve" smooth="yes"/>
      <point x="513" y="608"/>
      <point x="504" y="569"/>
      <point x="475" y="569" type="curve" smooth="yes"/>
      <point x="254" y="569" type="line"/>
      <point x="238" y="423" type="line"/>
      <point x="451" y="423" type="line" smooth="yes"/>
      <point x="469" y="423"/>
      <point x="477" y="411"/>
      <point x="477" y="383" type="curve" smooth="yes"/>
      <point x="477" y="331"/>
      <point x="468" y="292"/>
      <point x="439" y="292" type="curve" smooth="yes"/>
      <point x="225" y="292" type="line"/>
      <point x="197" y="30" type="line" smooth="yes"/>
      <point x="195" y="9"/>
      <point x="173" y="-2"/>
      <point x="134" y="-2" type="curve" smooth="yes"/>
      <point x="99" y="-2" type="line" smooth="yes"/>
      <point x="82" y="-2"/>
      <point x="42" y="0"/>
      <point x="42" y="29" type="curve" smooth="yes"/>
      <point x="108" y="660" type="line" smooth="yes"/>
      <point x="111" y="688"/>
      <point x="124" y="700"/>
    </contour>
  </outline>
</glyph>
<glyph name="H" format="1">
  <advance width="733"/>
  <unicode hex="0048"/>
  <outline>
    <contour>
      <point x="399" y="700" type="move" name="Anchor-1"/>
    </contour>
    <contour>
      <point x="341" y="0" type="move" name="Anchor-0"/>
    </contour>
    <contour>
      <point x="597" y="702" type="curve" smooth="yes"/>
      <point x="632" y="702" type="line" smooth="yes"/>
      <point x="649" y="702"/>
      <point x="689" y="700"/>
      <point x="689" y="671" type="curve" smooth="yes"/>
      <point x="622" y="30" type="line" smooth="yes"/>
      <point x="620" y="9"/>
      <point x="598" y="-2"/>
      <point x="559" y="-2" type="curve" smooth="yes"/>
      <point x="524" y="-2" type="line" smooth="yes"/>
      <point x="507" y="-2"/>
      <point x="467" y="0"/>
      <point x="467" y="29" type="curve" smooth="yes"/>
      <point x="494" y="291" type="line"/>
      <point x="224" y="291" type="line"/>
      <point x="197" y="30" type="line" smooth="yes"/>
      <point x="195" y="9"/>
      <point x="173" y="-2"/>
      <point x="134" y="-2" type="curve" smooth="yes"/>
      <point x="99" y="-2" type="line" smooth="yes"/>
      <point x="82" y="-2"/>
      <point x="42" y="0"/>
      <point x="42" y="29" type="curve" smooth="yes"/>
      <point x="109" y="670" type="line" smooth="yes"/>
      <point x="111" y="691"/>
      <point x="133" y="702"/>
      <point x="172" y="702" type="curve" smooth="yes"/>
      <point x="207" y="702" type="line" smooth="yes"/>
      <point x="224" y="702"/>
      <point x="264" y="700"/>
      <point x="264" y="671" type="curve" smooth="yes"/>
      <point x="238" y="423" type="line"/>
      <point x="508" y="423" type="line"/>
      <point x="534" y="670" type="line" smooth="yes"/>
      <point x="536" y="691"/>
      <point x="558" y="702"/>
    </contour>
  </outline>
</glyph>
<glyph name="I" format="1">
  <advance width="282"/>
  <unicode hex="0049"/>
  <outline>
    <contour>
      <point x="181" y="700" type="move" name="Anchor-1"/>
    </contour>
    <contour>
      <point x="103" y="0" type="move" name="Anchor-0"/>
    </contour>
    <contour>
      <point x="160" y="702" type="curve" smooth="yes"/>
      <point x="195" y="702" type="line" smooth="yes"/>
      <point x="212" y="702"/>
      <point x="252" y="700"/>
      <point x="252" y="671" type="curve" smooth="yes"/>
      <point x="185" y="30" type="line" smooth="yes"/>
      <point x="183" y="9"/>
      <point x="161" y="-2"/>
      <point x="122" y="-2" type="curve" smooth="yes"/>
      <point x="87" y="-2" type="line" smooth="yes"/>
      <point x="70" y="-2"/>
      <point x="30" y="0"/>
      <point x="30" y="29" type="curve" smooth="yes"/>
      <point x="97" y="670" type="line" smooth="yes"/>
      <point x="99" y="691"/>
      <point x="121" y="702"/>
    </contour>
  </outline>
</glyph>
<glyph name="J" format="1">
  <advance width="402"/>
  <unicode hex="004A"/>
  <outline>
    <contour>
      <point x="290" y="700" type="move" name="Anchor-1"/>
    </contour>
    <contour>
      <point x="0" y="0" type="move" name="Anchor-0"/>
    </contour>
    <contour>
      <point x="271" y="702" type="curve" smooth="yes"/>
      <point x="306" y="702" type="line" smooth="yes"/>
      <point x="323" y="702"/>
      <point x="363" y="700"/>
      <point x="363" y="671" type="curve" smooth="yes"/>
      <point x="313" y="202" type="line" smooth="yes"/>
      <point x="299" y="75"/>
      <point x="228" y="-8"/>
      <point x="79" y="-8" type="curve" smooth="yes"/>
      <point x="39" y="-8"/>
      <point x="-17" y="-2"/>
      <point x="-17" y="35" type="curve" smooth="yes"/>
      <point x="-17" y="121"/>
      <point x="-4" y="132"/>
      <point x="3" y="132" type="curve" smooth="yes"/>
      <point x="11" y="132"/>
      <point x="22" y="123"/>
      <point x="66" y="123" type="curve" smooth="yes"/>
      <point x="126" y="123"/>
      <point x="153" y="154"/>
      <point x="161" y="227" type="curve" smooth="yes"/>
      <point x="208" y="670" type="line" smooth="yes"/>
      <point x="210" y="691"/>
      <point x="232" y="702"/>
    </contour>
  </outline>
</glyph>
<glyph name="K" format="1">
  <advance width="576"/>
  <unicode hex="004B"/>
  <outline>
    <contour>
      <point x="340" y="700" type="move" name="Anchor-1"/>
    </contour>
    <contour>
      <point x="270" y="0" type="move" name="Anchor-0"/>
    </contour>
    <contour>
      <point x="498" y="702" type="curve" smooth="yes"/>
      <point x="545" y="702" type="line" smooth="yes"/>
      <point x="583" y="702"/>
      <point x="600" y="696"/>
      <point x="600" y="688" type="curve" smooth="yes"/>
      <point x="600" y="683"/>
      <point x="597" y="675"/>
      <point x="590" y="666" type="curve" smooth="yes"/>
      <point x="366" y="370" type="line"/>
      <point x="549" y="34" type="line" smooth="yes"/>
      <point x="553" y="26"/>
      <point x="555" y="20"/>
      <point x="555" y="16" type="curve" smooth="yes"/>
      <point x="555" y="5"/>
      <point x="542" y="-2"/>
      <point x="498" y="-2" type="curve" smooth="yes"/>
      <point x="440" y="-2" type="line" smooth="yes"/>
      <point x="408" y="-2"/>
      <point x="388" y="2"/>
      <point x="381" y="17" type="curve" smooth="yes"/>
      <point x="224" y="321" type="line"/>
      <point x="220" y="320" type="line"/>
      <point x="190" y="30" type="line" smooth="yes"/>
      <point x="188" y="9"/>
      <point x="169" y="-2"/>
      <point x="127" y="-2" type="curve" smooth="yes"/>
      <point x="92" y="-2" type="line" smooth="yes"/>
      <point x="49" y="-2"/>
      <point x="35" y="9"/>
      <point x="35" y="30" type="curve" smooth="yes"/>
      <point x="102" y="670" type="line" smooth="yes"/>
      <point x="104" y="691"/>
      <point x="123" y="702"/>
      <point x="165" y="702" type="curve" smooth="yes"/>
      <point x="200" y="702" type="line" smooth="yes"/>
      <point x="243" y="702"/>
      <point x="257" y="691"/>
      <point x="257" y="670" type="curve" smooth="yes"/>
      <point x="229" y="402" type="line"/>
      <point x="233" y="401" type="line"/>
      <point x="436" y="683" type="line" smooth="yes"/>
      <point x="447" y="698"/>
      <point x="469" y="702"/>
    </contour>
  </outline>
</glyph>
<glyph name="L" format="1">
  <advance width="484"/>
  <unicode hex="004C"/>
  <outline>
    <contour>
      <point x="184" y="700" type="move" name="Anchor-1"/>
    </contour>
    <contour>
      <point x="218" y="0" type="move" name="Anchor-0"/>
    </contour>
    <contour>
      <point x="166" y="702" type="curve" smooth="yes"/>
      <point x="201" y="702" type="line" smooth="yes"/>
      <point x="218" y="702"/>
      <point x="258" y="700"/>
      <point x="258" y="671" type="curve" smooth="yes"/>
      <point x="201" y="131" type="line"/>
      <point x="424" y="131" type="line" smooth="yes"/>
      <point x="442" y="131"/>
      <point x="450" y="119"/>
      <point x="450" y="91" type="curve" smooth="yes"/>
      <point x="450" y="39"/>
      <point x="441" y="0"/>
      <point x="412" y="0" type="curve" smooth="yes"/>
      <point x="72" y="0" type="line" smooth="yes"/>
      <point x="45" y="0"/>
      <point x="36" y="8"/>
      <point x="36" y="32" type="curve" smooth="yes"/>
      <point x="103" y="670" type="line" smooth="yes"/>
      <point x="105" y="691"/>
      <point x="127" y="702"/>
    </contour>
  </outline>
</glyph>
<glyph name="P" format="1">
  <advance width="570"/>
  <unicode hex="0050"/>
  <outline>
    <contour>
      <point x="144" y="700" type="curve" smooth="yes"/>
      <point x="361" y="700" type="line" smooth="yes"/>
      <point x="444" y="700"/>
      <point x="578" y="677"/>
      <point x="578" y="517" type="curve" smooth="yes"/>
      <point x="578" y="291"/>
      <point x="393" y="262"/>
      <point x="325" y="262" type="curve" smooth="yes"/>
      <point x="212" y="262" type="line"/>
      <point x="188" y="30" type="line" smooth="yes"/>
      <point x="186" y="9"/>
      <point x="167" y="-2"/>
      <point x="125" y="-2" type="curve" smooth="yes"/>
      <point x="91" y="-2" type="line" smooth="yes"/>
      <point x="48" y="-2"/>
      <point x="34" y="9"/>
      <point x="34" y="30" type="curve" smooth="yes"/>
      <point x="100" y="660" type="line" smooth="yes"/>
      <point x="103" y="688"/>
      <point x="116" y="700"/>
    </contour>
    <contour>
      <point x="245" y="569" type="line"/>
      <point x="226" y="394" type="line"/>
      <point x="322" y="394" type="line" smooth="yes"/>
      <point x="362" y="394"/>
      <point x="419" y="411"/>
      <point x="419" y="496" type="curve" smooth="yes"/>
      <point x="419" y="555"/>
      <point x="376" y="569"/>
      <point x="341" y="569" type="curve" smooth="yes"/>
    </contour>
  </outline>
</glyph>
<glyph name="Q" format="1">
  <advance width="731"/>
  <unicode hex="0051"/>
  <outline>
    <contour>
      <point x="404" y="706" type="curve" smooth="yes"/>
      <point x="590" y="706"/>
      <point x="689" y="604"/>
      <point x="689" y="414" type="curve" smooth="yes"/>
      <point x="689" y="223"/>
      <point x="614" y="89"/>
      <point x="496" y="31" type="curve"/>
      <point x="495" y="27" type="line"/>
      <point x="637" y="-27" type="line" smooth="yes"/>
      <point x="650" y="-32"/>
      <point x="654" y="-40"/>
      <point x="654" y="-54" type="curve" smooth="yes"/>
      <point x="654" y="-155"/>
      <point x="636" y="-162"/>
      <point x="625" y="-162" type="curve" smooth="yes"/>
      <point x="615" y="-162"/>
      <point x="396" y="-68"/>
      <point x="192" y="16" type="curve" smooth="yes"/>
      <point x="93" y="57"/>
      <point x="42" y="149"/>
      <point x="41" y="286" type="curve" smooth="yes"/>
      <point x="41" y="499"/>
      <point x="143" y="706"/>
    </contour>
    <contour>
      <point x="390" y="576" type="curve" smooth="yes"/>
      <point x="274" y="576"/>
      <point x="200" y="477"/>
      <point x="200" y="297" type="curve" smooth="yes"/>
      <point x="200" y="181"/>
      <point x="248" y="119"/>
      <point x="342" y="119" type="curve" smooth="yes"/>
      <point x="457" y="119"/>
      <point x="531" y="219"/>
      <point x="531" y="403" type="curve" smooth="yes"/>
      <point x="531" y="516"/>
      <point x="483" y="576"/>
    </contour>
  </outline>
</glyph>
<glyph name="S" format="1">
  <advance width="500"/>
  <unicode hex="0053"/>
  <outline>
    <contour>
      <point x="289" y="700" type="move" name="Anchor-1"/>
    </contour>
    <contour>
      <point x="233" y="0" type="move" name="Anchor-0"/>
    </contour>
    <contour>
      <point x="309" y="708" type="curve" smooth="yes"/>
      <point x="413" y="708"/>
      <point x="482" y="672"/>
      <point x="482" y="640" type="curve" smooth="yes"/>
      <point x="482" y="614"/>
      <point x="442" y="551"/>
      <point x="418" y="551" type="curve" smooth="yes"/>
      <point x="405" y="551"/>
      <point x="376" y="576"/>
      <point x="309" y="576" type="curve" smooth="yes"/>
      <point x="222" y="576"/>
      <point x="210" y="535"/>
      <point x="210" y="513" type="curve" smooth="yes"/>
      <point x="210" y="455"/>
      <point x="273" y="438"/>
      <point x="337" y="408" type="curve" smooth="yes"/>
      <point x="402" y="379"/>
      <point x="468" y="337"/>
      <point x="468" y="238" type="curve" smooth="yes"/>
      <point x="468" y="41"/>
      <point x="329" y="-8"/>
      <point x="218" y="-8" type="curve" smooth="yes"/>
      <point x="154" y="-8"/>
      <point x="26" y="12"/>
      <point x="26" y="70" type="curve" smooth="yes"/>
      <point x="26" y="171"/>
      <point x="41" y="181"/>
      <point x="52" y="181" type="curve" smooth="yes"/>
      <point x="70" y="181"/>
      <point x="115" y="123"/>
      <point x="206" y="123" type="curve" smooth="yes"/>
      <point x="249" y="123"/>
      <point x="307" y="137"/>
      <point x="307" y="200" type="curve" smooth="yes"/>
      <point x="307" y="254"/>
      <point x="235" y="271"/>
      <point x="167" y="304" type="curve" smooth="yes"/>
      <point x="106" y="334"/>
      <point x="49" y="376"/>
      <point x="49" y="478" type="curve" smooth="yes"/>
      <point x="49" y="654"/>
      <point x="186" y="708"/>
    </contour>
  </outline>
</glyph>
<glyph name="T" format="1">
  <advance width="549"/>
  <unicode hex="0054"/>
  <outline>
    <contour>
      <point x="309" y="700" type="move" name="Anchor-1"/>
    </contour>
    <contour>
      <point x="234" y="0" type="move" name="Anchor-0"/>
    </contour>
    <contour>
      <point x="72" y="700" type="curve" smooth="yes"/>
      <point x="546" y="700" type="line" smooth="yes"/>
      <point x="564" y="700"/>
      <point x="572" y="688"/>
      <point x="572" y="660" type="curve" smooth="yes"/>
      <point x="572" y="608"/>
      <point x="563" y="569"/>
      <point x="534" y="569" type="curve" smooth="yes"/>
      <point x="374" y="569" type="line"/>
      <point x="317" y="30" type="line" smooth="yes"/>
      <point x="315" y="9"/>
      <point x="293" y="-2"/>
      <point x="254" y="-2" type="curve" smooth="yes"/>
      <point x="219" y="-2" type="line" smooth="yes"/>
      <point x="202" y="-2"/>
      <point x="162" y="0"/>
      <point x="162" y="29" type="curve" smooth="yes"/>
      <point x="219" y="569" type="line"/>
      <point x="60" y="569" type="line" smooth="yes"/>
      <point x="42" y="569"/>
      <point x="34" y="581"/>
      <point x="34" y="609" type="curve" smooth="yes"/>
      <point x="34" y="661"/>
      <point x="43" y="700"/>
    </contour>
  </outline>
</glyph>
<glyph name="U" format="1">
  <advance width="712"/>
  <unicode hex="0055"/>
  <outline>
    <contour>
      <point x="396" y="700" type="move" name="Anchor-1"/>
    </contour>
    <contour>
      <point x="317" y="0" type="move" name="Anchor-0"/>
    </contour>
    <contour>
      <point x="589" y="702" type="curve" smooth="yes"/>
      <point x="622" y="702" type="line" smooth="yes"/>
      <point x="665" y="702"/>
      <point x="678" y="690"/>
      <point x="678" y="670" type="curve" smooth="yes"/>
      <point x="633" y="234" type="line" smooth="yes"/>
      <point x="617" y="80"/>
      <point x="499" y="-8"/>
      <point x="317" y="-8" type="curve" smooth="yes"/>
      <point x="148" y="-8"/>
      <point x="51" y="67"/>
      <point x="51" y="201" type="curve" smooth="yes"/>
      <point x="51" y="221"/>
      <point x="52" y="222"/>
      <point x="98" y="670" type="curve" smooth="yes"/>
      <point x="100" y="691"/>
      <point x="121" y="702"/>
      <point x="162" y="702" type="curve" smooth="yes"/>
      <point x="196" y="702" type="line" smooth="yes"/>
      <point x="239" y="702"/>
      <point x="252" y="690"/>
      <point x="252" y="670" type="curve" smooth="yes"/>
      <point x="207" y="239"/>
      <point x="207" y="234"/>
      <point x="207" y="229" type="curve" smooth="yes"/>
      <point x="207" y="167"/>
      <point x="256" y="123"/>
      <point x="331" y="123" type="curve" smooth="yes"/>
      <point x="411" y="123"/>
      <point x="474" y="174"/>
      <point x="481" y="244" type="curve" smooth="yes"/>
      <point x="525" y="670" type="line" smooth="yes"/>
      <point x="527" y="691"/>
      <point x="548" y="702"/>
    </contour>
  </outline>
</glyph>
<glyph name="V" format="1">
  <advance width="617"/>
  <unicode hex="0056"/>
  <outline>
    <contour>
      <point x="553" y="702" type="curve" smooth="yes"/>
      <point x="584" y="702" type="line" smooth="yes"/>
      <point x="607" y="702"/>
      <point x="641" y="701"/>
      <point x="641" y="678" type="curve" smooth="yes"/>
      <point x="641" y="673"/>
      <point x="640" y="668"/>
      <point x="637" y="662" type="curve" smooth="yes"/>
      <point x="354" y="19" type="line" smooth="yes"/>
      <point x="347" y="3"/>
      <point x="325" y="-2"/>
      <point x="296" y="-2" type="curve" smooth="yes"/>
      <point x="244" y="-2" type="line" smooth="yes"/>
      <point x="214" y="-2"/>
      <point x="194" y="3"/>
      <point x="190" y="19" type="curve" smooth="yes"/>
      <point x="40" y="668"/>
      <point x="39" y="670"/>
      <point x="39" y="673" type="curve" smooth="yes"/>
      <point x="39" y="699"/>
      <point x="74" y="702"/>
      <point x="102" y="702" type="curve" smooth="yes"/>
      <point x="135" y="702" type="line" smooth="yes"/>
      <point x="164" y="702"/>
      <point x="186" y="695"/>
      <point x="191" y="673" type="curve" smooth="yes"/>
      <point x="281" y="241" type="line"/>
      <point x="288" y="205" type="line"/>
      <point x="292" y="205" type="line"/>
      <point x="308" y="242" type="line"/>
      <point x="491" y="673" type="line" smooth="yes"/>
      <point x="500" y="694"/>
      <point x="525" y="702"/>
    </contour>
  </outline>
</glyph>
<glyph name="X" format="1">
  <advance width="611"/>
  <unicode hex="0058"/>
  <outline>
    <contour>
      <point x="521" y="702" type="curve" smooth="yes"/>
      <point x="560" y="702" type="line" smooth="yes"/>
      <point x="584" y="702"/>
      <point x="619" y="702"/>
      <point x="619" y="682" type="curve" smooth="yes"/>
      <point x="619" y="676"/>
      <point x="616" y="668"/>
      <point x="609" y="658" type="curve" smooth="yes"/>
      <point x="389" y="363" type="line"/>
      <point x="555" y="42" type="line" smooth="yes"/>
      <point x="558" y="35"/>
      <point x="560" y="28"/>
      <point x="560" y="23" type="curve" smooth="yes"/>
      <point x="560" y="0"/>
      <point x="526" y="-2"/>
      <point x="497" y="-2" type="curve" smooth="yes"/>
      <point x="458" y="-2" type="line" smooth="yes"/>
      <point x="423" y="-2"/>
      <point x="407" y="2"/>
      <point x="400" y="17" type="curve" smooth="yes"/>
      <point x="289" y="232" type="line"/>
      <point x="129" y="17" type="line" smooth="yes"/>
      <point x="115" y="-1"/>
      <point x="95" y="-2"/>
      <point x="66" y="-2" type="curve" smooth="yes"/>
      <point x="28" y="-2" type="line" smooth="yes"/>
      <point x="3" y="-2"/>
      <point x="-31" y="-2"/>
      <point x="-31" y="18" type="curve" smooth="yes"/>
      <point x="-31" y="24"/>
      <point x="-28" y="32"/>
      <point x="-20" y="42" type="curve" smooth="yes"/>
      <point x="219" y="365" type="line"/>
      <point x="67" y="658" type="line" smooth="yes"/>
      <point x="63" y="666"/>
      <point x="61" y="673"/>
      <point x="61" y="678" type="curve" smooth="yes"/>
      <point x="61" y="701"/>
      <point x="93" y="702"/>
      <point x="125" y="702" type="curve" smooth="yes"/>
      <point x="166" y="702" type="line" smooth="yes"/>
      <point x="195" y="702"/>
      <point x="216" y="698"/>
      <point x="224" y="683" type="curve" smooth="yes"/>
      <point x="319" y="497" type="line"/>
      <point x="458" y="683" type="line" smooth="yes"/>
      <point x="471" y="700"/>
      <point x="492" y="702"/>
    </contour>
  </outline>
</glyph>
<glyph name="Y" format="1">
  <advance width="559"/>
  <unicode hex="0059"/>
  <outline>
    <contour>
      <point x="313" y="700" type="move" name="Anchor-1"/>
    </contour>
    <contour>
      <point x="246" y="0" type="move" name="Anchor-0"/>
    </contour>
    <contour>
      <point x="504" y="702" type="curve" smooth="yes"/>
      <point x="540" y="702" type="line" smooth="yes"/>
      <point x="563" y="702"/>
      <point x="601" y="700"/>
      <point x="601" y="682" type="curve" smooth="yes"/>
      <point x="601" y="676"/>
      <point x="597" y="667"/>
      <point x="590" y="657" type="curve" smooth="yes"/>
      <point x="357" y="333" type="line"/>
      <point x="325" y="30" type="line" smooth="yes"/>
      <point x="323" y="9"/>
      <point x="304" y="-2"/>
      <point x="262" y="-2" type="curve" smooth="yes"/>
      <point x="228" y="-2" type="line" smooth="yes"/>
      <point x="185" y="-2"/>
      <point x="171" y="9"/>
      <point x="171" y="30" type="curve" smooth="yes"/>
      <point x="203" y="336" type="line"/>
      <point x="38" y="657" type="line" smooth="yes"/>
      <point x="34" y="665"/>
      <point x="32" y="672"/>
      <point x="32" y="678" type="curve" smooth="yes"/>
      <point x="32" y="701"/>
      <point x="64" y="702"/>
      <point x="96" y="702" type="curve" smooth="yes"/>
      <point x="139" y="702" type="line" smooth="yes"/>
      <point x="168" y="702"/>
      <point x="190" y="698"/>
      <point x="197" y="683" type="curve" smooth="yes"/>
      <point x="297" y="469" type="line"/>
      <point x="442" y="683" type="line" smooth="yes"/>
      <point x="452" y="698"/>
      <point x="475" y="702"/>
    </contour>
  </outline>
</glyph>
<glyph name="bracketleft" format="1">
  <advance width="291"/>
  <unicode hex="005B"/>
  <outline>
    <contour>
      <point x="153" y="768" type="curve" smooth="yes"/>
      <point x="280" y="768" type="line" smooth="yes"/>
      <point x="297" y="768"/>
      <point x="306" y="758"/>
      <point x="306" y="738" type="curve" smooth="yes"/>
      <point x="306" y="717"/>
      <point x="302" y="673"/>
      <point x="269" y="673" type="curve" smooth="yes"/>
      <point x="218" y="673" type="line"/>
      <point x="143" y="-43" type="line"/>
      <point x="195" y="-43" type="line" smooth="yes"/>
      <point x="212" y="-43"/>
      <point x="221" y="-53"/>
      <point x="221" y="-73" type="curve" smooth="yes"/>
      <point x="221" y="-94"/>
      <point x="217" y="-138"/>
      <point x="184" y="-138" type="curve" smooth="yes"/>
      <point x="58" y="-138" type="line" smooth="yes"/>
      <point x="31" y="-138"/>
      <point x="22" y="-130"/>
      <point x="22" y="-106" type="curve" smooth="yes"/>
      <point x="22" y="-93"/>
      <point x="80" y="450"/>
      <point x="109" y="728" type="curve" smooth="yes"/>
      <point x="112" y="756"/>
      <point x="125" y="768"/>
    </contour>
  </outline>
</glyph>
<glyph name="backslash" format="1">
  <advance width="361"/>
  <unicode hex="005C"/>
  <outline>
    <contour>
      <point x="83" y="702" type="curve" smooth="yes"/>
      <point x="106" y="702" type="line" smooth="yes"/>
      <point x="137" y="702"/>
      <point x="158" y="694"/>
      <point x="162" y="672" type="curve" smooth="yes"/>
      <point x="324" y="8" type="line" smooth="yes"/>
      <point x="325" y="5"/>
      <point x="325" y="2"/>
      <point x="325" y="0" type="curve" smooth="yes"/>
      <point x="325" y="-20"/>
      <point x="300" y="-22"/>
      <point x="280" y="-22" type="curve" smooth="yes"/>
      <point x="256" y="-22" type="line" smooth="yes"/>
      <point x="225" y="-22"/>
      <point x="204" y="-13"/>
      <point x="200" y="8" type="curve" smooth="yes"/>
      <point x="39" y="672" type="line" smooth="yes"/>
      <point x="38" y="675"/>
      <point x="37" y="678"/>
      <point x="37" y="681" type="curve" smooth="yes"/>
      <point x="37" y="698"/>
      <point x="59" y="702"/>
    </contour>
  </outline>
</glyph>
<glyph name="bracketright" format="1">
  <advance width="291"/>
  <unicode hex="005D"/>
  <outline>
    <contour>
      <point x="108" y="768" type="curve" smooth="yes"/>
      <point x="234" y="768" type="line" smooth="yes"/>
      <point x="261" y="768"/>
      <point x="270" y="760"/>
      <point x="270" y="736" type="curve" smooth="yes"/>
      <point x="270" y="714"/>
      <point x="212" y="180"/>
      <point x="183" y="-98" type="curve" smooth="yes"/>
      <point x="180" y="-126"/>
      <point x="167" y="-138"/>
      <point x="139" y="-138" type="curve" smooth="yes"/>
      <point x="12" y="-138" type="line" smooth="yes"/>
      <point x="-5" y="-138"/>
      <point x="-14" y="-128"/>
      <point x="-14" y="-108" type="curve" smooth="yes"/>
      <point x="-14" y="-87"/>
      <point x="-10" y="-43"/>
      <point x="23" y="-43" type="curve" smooth="yes"/>
      <point x="74" y="-43" type="line"/>
      <point x="149" y="673" type="line"/>
      <point x="97" y="673" type="line" smooth="yes"/>
      <point x="80" y="673"/>
      <point x="71" y="683"/>
      <point x="71" y="703" type="curve" smooth="yes"/>
      <point x="71" y="724"/>
      <point x="75" y="768"/>
    </contour>
  </outline>
</glyph>
<glyph name="asciicircum" format="1">
  <advance width="450"/>
  <unicode hex="005E"/>
  <outline>
    <contour>
      <point x="229" y="686" type="curve" smooth="yes"/>
      <point x="260" y="686" type="line" smooth="yes"/>
      <point x="279" y="686"/>
      <point x="293" y="676"/>
      <point x="299" y="656" type="curve" smooth="yes"/>
      <point x="395" y="348" type="line" smooth="yes"/>
      <point x="398" y="342"/>
      <point x="398" y="337"/>
      <point x="398" y="333" type="curve" smooth="yes"/>
      <point x="397" y="324"/>
      <point x="386" y="318"/>
      <point x="364" y="318" type="curve" smooth="yes"/>
      <point x="343" y="318" type="line" smooth="yes"/>
      <point x="317" y="318"/>
      <point x="300" y="327"/>
      <point x="294" y="348" type="curve" smooth="yes"/>
      <point x="230" y="555" type="line"/>
      <point x="122" y="348" type="line" smooth="yes"/>
      <point x="111" y="327"/>
      <point x="94" y="318"/>
      <point x="68" y="318" type="curve" smooth="yes"/>
      <point x="47" y="318" type="line" smooth="yes"/>
      <point x="26" y="318"/>
      <point x="17" y="323"/>
      <point x="17" y="332" type="curve" smooth="yes"/>
      <point x="17" y="336"/>
      <point x="18" y="341"/>
      <point x="22" y="348" type="curve" smooth="yes"/>
      <point x="184" y="656" type="line" smooth="yes"/>
      <point x="194" y="676"/>
      <point x="208" y="686"/>
    </contour>
  </outline>
</glyph>
<glyph name="underscore" format="1">
  <advance width="534"/>
  <unicode hex="005F"/>
  <outline>
    <contour>
      <point x="16" y="-36" type="curve" smooth="yes"/>
      <point x="531" y="-36" type="line" smooth="yes"/>
      <point x="548" y="-36"/>
      <point x="557" y="-47"/>
      <point x="557" y="-70" type="curve" smooth="yes"/>
      <point x="557" y="-93"/>
      <point x="553" y="-143"/>
      <point x="520" y="-143" type="curve" smooth="yes"/>
      <point x="5" y="-143" type="line" smooth="yes"/>
      <point x="-13" y="-143"/>
      <point x="-21" y="-133"/>
      <point x="-21" y="-109" type="curve" smooth="yes"/>
      <point x="-21" y="-85"/>
      <point x="-18" y="-36"/>
    </contour>
  </outline>
</glyph>
<glyph name="grave" format="1">
  <advance width="320"/>
  <unicode hex="0060"/>
  <outline>
    <contour>
      <point x="210" y="700" type="move" name="Anchor-3"/>
    </contour>
    <contour>
      <point x="122" y="734" type="curve" smooth="yes"/>
      <point x="162" y="734"/>
      <point x="194" y="728"/>
      <point x="204" y="707" type="curve" smooth="yes"/>
      <point x="241" y="628"/>
      <point x="257" y="602"/>
      <point x="257" y="591" type="curve" smooth="yes"/>
      <point x="257" y="579"/>
      <point x="248" y="575"/>
      <point x="224" y="575" type="curve" smooth="yes"/>
      <point x="177" y="575"/>
      <point x="162" y="588"/>
      <point x="152" y="600" type="curve" smooth="yes"/>
      <point x="70" y="700"/>
      <point x="60" y="708"/>
      <point x="60" y="718" type="curve" smooth="yes"/>
      <point x="60" y="731"/>
      <point x="80" y="734"/>
    </contour>
  </outline>
</glyph>
<glyph name="b" format="1">
  <advance width="569"/>
  <unicode hex="0062"/>
  <outline>
    <contour>
      <point x="163" y="754" type="curve" smooth="yes"/>
      <point x="191" y="754" type="line" smooth="yes"/>
      <point x="231" y="754"/>
      <point x="248" y="739"/>
      <point x="248" y="723" type="curve" smooth="yes"/>
      <point x="221" y="474" type="line"/>
      <point x="250" y="508"/>
      <point x="292" y="531"/>
      <point x="342" y="531" type="curve" smooth="yes"/>
      <point x="451" y="531"/>
      <point x="524" y="455"/>
      <point x="524" y="314" type="curve" smooth="yes"/>
      <point x="524" y="122"/>
      <point x="425" y="-8"/>
      <point x="282" y="-8" type="curve" smooth="yes"/>
      <point x="225" y="-8"/>
      <point x="183" y="23"/>
      <point x="161" y="44" type="curve"/>
      <point x="150" y="9"/>
      <point x="146" y="-1"/>
      <point x="96" y="-2" type="curve" smooth="yes"/>
      <point x="84" y="-2" type="line" smooth="yes"/>
      <point x="44" y="-2"/>
      <point x="26" y="7"/>
      <point x="26" y="23" type="curve" smooth="yes"/>
      <point x="100" y="722" type="line" smooth="yes"/>
      <point x="102" y="743"/>
      <point x="124" y="754"/>
    </contour>
    <contour>
      <point x="286" y="410" type="curve" smooth="yes"/>
      <point x="254" y="410"/>
      <point x="229" y="384"/>
      <point x="209" y="354" type="curve"/>
      <point x="195" y="223" type="line"/>
      <point x="183" y="135" type="line"/>
      <point x="199" y="121"/>
      <point x="220" y="109"/>
      <point x="248" y="109" type="curve" smooth="yes"/>
      <point x="327" y="109"/>
      <point x="374" y="177"/>
      <point x="374" y="305" type="curve" smooth="yes"/>
      <point x="374" y="377"/>
      <point x="347" y="410"/>
    </contour>
  </outline>
</glyph>
<glyph name="c" format="1">
  <advance width="485"/>
  <unicode hex="0063"/>
  <outline>
    <contour>
      <point x="297" y="523" type="move" name="Anchor-1"/>
    </contour>
    <contour>
      <point x="243" y="0" type="move" name="Anchor-0"/>
    </contour>
    <contour>
      <point x="313" y="531" type="curve" smooth="yes"/>
      <point x="361" y="531"/>
      <point x="470" y="520"/>
      <point x="471" y="462" type="curve" smooth="yes"/>
      <point x="471" y="443"/>
      <point x="437" y="386"/>
      <point x="416" y="386" type="curve" smooth="yes"/>
      <point x="411" y="386"/>
      <point x="407" y="389"/>
      <point x="400" y="393" type="curve" smooth="yes"/>
      <point x="385" y="401"/>
      <point x="362" y="414"/>
      <point x="318" y="414" type="curve" smooth="yes"/>
      <point x="229" y="414"/>
      <point x="186" y="349"/>
      <point x="186" y="219" type="curve" smooth="yes"/>
      <point x="186" y="145"/>
      <point x="214" y="109"/>
      <point x="279" y="109" type="curve" smooth="yes"/>
      <point x="337" y="109"/>
      <point x="379" y="129"/>
      <point x="403" y="141" type="curve" smooth="yes"/>
      <point x="413" y="146"/>
      <point x="420" y="149"/>
      <point x="424" y="149" type="curve" smooth="yes"/>
      <point x="428" y="149"/>
      <point x="431" y="149"/>
      <point x="431" y="135" type="curve" smooth="yes"/>
      <point x="431" y="131"/>
      <point x="428" y="75"/>
      <point x="423" y="58" type="curve" smooth="yes"/>
      <point x="405" y="8"/>
      <point x="312" y="-8"/>
      <point x="260" y="-8" type="curve" smooth="yes"/>
      <point x="107" y="-8"/>
      <point x="33" y="61"/>
      <point x="33" y="204" type="curve" smooth="yes"/>
      <point x="33" y="378"/>
      <point x="102" y="531"/>
    </contour>
  </outline>
</glyph>
<glyph name="f" format="1">
  <advance width="325"/>
  <unicode hex="0066"/>
  <outline>
    <contour>
      <point x="263" y="760" type="curve" smooth="yes"/>
      <point x="311" y="760"/>
      <point x="359" y="752"/>
      <point x="359" y="714" type="curve" smooth="yes"/>
      <point x="359" y="697"/>
      <point x="339" y="638"/>
      <point x="322" y="638" type="curve" smooth="yes"/>
      <point x="314" y="638"/>
      <point x="309" y="643"/>
      <point x="289" y="643" type="curve" smooth="yes"/>
      <point x="263" y="643"/>
      <point x="252" y="629"/>
      <point x="249" y="600" type="curve" smooth="yes"/>
      <point x="240" y="523" type="line"/>
      <point x="300" y="523" type="line" smooth="yes"/>
      <point x="314" y="523"/>
      <point x="316" y="517"/>
      <point x="316" y="503" type="curve" smooth="yes"/>
      <point x="316" y="466"/>
      <point x="297" y="406"/>
      <point x="258" y="406" type="curve" smooth="yes"/>
      <point x="228" y="406" type="line"/>
      <point x="189" y="30" type="line" smooth="yes"/>
      <point x="187" y="9"/>
      <point x="165" y="-2"/>
      <point x="126" y="-2" type="curve" smooth="yes"/>
      <point x="98" y="-2" type="line" smooth="yes"/>
      <point x="58" y="-2"/>
      <point x="41" y="13"/>
      <point x="41" y="29" type="curve" smooth="yes"/>
      <point x="80" y="406" type="line"/>
      <point x="60" y="406" type="line" smooth="yes"/>
      <point x="42" y="406"/>
      <point x="34" y="417"/>
      <point x="34" y="442" type="curve" smooth="yes"/>
      <point x="34" y="488"/>
      <point x="43" y="523"/>
      <point x="72" y="523" type="curve" smooth="yes"/>
      <point x="93" y="523" type="line"/>
      <point x="100" y="598" type="line" smooth="yes"/>
      <point x="109" y="700"/>
      <point x="168" y="760"/>
    </contour>
  </outline>
</glyph>
<glyph name="j" format="1">
  <advance width="276"/>
  <unicode hex="006A"/>
  <outline>
    <contour>
      <point x="168" y="754" type="curve" smooth="yes"/>
      <point x="196" y="754" type="line" smooth="yes"/>
      <point x="236" y="754"/>
      <point x="253" y="739"/>
      <point x="253" y="723" type="curve" smooth="yes"/>
      <point x="244" y="641" type="line" smooth="yes"/>
      <point x="242" y="620"/>
      <point x="220" y="609"/>
      <point x="181" y="609" type="curve" smooth="yes"/>
      <point x="153" y="609" type="line" smooth="yes"/>
      <point x="113" y="609"/>
      <point x="96" y="624"/>
      <point x="96" y="640" type="curve" smooth="yes"/>
      <point x="105" y="722" type="line" smooth="yes"/>
      <point x="107" y="743"/>
      <point x="129" y="754"/>
    </contour>
    <contour>
      <point x="144" y="525" type="curve" smooth="yes"/>
      <point x="172" y="525" type="line" smooth="yes"/>
      <point x="212" y="525"/>
      <point x="229" y="510"/>
      <point x="229" y="494" type="curve" smooth="yes"/>
      <point x="172" y="-50" type="line" smooth="yes"/>
      <point x="161" y="-152"/>
      <point x="105" y="-212"/>
      <point x="9" y="-212" type="curve" smooth="yes"/>
      <point x="-21" y="-212"/>
      <point x="-69" y="-211"/>
      <point x="-69" y="-173" type="curve" smooth="yes"/>
      <point x="-69" y="-110"/>
      <point x="-60" y="-90"/>
      <point x="-51" y="-90" type="curve" smooth="yes"/>
      <point x="-46" y="-90"/>
      <point x="-36" y="-95"/>
      <point x="-16" y="-95" type="curve" smooth="yes"/>
      <point x="9" y="-95"/>
      <point x="21" y="-82"/>
      <point x="24" y="-52" type="curve" smooth="yes"/>
      <point x="81" y="493" type="line" smooth="yes"/>
      <point x="83" y="514"/>
      <point x="105" y="525"/>
    </contour>
  </outline>
</glyph>
<glyph name="m" format="1">
  <advance width="848"/>
  <unicode hex="006D"/>
  <outline>
    <contour>
      <point x="819" y="115" type="curve" smooth="yes"/>
      <point x="825" y="115"/>
      <point x="827" y="113"/>
      <point x="827" y="104" type="curve" smooth="yes"/>
      <point x="827" y="102"/>
      <point x="826" y="79"/>
      <point x="820" y="44" type="curve" smooth="yes"/>
      <point x="814" y="7"/>
      <point x="767" y="-8"/>
      <point x="732" y="-8" type="curve" smooth="yes"/>
      <point x="654" y="-8"/>
      <point x="611" y="29"/>
      <point x="611" y="119" type="curve" smooth="yes"/>
      <point x="611" y="143"/>
      <point x="634" y="345"/>
      <point x="634" y="359" type="curve" smooth="yes"/>
      <point x="634" y="391"/>
      <point x="619" y="409"/>
      <point x="580" y="409" type="curve" smooth="yes"/>
      <point x="543" y="409"/>
      <point x="513" y="380"/>
      <point x="494" y="352" type="curve"/>
      <point x="463" y="30" type="line" smooth="yes"/>
      <point x="461" y="9"/>
      <point x="439" y="-2"/>
      <point x="400" y="-2" type="curve" smooth="yes"/>
      <point x="372" y="-2" type="line" smooth="yes"/>
      <point x="332" y="-2"/>
      <point x="315" y="13"/>
      <point x="315" y="29" type="curve" smooth="yes"/>
      <point x="315" y="29"/>
      <point x="348" y="349"/>
      <point x="348" y="359" type="curve" smooth="yes"/>
      <point x="348" y="391"/>
      <point x="333" y="409"/>
      <point x="294" y="409" type="curve" smooth="yes"/>
      <point x="256" y="409"/>
      <point x="227" y="379"/>
      <point x="208" y="351" type="curve"/>
      <point x="176" y="30" type="line" smooth="yes"/>
      <point x="174" y="9"/>
      <point x="152" y="-2"/>
      <point x="113" y="-2" type="curve" smooth="yes"/>
      <point x="85" y="-2" type="line" smooth="yes"/>
      <point x="45" y="-2"/>
      <point x="28" y="13"/>
      <point x="28" y="29" type="curve" smooth="yes"/>
      <point x="66" y="400"/>
      <point x="66" y="391"/>
      <point x="66" y="428" type="curve" smooth="yes"/>
      <point x="66" y="452"/>
      <point x="64" y="469"/>
      <point x="64" y="484" type="curve" smooth="yes"/>
      <point x="64" y="506"/>
      <point x="115" y="520"/>
      <point x="180" y="520" type="curve" smooth="yes"/>
      <point x="203" y="520"/>
      <point x="211" y="487"/>
      <point x="213" y="455" type="curve"/>
      <point x="246" y="494"/>
      <point x="307" y="531"/>
      <point x="367" y="531" type="curve" smooth="yes"/>
      <point x="436" y="531"/>
      <point x="478" y="506"/>
      <point x="493" y="454" type="curve"/>
      <point x="524" y="492"/>
      <point x="589" y="531"/>
      <point x="653" y="531" type="curve" smooth="yes"/>
      <point x="742" y="531"/>
      <point x="785" y="491"/>
      <point x="785" y="404" type="curve" smooth="yes"/>
      <point x="785" y="382"/>
      <point x="760" y="159"/>
      <point x="760" y="142" type="curve" smooth="yes"/>
      <point x="760" y="119"/>
      <point x="769" y="109"/>
      <point x="790" y="109" type="curve" smooth="yes"/>
      <point x="804" y="109"/>
      <point x="815" y="115"/>
    </contour>
  </outline>
</glyph>
<glyph name="o" format="1">
  <advance width="569"/>
  <unicode hex="006F"/>
  <outline>
    <contour>
      <point x="294" y="523" type="move" name="Anchor-1"/>
    </contour>
    <contour>
      <point x="251" y="0" type="move" name="Anchor-0"/>
    </contour>
    <contour>
      <point x="307" y="531" type="curve" smooth="yes"/>
      <point x="450" y="531"/>
      <point x="524" y="454"/>
      <point x="524" y="311" type="curve" smooth="yes"/>
      <point x="524" y="106"/>
      <point x="419" y="-8"/>
      <point x="250" y="-8" type="curve" smooth="yes"/>
      <point x="107" y="-8"/>
      <point x="33" y="69"/>
      <point x="33" y="211" type="curve" smooth="yes"/>
      <point x="33" y="374"/>
      <point x="98" y="531"/>
    </contour>
    <contour>
      <point x="295" y="414" type="curve" smooth="yes"/>
      <point x="225" y="414"/>
      <point x="183" y="346"/>
      <point x="183" y="218" type="curve" smooth="yes"/>
      <point x="183" y="146"/>
      <point x="208" y="109"/>
      <point x="262" y="109" type="curve" smooth="yes"/>
      <point x="331" y="109"/>
      <point x="373" y="177"/>
      <point x="373" y="304" type="curve" smooth="yes"/>
      <point x="373" y="377"/>
      <point x="349" y="414"/>
    </contour>
  </outline>
</glyph>
<glyph name="p" format="1">
  <advance width="573"/>
  <unicode hex="0070"/>
  <outline>
    <contour>
      <point x="348" y="531" type="curve" smooth="yes"/>
      <point x="454" y="531"/>
      <point x="525" y="455"/>
      <point x="525" y="314" type="curve" smooth="yes"/>
      <point x="525" y="122"/>
      <point x="428" y="-8"/>
      <point x="288" y="-8" type="curve" smooth="yes"/>
      <point x="241" y="-8"/>
      <point x="205" y="13"/>
      <point x="181" y="32" type="curve"/>
      <point x="159" y="-174" type="line" smooth="yes"/>
      <point x="157" y="-195"/>
      <point x="135" y="-206"/>
      <point x="96" y="-206" type="curve" smooth="yes"/>
      <point x="68" y="-206" type="line" smooth="yes"/>
      <point x="28" y="-206"/>
      <point x="11" y="-191"/>
      <point x="11" y="-175" type="curve" smooth="yes"/>
      <point x="67" y="357" type="line" smooth="yes"/>
      <point x="70" y="386"/>
      <point x="71" y="411"/>
      <point x="71" y="428" type="curve" smooth="yes"/>
      <point x="71" y="452"/>
      <point x="69" y="469"/>
      <point x="69" y="484" type="curve" smooth="yes"/>
      <point x="69" y="506"/>
      <point x="120" y="520"/>
      <point x="185" y="520" type="curve" smooth="yes"/>
      <point x="211" y="520"/>
      <point x="217" y="489"/>
      <point x="217" y="460" type="curve"/>
      <point x="245" y="500"/>
      <point x="292" y="531"/>
    </contour>
    <contour>
      <point x="254" y="109" type="curve" smooth="yes"/>
      <point x="330" y="109"/>
      <point x="375" y="177"/>
      <point x="375" y="305" type="curve" smooth="yes"/>
      <point x="375" y="374"/>
      <point x="347" y="410"/>
      <point x="292" y="410" type="curve" smooth="yes"/>
      <point x="258" y="410"/>
      <point x="232" y="382"/>
      <point x="212" y="349" type="curve"/>
      <point x="207" y="291"/>
      <point x="199" y="213"/>
      <point x="191" y="132" type="curve"/>
      <point x="207" y="119"/>
      <point x="228" y="109"/>
    </contour>
  </outline>
</glyph>
<glyph name="q" format="1">
  <advance width="566"/>
  <unicode hex="0071"/>
  <outline>
    <contour>
      <point x="454" y="525" type="curve" smooth="yes"/>
      <point x="466" y="525" type="line" smooth="yes"/>
      <point x="506" y="525"/>
      <point x="524" y="516"/>
      <point x="524" y="500" type="curve" smooth="yes"/>
      <point x="453" y="-174" type="line" smooth="yes"/>
      <point x="451" y="-195"/>
      <point x="429" y="-206"/>
      <point x="390" y="-206" type="curve" smooth="yes"/>
      <point x="362" y="-206" type="line" smooth="yes"/>
      <point x="322" y="-206"/>
      <point x="305" y="-191"/>
      <point x="305" y="-175" type="curve" smooth="yes"/>
      <point x="328" y="49" type="line"/>
      <point x="299" y="15"/>
      <point x="258" y="-8"/>
      <point x="208" y="-8" type="curve" smooth="yes"/>
      <point x="102" y="-8"/>
      <point x="31" y="68"/>
      <point x="31" y="209" type="curve" smooth="yes"/>
      <point x="31" y="401"/>
      <point x="128" y="531"/>
      <point x="268" y="531" type="curve" smooth="yes"/>
      <point x="325" y="531"/>
      <point x="367" y="500"/>
      <point x="389" y="479" type="curve"/>
      <point x="400" y="514"/>
      <point x="404" y="524"/>
    </contour>
    <contour>
      <point x="355" y="300" type="line"/>
      <point x="367" y="388" type="line"/>
      <point x="351" y="402"/>
      <point x="330" y="414"/>
      <point x="302" y="414" type="curve" smooth="yes"/>
      <point x="226" y="414"/>
      <point x="181" y="346"/>
      <point x="181" y="218" type="curve" smooth="yes"/>
      <point x="181" y="149"/>
      <point x="209" y="113"/>
      <point x="264" y="113" type="curve" smooth="yes"/>
      <point x="296" y="113"/>
      <point x="321" y="139"/>
      <point x="341" y="169" type="curve"/>
    </contour>
  </outline>
</glyph>
<glyph name="r" format="1">
  <advance width="366"/>
  <unicode hex="0072"/>
  <outline>
    <contour>
      <point x="169" y="523" type="move" name="Anchor-1"/>
    </contour>
    <contour>
      <point x="112" y="0" type="move" name="Anchor-0"/>
    </contour>
    <contour>
      <point x="328" y="531" type="curve" smooth="yes"/>
      <point x="372" y="531"/>
      <point x="375" y="500"/>
      <point x="375" y="485" type="curve" smooth="yes"/>
      <point x="375" y="452"/>
      <point x="349" y="392"/>
      <point x="335" y="392" type="curve" smooth="yes"/>
      <point x="325" y="392"/>
      <point x="318" y="401"/>
      <point x="294" y="401" type="curve" smooth="yes"/>
      <point x="263" y="401"/>
      <point x="231" y="382"/>
      <point x="207" y="350" type="curve"/>
      <point x="196" y="219"/>
      <point x="175" y="30"/>
      <point x="175" y="30" type="curve" smooth="yes"/>
      <point x="173" y="9"/>
      <point x="151" y="-2"/>
      <point x="112" y="-2" type="curve" smooth="yes"/>
      <point x="84" y="-2" type="line" smooth="yes"/>
      <point x="44" y="-2"/>
      <point x="27" y="13"/>
      <point x="27" y="29" type="curve" smooth="yes"/>
      <point x="61" y="357" type="line" smooth="yes"/>
      <point x="64" y="386"/>
      <point x="65" y="411"/>
      <point x="65" y="428" type="curve" smooth="yes"/>
      <point x="65" y="452"/>
      <point x="63" y="469"/>
      <point x="63" y="484" type="curve" smooth="yes"/>
      <point x="63" y="506"/>
      <point x="114" y="520"/>
      <point x="179" y="520" type="curve" smooth="yes"/>
      <point x="202" y="520"/>
      <point x="210" y="489"/>
      <point x="212" y="457" type="curve"/>
      <point x="237" y="493"/>
      <point x="272" y="531"/>
    </contour>
  </outline>
</glyph>
<glyph name="s" format="1">
  <advance width="413"/>
  <unicode hex="0073"/>
  <outline>
    <contour>
      <point x="227" y="523" type="move" name="Anchor-1"/>
    </contour>
    <contour>
      <point x="187" y="0" type="move" name="Anchor-0"/>
    </contour>
    <contour>
      <point x="240" y="531" type="curve" smooth="yes"/>
      <point x="295" y="531"/>
      <point x="386" y="518"/>
      <point x="386" y="470" type="curve" smooth="yes"/>
      <point x="386" y="451"/>
      <point x="353" y="395"/>
      <point x="333" y="395" type="curve" smooth="yes"/>
      <point x="320" y="395"/>
      <point x="302" y="415"/>
      <point x="251" y="415" type="curve" smooth="yes"/>
      <point x="215" y="415"/>
      <point x="194" y="403"/>
      <point x="194" y="378" type="curve" smooth="yes"/>
      <point x="194" y="339"/>
      <point x="234" y="329"/>
      <point x="276" y="311" type="curve" smooth="yes"/>
      <point x="323" y="291"/>
      <point x="372" y="262"/>
      <point x="372" y="185" type="curve" smooth="yes"/>
      <point x="372" y="62"/>
      <point x="285" y="-8"/>
      <point x="166" y="-8" type="curve" smooth="yes"/>
      <point x="135" y="-8"/>
      <point x="22" y="-1"/>
      <point x="22" y="53" type="curve" smooth="yes"/>
      <point x="22" y="140"/>
      <point x="38" y="143"/>
      <point x="44" y="143" type="curve" smooth="yes"/>
      <point x="53" y="143"/>
      <point x="95" y="109"/>
      <point x="154" y="109" type="curve" smooth="yes"/>
      <point x="198" y="109"/>
      <point x="220" y="126"/>
      <point x="220" y="156" type="curve" smooth="yes"/>
      <point x="220" y="191"/>
      <point x="180" y="201"/>
      <point x="137" y="218" type="curve" smooth="yes"/>
      <point x="91" y="237"/>
      <point x="42" y="264"/>
      <point x="42" y="349" type="curve" smooth="yes"/>
      <point x="42" y="468"/>
      <point x="127" y="531"/>
    </contour>
  </outline>
</glyph>
<glyph name="u" format="1">
  <advance width="557"/>
  <unicode hex="0075"/>
  <outline>
    <contour>
      <point x="294" y="523" type="move" name="Anchor-1"/>
    </contour>
    <contour>
      <point x="231" y="0" type="move" name="Anchor-0"/>
    </contour>
    <contour>
      <point x="523" y="115" type="curve" smooth="yes"/>
      <point x="529" y="115"/>
      <point x="531" y="113"/>
      <point x="531" y="104" type="curve" smooth="yes"/>
      <point x="531" y="102"/>
      <point x="530" y="79"/>
      <point x="524" y="44" type="curve" smooth="yes"/>
      <point x="518" y="7"/>
      <point x="471" y="-8"/>
      <point x="436" y="-8" type="curve" smooth="yes"/>
      <point x="373" y="-8"/>
      <point x="333" y="16"/>
      <point x="320" y="72" type="curve"/>
      <point x="285" y="31"/>
      <point x="224" y="-8"/>
      <point x="160" y="-8" type="curve" smooth="yes"/>
      <point x="70" y="-8"/>
      <point x="28" y="32"/>
      <point x="28" y="119" type="curve" smooth="yes"/>
      <point x="28" y="154"/>
      <point x="65" y="493"/>
      <point x="65" y="493" type="curve" smooth="yes"/>
      <point x="67" y="514"/>
      <point x="89" y="525"/>
      <point x="128" y="525" type="curve" smooth="yes"/>
      <point x="156" y="525" type="line" smooth="yes"/>
      <point x="196" y="525"/>
      <point x="213" y="510"/>
      <point x="213" y="494" type="curve" smooth="yes"/>
      <point x="213" y="494"/>
      <point x="179" y="176"/>
      <point x="179" y="163" type="curve" smooth="yes"/>
      <point x="179" y="132"/>
      <point x="194" y="114"/>
      <point x="233" y="114" type="curve" smooth="yes"/>
      <point x="271" y="114"/>
      <point x="301" y="143"/>
      <point x="319" y="168" type="curve"/>
      <point x="329" y="277"/>
      <point x="353" y="493"/>
      <point x="353" y="493" type="curve" smooth="yes"/>
      <point x="355" y="514"/>
      <point x="377" y="525"/>
      <point x="416" y="525" type="curve" smooth="yes"/>
      <point x="444" y="525" type="line" smooth="yes"/>
      <point x="484" y="525"/>
      <point x="501" y="510"/>
      <point x="501" y="494" type="curve" smooth="yes"/>
      <point x="501" y="494"/>
      <point x="464" y="152"/>
      <point x="464" y="142" type="curve" smooth="yes"/>
      <point x="464" y="119"/>
      <point x="473" y="109"/>
      <point x="494" y="109" type="curve" smooth="yes"/>
      <point x="508" y="109"/>
      <point x="519" y="115"/>
    </contour>
  </outline>
</glyph>
<glyph name="v" format="1">
  <advance width="485"/>
  <unicode hex="0076"/>
  <outline>
    <contour>
      <point x="411" y="525" type="curve" smooth="yes"/>
      <point x="436" y="525" type="line" smooth="yes"/>
      <point x="458" y="525"/>
      <point x="493" y="525"/>
      <point x="493" y="502" type="curve" smooth="yes"/>
      <point x="493" y="497"/>
      <point x="492" y="492"/>
      <point x="489" y="485" type="curve" smooth="yes"/>
      <point x="281" y="19" type="line" smooth="yes"/>
      <point x="274" y="3"/>
      <point x="252" y="-2"/>
      <point x="223" y="-2" type="curve" smooth="yes"/>
      <point x="191" y="-2" type="line" smooth="yes"/>
      <point x="161" y="-2"/>
      <point x="141" y="3"/>
      <point x="137" y="19" type="curve" smooth="yes"/>
      <point x="27" y="485" type="line" smooth="yes"/>
      <point x="26" y="491"/>
      <point x="25" y="496"/>
      <point x="25" y="500" type="curve" smooth="yes"/>
      <point x="25" y="516"/>
      <point x="42" y="525"/>
      <point x="88" y="525" type="curve" smooth="yes"/>
      <point x="121" y="525" type="line" smooth="yes"/>
      <point x="148" y="525"/>
      <point x="171" y="520"/>
      <point x="175" y="504" type="curve" smooth="yes"/>
      <point x="215" y="319" type="line" smooth="yes"/>
      <point x="220" y="295"/>
      <point x="224" y="242"/>
      <point x="230" y="198" type="curve"/>
      <point x="234" y="198" type="line"/>
      <point x="247" y="242"/>
      <point x="265" y="296"/>
      <point x="275" y="319" type="curve" smooth="yes"/>
      <point x="353" y="504" type="line" smooth="yes"/>
      <point x="360" y="520"/>
      <point x="382" y="525"/>
    </contour>
  </outline>
</glyph>
<glyph name="w" format="1">
  <advance width="747"/>
  <unicode hex="0077"/>
  <outline>
    <contour>
      <point x="404" y="523" type="move" name="Anchor-1"/>
    </contour>
    <contour>
      <point x="0" y="0" type="move" name="Anchor-0"/>
    </contour>
    <contour>
      <point x="685" y="525" type="curve" smooth="yes"/>
      <point x="726" y="525"/>
      <point x="744" y="516"/>
      <point x="744" y="501" type="curve" smooth="yes"/>
      <point x="744" y="497"/>
      <point x="743" y="491"/>
      <point x="741" y="484" type="curve" smooth="yes"/>
      <point x="574" y="19" type="line" smooth="yes"/>
      <point x="569" y="5"/>
      <point x="545" y="-2"/>
      <point x="517" y="-2" type="curve" smooth="yes"/>
      <point x="468" y="-2" type="line" smooth="yes"/>
      <point x="436" y="-2"/>
      <point x="418" y="5"/>
      <point x="415" y="19" type="curve" smooth="yes"/>
      <point x="373" y="300" type="line"/>
      <point x="275" y="19" type="line" smooth="yes"/>
      <point x="270" y="5"/>
      <point x="247" y="-2"/>
      <point x="218" y="-2" type="curve" smooth="yes"/>
      <point x="169" y="-2" type="line" smooth="yes"/>
      <point x="136" y="-2"/>
      <point x="118" y="5"/>
      <point x="116" y="19" type="curve" smooth="yes"/>
      <point x="41" y="470"/>
      <point x="38" y="485"/>
      <point x="38" y="499" type="curve" smooth="yes"/>
      <point x="40" y="515"/>
      <point x="60" y="525"/>
      <point x="103" y="525" type="curve" smooth="yes"/>
      <point x="127" y="525" type="line" smooth="yes"/>
      <point x="154" y="525"/>
      <point x="178" y="518"/>
      <point x="180" y="504" type="curve" smooth="yes"/>
      <point x="227" y="196" type="line"/>
      <point x="335" y="504" type="line" smooth="yes"/>
      <point x="340" y="518"/>
      <point x="359" y="525"/>
      <point x="392" y="525" type="curve" smooth="yes"/>
      <point x="416" y="525" type="line" smooth="yes"/>
      <point x="444" y="525"/>
      <point x="467" y="518"/>
      <point x="469" y="504" type="curve" smooth="yes"/>
      <point x="511" y="196" type="line"/>
      <point x="624" y="504" type="line" smooth="yes"/>
      <point x="629" y="518"/>
      <point x="649" y="525"/>
    </contour>
  </outline>
</glyph>
<glyph name="x" format="1">
  <advance width="485"/>
  <unicode hex="0078"/>
  <outline>
    <contour>
      <point x="405" y="525" type="curve" smooth="yes"/>
      <point x="434" y="525" type="line" smooth="yes"/>
      <point x="458" y="525"/>
      <point x="494" y="525"/>
      <point x="494" y="506" type="curve" smooth="yes"/>
      <point x="494" y="500"/>
      <point x="490" y="492"/>
      <point x="482" y="482" type="curve" smooth="yes"/>
      <point x="313" y="266" type="line"/>
      <point x="437" y="42" type="line" smooth="yes"/>
      <point x="442" y="33"/>
      <point x="444" y="25"/>
      <point x="444" y="20" type="curve" smooth="yes"/>
      <point x="444" y="-1"/>
      <point x="415" y="-2"/>
      <point x="381" y="-2" type="curve" smooth="yes"/>
      <point x="349" y="-2" type="line" smooth="yes"/>
      <point x="320" y="-2"/>
      <point x="299" y="-1"/>
      <point x="290" y="17" type="curve" smooth="yes"/>
      <point x="222" y="148" type="line"/>
      <point x="125" y="17" type="line" smooth="yes"/>
      <point x="112" y="-1"/>
      <point x="91" y="-2"/>
      <point x="62" y="-2" type="curve" smooth="yes"/>
      <point x="32" y="-2" type="line" smooth="yes"/>
      <point x="10" y="-2"/>
      <point x="-28" y="-2"/>
      <point x="-28" y="18" type="curve" smooth="yes"/>
      <point x="-28" y="24"/>
      <point x="-24" y="31"/>
      <point x="-16" y="41" type="curve" smooth="yes"/>
      <point x="159" y="265" type="line"/>
      <point x="40" y="481" type="line" smooth="yes"/>
      <point x="34" y="491"/>
      <point x="32" y="499"/>
      <point x="32" y="505" type="curve" smooth="yes"/>
      <point x="32" y="523"/>
      <point x="65" y="525"/>
      <point x="96" y="525" type="curve" smooth="yes"/>
      <point x="128" y="525" type="line" smooth="yes"/>
      <point x="157" y="525"/>
      <point x="178" y="524"/>
      <point x="187" y="506" type="curve" smooth="yes"/>
      <point x="250" y="383" type="line"/>
      <point x="342" y="506" type="line" smooth="yes"/>
      <point x="355" y="524"/>
      <point x="376" y="525"/>
    </contour>
  </outline>
</glyph>
<glyph name="y" format="1">
  <advance width="481"/>
  <unicode hex="0079"/>
  <outline>
    <contour>
      <point x="261" y="523" type="move" name="Anchor-1"/>
    </contour>
    <contour>
      <point x="361" y="0" type="move" name="Anchor-0"/>
    </contour>
    <contour>
      <point x="413" y="525" type="curve" smooth="yes"/>
      <point x="437" y="525" type="line" smooth="yes"/>
      <point x="478" y="525"/>
      <point x="495" y="517"/>
      <point x="495" y="504" type="curve" smooth="yes"/>
      <point x="495" y="499"/>
      <point x="493" y="492"/>
      <point x="490" y="485" type="curve" smooth="yes"/>
      <point x="190" y="-185" type="line" smooth="yes"/>
      <point x="183" y="-201"/>
      <point x="161" y="-206"/>
      <point x="132" y="-206" type="curve" smooth="yes"/>
      <point x="115" y="-206" type="line" smooth="yes"/>
      <point x="75" y="-206"/>
      <point x="57" y="-199"/>
      <point x="57" y="-186" type="curve" smooth="yes"/>
      <point x="57" y="-181"/>
      <point x="59" y="-174"/>
      <point x="63" y="-167" type="curve" smooth="yes"/>
      <point x="144" y="0" type="line"/>
      <point x="28" y="490"/>
      <point x="27" y="495"/>
      <point x="27" y="499" type="curve" smooth="yes"/>
      <point x="27" y="515"/>
      <point x="43" y="525"/>
      <point x="91" y="525" type="curve" smooth="yes"/>
      <point x="123" y="525" type="line" smooth="yes"/>
      <point x="150" y="525"/>
      <point x="173" y="520"/>
      <point x="177" y="504" type="curve" smooth="yes"/>
      <point x="216" y="319" type="line" smooth="yes"/>
      <point x="221" y="296"/>
      <point x="227" y="241"/>
      <point x="232" y="198" type="curve"/>
      <point x="236" y="198" type="line"/>
      <point x="249" y="241"/>
      <point x="267" y="297"/>
      <point x="276" y="319" type="curve" smooth="yes"/>
      <point x="355" y="504" type="line" smooth="yes"/>
      <point x="362" y="520"/>
      <point x="383" y="525"/>
    </contour>
  </outline>
</glyph>
<glyph name="bar" format="1">
  <advance width="250"/>
  <unicode hex="007C"/>
  <outline>
    <contour>
      <point x="118" y="768" type="curve" smooth="yes"/>
      <point x="133" y="768" type="line" smooth="yes"/>
      <point x="168" y="768"/>
      <point x="183" y="759"/>
      <point x="183" y="738" type="curve" smooth="yes"/>
      <point x="183" y="-108" type="line" smooth="yes"/>
      <point x="183" y="-129"/>
      <point x="168" y="-138"/>
      <point x="133" y="-138" type="curve" smooth="yes"/>
      <point x="118" y="-138" type="line" smooth="yes"/>
      <point x="83" y="-138"/>
      <point x="68" y="-129"/>
      <point x="68" y="-108" type="curve" smooth="yes"/>
      <point x="68" y="738" type="line" smooth="yes"/>
      <point x="68" y="759"/>
      <point x="83" y="768"/>
    </contour>
  </outline>
</glyph>
<glyph name="braceright" format="1">
  <advance width="274"/>
  <unicode hex="007D"/>
  <outline>
    <contour>
      <point x="95" y="768" type="curve" smooth="yes"/>
      <point x="134" y="768" type="line" smooth="yes"/>
      <point x="187" y="768"/>
      <point x="222" y="728"/>
      <point x="222" y="669" type="curve" smooth="yes"/>
      <point x="222" y="628"/>
      <point x="201" y="514"/>
      <point x="201" y="448" type="curve" smooth="yes"/>
      <point x="201" y="402"/>
      <point x="216" y="384"/>
      <point x="232" y="371" type="curve" smooth="yes"/>
      <point x="247" y="359"/>
      <point x="263" y="352"/>
      <point x="263" y="327" type="curve" smooth="yes"/>
      <point x="263" y="289"/>
      <point x="255" y="273"/>
      <point x="227" y="259" type="curve" smooth="yes"/>
      <point x="191" y="240"/>
      <point x="175" y="211"/>
      <point x="168" y="146" type="curve" smooth="yes"/>
      <point x="150" y="-22" type="line" smooth="yes"/>
      <point x="143" y="-90"/>
      <point x="102" y="-138"/>
      <point x="39" y="-138" type="curve" smooth="yes"/>
      <point x="0" y="-138" type="line" smooth="yes"/>
      <point x="-18" y="-138"/>
      <point x="-27" y="-129"/>
      <point x="-27" y="-109" type="curve" smooth="yes"/>
      <point x="-27" y="-72"/>
      <point x="-18" y="-44"/>
      <point x="10" y="-44" type="curve" smooth="yes"/>
      <point x="11" y="-44" type="line" smooth="yes"/>
      <point x="25" y="-44"/>
      <point x="34" y="-33"/>
      <point x="37" y="-8" type="curve" smooth="yes"/>
      <point x="54" y="162" type="line" smooth="yes"/>
      <point x="61" y="236"/>
      <point x="94" y="290"/>
      <point x="138" y="315" type="curve"/>
      <point x="103" y="336"/>
      <point x="85" y="378"/>
      <point x="85" y="435" type="curve" smooth="yes"/>
      <point x="85" y="478"/>
      <point x="105" y="612"/>
      <point x="105" y="648" type="curve" smooth="yes"/>
      <point x="105" y="666"/>
      <point x="97" y="674"/>
      <point x="86" y="674" type="curve" smooth="yes"/>
      <point x="85" y="674" type="line" smooth="yes"/>
      <point x="68" y="674"/>
      <point x="59" y="683"/>
      <point x="59" y="703" type="curve" smooth="yes"/>
      <point x="59" y="740"/>
      <point x="68" y="768"/>
    </contour>
  </outline>
</glyph>
<glyph name="asciitilde" format="1">
  <advance width="547"/>
  <unicode hex="007E"/>
  <outline>
    <contour>
      <point x="418" y="317" type="curve" smooth="yes"/>
      <point x="434" y="325"/>
      <point x="454" y="326"/>
      <point x="470" y="309" type="curve" smooth="yes"/>
      <point x="484" y="293"/>
      <point x="486" y="282"/>
      <point x="461" y="257" type="curve" smooth="yes"/>
      <point x="431" y="232"/>
      <point x="384" y="216"/>
      <point x="336" y="216" type="curve" smooth="yes"/>
      <point x="298" y="216"/>
      <point x="275" y="221"/>
      <point x="252" y="228" type="curve" smooth="yes"/>
      <point x="231" y="234"/>
      <point x="213" y="242"/>
      <point x="191" y="242" type="curve" smooth="yes"/>
      <point x="165" y="242"/>
      <point x="148" y="235"/>
      <point x="131" y="228" type="curve" smooth="yes"/>
      <point x="115" y="220"/>
      <point x="98" y="226"/>
      <point x="87" y="241" type="curve" smooth="yes"/>
      <point x="74" y="257"/>
      <point x="72" y="274"/>
      <point x="88" y="287" type="curve" smooth="yes"/>
      <point x="122" y="310"/>
      <point x="161" y="328"/>
      <point x="209" y="328" type="curve" smooth="yes"/>
      <point x="245" y="328"/>
      <point x="266" y="323"/>
      <point x="291" y="315" type="curve" smooth="yes"/>
      <point x="311" y="308"/>
      <point x="332" y="302"/>
      <point x="354" y="302" type="curve" smooth="yes"/>
      <point x="380" y="302"/>
      <point x="399" y="307"/>
    </contour>
  </outline>
</glyph>
<glyph name="exclamdown" format="1">
  <advance width="294"/>
  <unicode hex="00A1"/>
  <outline>
    <contour>
      <point x="174" y="525" type="curve" smooth="yes"/>
      <point x="206" y="525" type="line" smooth="yes"/>
      <point x="249" y="525"/>
      <point x="263" y="514"/>
      <point x="263" y="493" type="curve" smooth="yes"/>
      <point x="253" y="401" type="line" smooth="yes"/>
      <point x="251" y="380"/>
      <point x="232" y="369"/>
      <point x="190" y="369" type="curve" smooth="yes"/>
      <point x="158" y="369" type="line" smooth="yes"/>
      <point x="115" y="369"/>
      <point x="101" y="380"/>
      <point x="101" y="401" type="curve" smooth="yes"/>
      <point x="111" y="493" type="line" smooth="yes"/>
      <point x="113" y="514"/>
      <point x="132" y="525"/>
    </contour>
    <contour>
      <point x="161" y="301" type="curve" smooth="yes"/>
      <point x="172" y="301" type="line" smooth="yes"/>
      <point x="215" y="301"/>
      <point x="220" y="291"/>
      <point x="220" y="269" type="curve" smooth="yes"/>
      <point x="176" y="-147" type="line" smooth="yes"/>
      <point x="174" y="-168"/>
      <point x="155" y="-179"/>
      <point x="113" y="-179" type="curve" smooth="yes"/>
      <point x="70" y="-179" type="line" smooth="yes"/>
      <point x="30" y="-179"/>
      <point x="12" y="-168"/>
      <point x="12" y="-150" type="curve" smooth="yes"/>
      <point x="12" y="-125"/>
      <point x="75" y="129"/>
      <point x="107" y="269" type="curve" smooth="yes"/>
      <point x="112" y="290"/>
      <point x="120" y="301"/>
    </contour>
  </outline>
</glyph>
<glyph name="cent" format="1">
  <advance width="486"/>
  <unicode hex="00A2"/>
  <outline>
    <contour>
      <point x="318" y="591" type="curve" smooth="yes"/>
      <point x="335" y="591" type="line" smooth="yes"/>
      <point x="349" y="591"/>
      <point x="353" y="585"/>
      <point x="353" y="571" type="curve" smooth="yes"/>
      <point x="353" y="567"/>
      <point x="350" y="543"/>
      <point x="348" y="529" type="curve"/>
      <point x="400" y="524"/>
      <point x="468" y="508"/>
      <point x="468" y="462" type="curve" smooth="yes"/>
      <point x="468" y="443"/>
      <point x="434" y="386"/>
      <point x="413" y="386" type="curve" smooth="yes"/>
      <point x="400" y="386"/>
      <point x="384" y="408"/>
      <point x="336" y="413" type="curve"/>
      <point x="304" y="110" type="line"/>
      <point x="369" y="117"/>
      <point x="407" y="149"/>
      <point x="420" y="149" type="curve" smooth="yes"/>
      <point x="424" y="149"/>
      <point x="428" y="149"/>
      <point x="428" y="135" type="curve" smooth="yes"/>
      <point x="428" y="131"/>
      <point x="425" y="74"/>
      <point x="420" y="58" type="curve" smooth="yes"/>
      <point x="407" y="15"/>
      <point x="343" y="-1"/>
      <point x="292" y="-6" type="curve"/>
      <point x="287" y="-55" type="line" smooth="yes"/>
      <point x="285" y="-69"/>
      <point x="278" y="-75"/>
      <point x="265" y="-75" type="curve" smooth="yes"/>
      <point x="248" y="-75" type="line" smooth="yes"/>
      <point x="233" y="-75"/>
      <point x="230" y="-69"/>
      <point x="230" y="-55" type="curve" smooth="yes"/>
      <point x="230" y="-52"/>
      <point x="233" y="-23"/>
      <point x="235" y="-7" type="curve"/>
      <point x="102" y="0"/>
      <point x="38" y="69"/>
      <point x="38" y="204" type="curve" smooth="yes"/>
      <point x="38" y="372"/>
      <point x="101" y="520"/>
      <point x="291" y="530" type="curve"/>
      <point x="296" y="571" type="line" smooth="yes"/>
      <point x="298" y="585"/>
      <point x="303" y="591"/>
    </contour>
    <contour>
      <point x="247" y="113" type="curve"/>
      <point x="279" y="408" type="line"/>
      <point x="219" y="390"/>
      <point x="189" y="327"/>
      <point x="189" y="219" type="curve" smooth="yes"/>
      <point x="189" y="159"/>
      <point x="207" y="124"/>
    </contour>
  </outline>
</glyph>
<glyph name="sterling" format="1">
  <advance width="491"/>
  <unicode hex="00A3"/>
  <outline>
    <contour>
      <point x="375" y="708" type="curve" smooth="yes"/>
      <point x="397" y="708"/>
      <point x="480" y="708"/>
      <point x="480" y="667" type="curve" smooth="yes"/>
      <point x="480" y="630"/>
      <point x="448" y="588"/>
      <point x="432" y="588" type="curve" smooth="yes"/>
      <point x="427" y="588"/>
      <point x="403" y="596"/>
      <point x="369" y="596" type="curve" smooth="yes"/>
      <point x="308" y="596"/>
      <point x="276" y="570"/>
      <point x="269" y="507" type="curve" smooth="yes"/>
      <point x="260" y="428" type="line"/>
      <point x="380" y="428" type="line" smooth="yes"/>
      <point x="394" y="428"/>
      <point x="396" y="422"/>
      <point x="396" y="408" type="curve" smooth="yes"/>
      <point x="396" y="371"/>
      <point x="377" y="311"/>
      <point x="338" y="311" type="curve" smooth="yes"/>
      <point x="248" y="311" type="line"/>
      <point x="242" y="251" type="line" smooth="yes"/>
      <point x="236" y="188"/>
      <point x="217" y="145"/>
      <point x="187" y="117" type="curve"/>
      <point x="410" y="117" type="line" smooth="yes"/>
      <point x="427" y="117"/>
      <point x="435" y="107"/>
      <point x="435" y="84" type="curve" smooth="yes"/>
      <point x="435" y="75"/>
      <point x="434" y="61"/>
      <point x="433" y="50" type="curve" smooth="yes"/>
      <point x="431" y="15"/>
      <point x="416" y="0"/>
      <point x="397" y="0" type="curve" smooth="yes"/>
      <point x="34" y="0" type="line" smooth="yes"/>
      <point x="5" y="0"/>
      <point x="-1" y="12"/>
      <point x="-1" y="40" type="curve" smooth="yes"/>
      <point x="-1" y="43"/>
      <point x="-1" y="46"/>
      <point x="1" y="59" type="curve" smooth="yes"/>
      <point x="7" y="100"/>
      <point x="82" y="107"/>
      <point x="89" y="175" type="curve" smooth="yes"/>
      <point x="103" y="311" type="line"/>
      <point x="68" y="311" type="line" smooth="yes"/>
      <point x="50" y="311"/>
      <point x="42" y="322"/>
      <point x="42" y="347" type="curve" smooth="yes"/>
      <point x="42" y="393"/>
      <point x="51" y="428"/>
      <point x="80" y="428" type="curve" smooth="yes"/>
      <point x="115" y="428" type="line"/>
      <point x="123" y="502" type="line" smooth="yes"/>
      <point x="138" y="640"/>
      <point x="222" y="708"/>
    </contour>
  </outline>
</glyph>
<glyph name="currency" format="1">
  <advance width="534"/>
  <unicode hex="00A4"/>
  <outline>
    <contour>
      <point x="440" y="514" type="curve" smooth="yes"/>
      <point x="449" y="514"/>
      <point x="456" y="510"/>
      <point x="463" y="502" type="curve" smooth="yes"/>
      <point x="490" y="472" type="line" smooth="yes"/>
      <point x="496" y="465"/>
      <point x="500" y="458"/>
      <point x="500" y="450" type="curve" smooth="yes"/>
      <point x="500" y="441"/>
      <point x="495" y="431"/>
      <point x="485" y="422" type="curve" smooth="yes"/>
      <point x="453" y="393" type="line"/>
      <point x="465" y="368"/>
      <point x="471" y="341"/>
      <point x="471" y="312" type="curve" smooth="yes"/>
      <point x="471" y="266"/>
      <point x="457" y="224"/>
      <point x="433" y="188" type="curve"/>
      <point x="455" y="164" type="line" smooth="yes"/>
      <point x="461" y="157"/>
      <point x="464" y="150"/>
      <point x="464" y="142" type="curve" smooth="yes"/>
      <point x="464" y="133"/>
      <point x="460" y="123"/>
      <point x="450" y="114" type="curve" smooth="yes"/>
      <point x="417" y="84" type="line" smooth="yes"/>
      <point x="408" y="76"/>
      <point x="399" y="72"/>
      <point x="390" y="72" type="curve" smooth="yes"/>
      <point x="382" y="72"/>
      <point x="374" y="76"/>
      <point x="367" y="84" type="curve" smooth="yes"/>
      <point x="346" y="107" type="line"/>
      <point x="313" y="88"/>
      <point x="275" y="78"/>
      <point x="237" y="78" type="curve" smooth="yes"/>
      <point x="199" y="78"/>
      <point x="164" y="88"/>
      <point x="135" y="105" type="curve"/>
      <point x="112" y="84" type="line" smooth="yes"/>
      <point x="103" y="76"/>
      <point x="94" y="72"/>
      <point x="85" y="72" type="curve" smooth="yes"/>
      <point x="77" y="72"/>
      <point x="69" y="76"/>
      <point x="62" y="84" type="curve" smooth="yes"/>
      <point x="35" y="114" type="line" smooth="yes"/>
      <point x="29" y="121"/>
      <point x="25" y="129"/>
      <point x="25" y="136" type="curve" smooth="yes"/>
      <point x="25" y="146"/>
      <point x="30" y="155"/>
      <point x="40" y="164" type="curve" smooth="yes"/>
      <point x="64" y="186" type="line"/>
      <point x="53" y="210"/>
      <point x="47" y="237"/>
      <point x="47" y="266" type="curve" smooth="yes"/>
      <point x="47" y="312"/>
      <point x="61" y="358"/>
      <point x="88" y="395" type="curve"/>
      <point x="64" y="422" type="line" smooth="yes"/>
      <point x="58" y="429"/>
      <point x="55" y="437"/>
      <point x="55" y="444" type="curve" smooth="yes"/>
      <point x="55" y="454"/>
      <point x="59" y="463"/>
      <point x="69" y="472" type="curve" smooth="yes"/>
      <point x="102" y="502" type="line" smooth="yes"/>
      <point x="111" y="510"/>
      <point x="121" y="514"/>
      <point x="129" y="514" type="curve" smooth="yes"/>
      <point x="138" y="514"/>
      <point x="145" y="510"/>
      <point x="152" y="502" type="curve" smooth="yes"/>
      <point x="178" y="474" type="line"/>
      <point x="209" y="490"/>
      <point x="244" y="500"/>
      <point x="281" y="500" type="curve" smooth="yes"/>
      <point x="318" y="500"/>
      <point x="352" y="490"/>
      <point x="381" y="473" type="curve"/>
      <point x="413" y="502" type="line" smooth="yes"/>
      <point x="422" y="510"/>
      <point x="432" y="514"/>
    </contour>
    <contour>
      <point x="269" y="386" type="curve" smooth="yes"/>
      <point x="211" y="386"/>
      <point x="161" y="337"/>
      <point x="161" y="278" type="curve" smooth="yes"/>
      <point x="161" y="229"/>
      <point x="199" y="192"/>
      <point x="249" y="192" type="curve" smooth="yes"/>
      <point x="306" y="192"/>
      <point x="356" y="241"/>
      <point x="356" y="300" type="curve" smooth="yes"/>
      <point x="356" y="349"/>
      <point x="319" y="386"/>
    </contour>
  </outline>
</glyph>
<glyph name="yen" format="1">
  <advance width="559"/>
  <unicode hex="00A5"/>
  <outline>
    <contour>
      <point x="601" y="682" type="curve" smooth="yes"/>
      <point x="601" y="676"/>
      <point x="597" y="667"/>
      <point x="590" y="657" type="curve" smooth="yes"/>
      <point x="411" y="408" type="line"/>
      <point x="494" y="408" type="line" smooth="yes"/>
      <point x="511" y="408"/>
      <point x="520" y="400"/>
      <point x="520" y="384" type="curve" smooth="yes"/>
      <point x="520" y="368"/>
      <point x="516" y="333"/>
      <point x="483" y="333" type="curve" smooth="yes"/>
      <point x="357" y="333" type="line"/>
      <point x="350" y="270" type="line"/>
      <point x="479" y="270" type="line" smooth="yes"/>
      <point x="496" y="270"/>
      <point x="505" y="262"/>
      <point x="505" y="246" type="curve" smooth="yes"/>
      <point x="505" y="230"/>
      <point x="501" y="195"/>
      <point x="468" y="195" type="curve" smooth="yes"/>
      <point x="342" y="195" type="line"/>
      <point x="325" y="30" type="line" smooth="yes"/>
      <point x="323" y="9"/>
      <point x="304" y="-2"/>
      <point x="262" y="-2" type="curve" smooth="yes"/>
      <point x="228" y="-2" type="line" smooth="yes"/>
      <point x="185" y="-2"/>
      <point x="171" y="9"/>
      <point x="171" y="30" type="curve" smooth="yes"/>
      <point x="188" y="195" type="line"/>
      <point x="52" y="195" type="line" smooth="yes"/>
      <point x="34" y="195"/>
      <point x="26" y="202"/>
      <point x="26" y="219" type="curve" smooth="yes"/>
      <point x="26" y="236"/>
      <point x="29" y="270"/>
      <point x="63" y="270" type="curve" smooth="yes"/>
      <point x="196" y="270" type="line"/>
      <point x="203" y="333" type="line"/>
      <point x="67" y="333" type="line" smooth="yes"/>
      <point x="49" y="333"/>
      <point x="41" y="340"/>
      <point x="41" y="357" type="curve" smooth="yes"/>
      <point x="41" y="374"/>
      <point x="44" y="408"/>
      <point x="78" y="408" type="curve" smooth="yes"/>
      <point x="166" y="408" type="line"/>
      <point x="38" y="657" type="line" smooth="yes"/>
      <point x="34" y="665"/>
      <point x="32" y="672"/>
      <point x="32" y="678" type="curve" smooth="yes"/>
      <point x="32" y="701"/>
      <point x="64" y="702"/>
      <point x="96" y="702" type="curve" smooth="yes"/>
      <point x="139" y="702" type="line" smooth="yes"/>
      <point x="168" y="702"/>
      <point x="190" y="698"/>
      <point x="197" y="683" type="curve" smooth="yes"/>
      <point x="297" y="469" type="line"/>
      <point x="442" y="683" type="line" smooth="yes"/>
      <point x="452" y="698"/>
      <point x="475" y="702"/>
      <point x="504" y="702" type="curve" smooth="yes"/>
      <point x="540" y="702" type="line" smooth="yes"/>
      <point x="563" y="702"/>
      <point x="601" y="700"/>
    </contour>
  </outline>
</glyph>
<glyph name="brokenbar" format="1">
  <advance width="250"/>
  <unicode hex="00A6"/>
  <outline>
    <contour>
      <point x="165" y="770" type="curve" smooth="yes"/>
      <point x="180" y="770" type="line" smooth="yes"/>
      <point x="217" y="770"/>
      <point x="227" y="758"/>
      <point x="227" y="738" type="curve" smooth="yes"/>
      <point x="227" y="728"/>
      <point x="204" y="521"/>
      <point x="193" y="412" type="curve" smooth="yes"/>
      <point x="191" y="391"/>
      <point x="173" y="380"/>
      <point x="139" y="380" type="curve" smooth="yes"/>
      <point x="124" y="380" type="line" smooth="yes"/>
      <point x="92" y="380"/>
      <point x="77" y="389"/>
      <point x="77" y="407" type="curve" smooth="yes"/>
      <point x="77" y="415"/>
      <point x="100" y="628"/>
      <point x="112" y="738" type="curve" smooth="yes"/>
      <point x="114" y="759"/>
      <point x="130" y="770"/>
    </contour>
    <contour>
      <point x="111" y="250" type="curve" smooth="yes"/>
      <point x="126" y="250" type="line" smooth="yes"/>
      <point x="162" y="250"/>
      <point x="172" y="239"/>
      <point x="172" y="218" type="curve" smooth="yes"/>
      <point x="172" y="206"/>
      <point x="149" y="1"/>
      <point x="138" y="-108" type="curve" smooth="yes"/>
      <point x="136" y="-129"/>
      <point x="120" y="-140"/>
      <point x="85" y="-140" type="curve" smooth="yes"/>
      <point x="70" y="-140" type="line" smooth="yes"/>
      <point x="33" y="-140"/>
      <point x="23" y="-129"/>
      <point x="23" y="-108" type="curve" smooth="yes"/>
      <point x="23" y="-97"/>
      <point x="46" y="109"/>
      <point x="57" y="218" type="curve" smooth="yes"/>
      <point x="59" y="239"/>
      <point x="76" y="250"/>
    </contour>
  </outline>
</glyph>
<glyph name="dieresis" format="1">
  <advance width="320"/>
  <unicode hex="00A8"/>
  <outline>
    <contour>
      <point x="170" y="700" type="move" name="Anchor-3"/>
    </contour>
    <contour>
      <point x="77" y="702" type="curve" smooth="yes"/>
      <point x="120" y="702"/>
      <point x="134" y="691"/>
      <point x="134" y="670" type="curve" smooth="yes"/>
      <point x="127" y="610" type="line" smooth="yes"/>
      <point x="124" y="589"/>
      <point x="104" y="578"/>
      <point x="64" y="578" type="curve" smooth="yes"/>
      <point x="21" y="578"/>
      <point x="7" y="589"/>
      <point x="7" y="610" type="curve" smooth="yes"/>
      <point x="14" y="670" type="line" smooth="yes"/>
      <point x="16" y="691"/>
      <point x="35" y="702"/>
    </contour>
    <contour>
      <point x="257" y="702" type="curve" smooth="yes"/>
      <point x="300" y="702"/>
      <point x="314" y="691"/>
      <point x="314" y="670" type="curve" smooth="yes"/>
      <point x="307" y="610" type="line" smooth="yes"/>
      <point x="304" y="589"/>
      <point x="284" y="578"/>
      <point x="244" y="578" type="curve" smooth="yes"/>
      <point x="201" y="578"/>
      <point x="187" y="589"/>
      <point x="187" y="610" type="curve" smooth="yes"/>
      <point x="194" y="670" type="line" smooth="yes"/>
      <point x="196" y="691"/>
      <point x="215" y="702"/>
    </contour>
  </outline>
</glyph>
<glyph name="ordfeminine" format="1">
  <advance width="319"/>
  <unicode hex="00AA"/>
  <outline>
    <contour>
      <point x="272" y="502" type="curve" smooth="yes"/>
      <point x="275" y="502"/>
      <point x="275" y="501"/>
      <point x="275" y="496" type="curve" smooth="yes"/>
      <point x="275" y="480"/>
      <point x="274" y="469"/>
      <point x="271" y="460" type="curve" smooth="yes"/>
      <point x="267" y="448"/>
      <point x="250" y="441"/>
      <point x="228" y="441" type="curve" smooth="yes"/>
      <point x="198" y="441"/>
      <point x="178" y="452"/>
      <point x="172" y="478" type="curve"/>
      <point x="157" y="456"/>
      <point x="133" y="440"/>
      <point x="104" y="440" type="curve" smooth="yes"/>
      <point x="56" y="440"/>
      <point x="24" y="478"/>
      <point x="24" y="548" type="curve" smooth="yes"/>
      <point x="24" y="643"/>
      <point x="69" y="707"/>
      <point x="134" y="707" type="curve" smooth="yes"/>
      <point x="162" y="707"/>
      <point x="183" y="691"/>
      <point x="194" y="681" type="curve"/>
      <point x="199" y="699"/>
      <point x="201" y="704"/>
      <point x="226" y="704" type="curve" smooth="yes"/>
      <point x="232" y="704" type="line" smooth="yes"/>
      <point x="252" y="704"/>
      <point x="261" y="700"/>
      <point x="261" y="692" type="curve" smooth="yes"/>
      <point x="261" y="690"/>
      <point x="242" y="523"/>
      <point x="242" y="514" type="curve" smooth="yes"/>
      <point x="242" y="503"/>
      <point x="247" y="499"/>
      <point x="257" y="499" type="curve" smooth="yes"/>
      <point x="264" y="499"/>
      <point x="270" y="502"/>
    </contour>
    <contour>
      <point x="132" y="500" type="curve" smooth="yes"/>
      <point x="148" y="500"/>
      <point x="161" y="513"/>
      <point x="171" y="529" type="curve"/>
      <point x="178" y="613"/>
      <point x="177" y="600"/>
      <point x="183" y="636" type="curve"/>
      <point x="175" y="643"/>
      <point x="165" y="649"/>
      <point x="151" y="649" type="curve" smooth="yes"/>
      <point x="118" y="649"/>
      <point x="98" y="615"/>
      <point x="98" y="552" type="curve" smooth="yes"/>
      <point x="98" y="518"/>
      <point x="109" y="500"/>
    </contour>
  </outline>
</glyph>
<glyph name="logicalnot" format="1">
  <advance width="560"/>
  <unicode hex="00AC"/>
  <outline>
    <contour>
      <point x="74" y="349" type="curve" smooth="yes"/>
      <point x="504" y="349" type="line" smooth="yes"/>
      <point x="533" y="349"/>
      <point x="540" y="336"/>
      <point x="540" y="309" type="curve" smooth="yes"/>
      <point x="518" y="104" type="line" smooth="yes"/>
      <point x="516" y="83"/>
      <point x="503" y="72"/>
      <point x="475" y="72" type="curve" smooth="yes"/>
      <point x="455" y="72" type="line" smooth="yes"/>
      <point x="425" y="72"/>
      <point x="418" y="83"/>
      <point x="418" y="104" type="curve" smooth="yes"/>
      <point x="433" y="242" type="line"/>
      <point x="63" y="242" type="line" smooth="yes"/>
      <point x="45" y="242"/>
      <point x="37" y="252"/>
      <point x="37" y="276" type="curve" smooth="yes"/>
      <point x="37" y="300"/>
      <point x="40" y="349"/>
    </contour>
  </outline>
</glyph>
<glyph name="softhyphen" format="1">
  <advance width="320"/>
  <unicode hex="00AD"/>
  <outline>
    <contour>
      <point x="63" y="319" type="curve" smooth="yes"/>
      <point x="267" y="319" type="line" smooth="yes"/>
      <point x="284" y="319"/>
      <point x="293" y="308"/>
      <point x="293" y="285" type="curve" smooth="yes"/>
      <point x="293" y="262"/>
      <point x="289" y="212"/>
      <point x="256" y="212" type="curve" smooth="yes"/>
      <point x="52" y="212" type="line" smooth="yes"/>
      <point x="34" y="212"/>
      <point x="26" y="222"/>
      <point x="26" y="246" type="curve" smooth="yes"/>
      <point x="26" y="270"/>
      <point x="29" y="319"/>
    </contour>
  </outline>
</glyph>
<glyph name="registered" format="1">
  <advance width="739"/>
  <unicode hex="00AE"/>
  <outline>
    <contour>
      <point x="368" y="708" type="curve" smooth="yes"/>
      <point x="566" y="708"/>
      <point x="726" y="548"/>
      <point x="726" y="350" type="curve" smooth="yes"/>
      <point x="726" y="152"/>
      <point x="566" y="-8"/>
      <point x="368" y="-8" type="curve" smooth="yes"/>
      <point x="170" y="-8"/>
      <point x="10" y="152"/>
      <point x="10" y="350" type="curve" smooth="yes"/>
      <point x="10" y="548"/>
      <point x="170" y="708"/>
    </contour>
    <contour>
      <point x="368" y="644" type="curve" smooth="yes"/>
      <point x="206" y="644"/>
      <point x="74" y="512"/>
      <point x="74" y="350" type="curve" smooth="yes"/>
      <point x="74" y="188"/>
      <point x="206" y="56"/>
      <point x="368" y="56" type="curve" smooth="yes"/>
      <point x="530" y="56"/>
      <point x="662" y="188"/>
      <point x="662" y="350" type="curve" smooth="yes"/>
      <point x="662" y="512"/>
      <point x="530" y="644"/>
    </contour>
    <contour>
      <point x="263" y="548" type="curve" smooth="yes"/>
      <point x="372" y="548" type="line" smooth="yes"/>
      <point x="469" y="548"/>
      <point x="511" y="510"/>
      <point x="511" y="443" type="curve" smooth="yes"/>
      <point x="511" y="400"/>
      <point x="483" y="369"/>
      <point x="445" y="354" type="curve"/>
      <point x="445" y="350" type="line"/>
      <point x="459" y="344"/>
      <point x="476" y="325"/>
      <point x="486" y="301" type="curve" smooth="yes"/>
      <point x="535" y="178" type="line" smooth="yes"/>
      <point x="537" y="173"/>
      <point x="538" y="170"/>
      <point x="538" y="167" type="curve" smooth="yes"/>
      <point x="538" y="160"/>
      <point x="527" y="156"/>
      <point x="505" y="156" type="curve" smooth="yes"/>
      <point x="482" y="156" type="line" smooth="yes"/>
      <point x="465" y="156"/>
      <point x="453" y="159"/>
      <point x="449" y="168" type="curve" smooth="yes"/>
      <point x="405" y="277" type="line" smooth="yes"/>
      <point x="394" y="299"/>
      <point x="385" y="310"/>
      <point x="349" y="310" type="curve" smooth="yes"/>
      <point x="327" y="310" type="line"/>
      <point x="327" y="174" type="line" smooth="yes"/>
      <point x="327" y="162"/>
      <point x="317" y="156"/>
      <point x="293" y="156" type="curve" smooth="yes"/>
      <point x="275" y="156" type="line" smooth="yes"/>
      <point x="251" y="156"/>
      <point x="241" y="162"/>
      <point x="241" y="174" type="curve" smooth="yes"/>
      <point x="241" y="526" type="line" smooth="yes"/>
      <point x="241" y="541"/>
      <point x="248" y="548"/>
    </contour>
    <contour>
      <point x="327" y="475" type="line"/>
      <point x="327" y="384" type="line"/>
      <point x="380" y="384" type="line" smooth="yes"/>
      <point x="403" y="384"/>
      <point x="423" y="406"/>
      <point x="423" y="432" type="curve" smooth="yes"/>
      <point x="423" y="458"/>
      <point x="405" y="475"/>
      <point x="376" y="475" type="curve" smooth="yes"/>
    </contour>
  </outline>
</glyph>
<glyph name="macron" format="1">
  <advance width="320"/>
  <unicode hex="00AF"/>
  <outline>
    <contour>
      <point x="170" y="700" type="move" name="Anchor-3"/>
    </contour>
    <contour>
      <point x="55" y="692" type="curve" smooth="yes"/>
      <point x="271" y="692" type="line" smooth="yes"/>
      <point x="288" y="692"/>
      <point x="297" y="682"/>
      <point x="297" y="662" type="curve" smooth="yes"/>
      <point x="297" y="641"/>
      <point x="293" y="597"/>
      <point x="260" y="597" type="curve" smooth="yes"/>
      <point x="44" y="597" type="line" smooth="yes"/>
      <point x="26" y="597"/>
      <point x="18" y="606"/>
      <point x="18" y="627" type="curve" smooth="yes"/>
      <point x="18" y="648"/>
      <point x="21" y="692"/>
    </contour>
  </outline>
</glyph>
<glyph name="degree" format="1">
  <advance width="345"/>
  <unicode hex="00B0"/>
  <outline>
    <contour>
      <point x="183" y="708" type="curve" smooth="yes"/>
      <point x="251" y="708"/>
      <point x="303" y="656"/>
      <point x="303" y="589" type="curve" smooth="yes"/>
      <point x="303" y="510"/>
      <point x="244" y="443"/>
      <point x="156" y="443" type="curve" smooth="yes"/>
      <point x="87" y="443"/>
      <point x="36" y="495"/>
      <point x="36" y="562" type="curve" smooth="yes"/>
      <point x="36" y="635"/>
      <point x="92" y="708"/>
    </contour>
    <contour>
      <point x="177" y="646" type="curve" smooth="yes"/>
      <point x="129" y="646"/>
      <point x="101" y="608"/>
      <point x="101" y="567" type="curve" smooth="yes"/>
      <point x="101" y="532"/>
      <point x="127" y="505"/>
      <point x="162" y="505" type="curve" smooth="yes"/>
      <point x="209" y="505"/>
      <point x="237" y="541"/>
      <point x="237" y="584" type="curve" smooth="yes"/>
      <point x="237" y="619"/>
      <point x="211" y="646"/>
    </contour>
  </outline>
</glyph>
<glyph name="plusminus" format="1">
  <advance width="560"/>
  <unicode hex="00B1"/>
  <outline>
    <contour>
      <point x="303" y="604" type="curve" smooth="yes"/>
      <point x="317" y="604" type="line" smooth="yes"/>
      <point x="354" y="604"/>
      <point x="364" y="595"/>
      <point x="364" y="574" type="curve" smooth="yes"/>
      <point x="348" y="420" type="line"/>
      <point x="501" y="420" type="line" smooth="yes"/>
      <point x="519" y="420"/>
      <point x="527" y="409"/>
      <point x="527" y="384" type="curve" smooth="yes"/>
      <point x="527" y="359"/>
      <point x="526" y="313"/>
      <point x="490" y="313" type="curve" smooth="yes"/>
      <point x="337" y="313" type="line"/>
      <point x="321" y="161" type="line" smooth="yes"/>
      <point x="319" y="140"/>
      <point x="303" y="131"/>
      <point x="268" y="131" type="curve" smooth="yes"/>
      <point x="254" y="131" type="line" smooth="yes"/>
      <point x="217" y="131"/>
      <point x="207" y="140"/>
      <point x="207" y="161" type="curve" smooth="yes"/>
      <point x="223" y="313" type="line"/>
      <point x="72" y="313" type="line" smooth="yes"/>
      <point x="54" y="313"/>
      <point x="46" y="323"/>
      <point x="46" y="347" type="curve" smooth="yes"/>
      <point x="46" y="371"/>
      <point x="49" y="420"/>
      <point x="83" y="420" type="curve" smooth="yes"/>
      <point x="234" y="420" type="line"/>
      <point x="250" y="574" type="line" smooth="yes"/>
      <point x="252" y="595"/>
      <point x="268" y="604"/>
    </contour>
    <contour>
      <point x="51" y="107" type="curve" smooth="yes"/>
      <point x="468" y="107" type="line" smooth="yes"/>
      <point x="485" y="107"/>
      <point x="494" y="96"/>
      <point x="494" y="73" type="curve" smooth="yes"/>
      <point x="494" y="50"/>
      <point x="490" y="0"/>
      <point x="457" y="0" type="curve" smooth="yes"/>
      <point x="40" y="0" type="line" smooth="yes"/>
      <point x="22" y="0"/>
      <point x="14" y="10"/>
      <point x="14" y="34" type="curve" smooth="yes"/>
      <point x="14" y="58"/>
      <point x="17" y="107"/>
    </contour>
  </outline>
</glyph>
<glyph name="twosuperior" format="1">
  <advance width="320"/>
  <unicode hex="00B2"/>
  <outline>
    <contour>
      <point x="175" y="708" type="curve" smooth="yes"/>
      <point x="250" y="708"/>
      <point x="295" y="662"/>
      <point x="295" y="608" type="curve" smooth="yes"/>
      <point x="295" y="568"/>
      <point x="281" y="539"/>
      <point x="234" y="484" type="curve" smooth="yes"/>
      <point x="121" y="362" type="line"/>
      <point x="260" y="362" type="line" smooth="yes"/>
      <point x="271" y="362"/>
      <point x="276" y="356"/>
      <point x="276" y="341" type="curve" smooth="yes"/>
      <point x="276" y="314"/>
      <point x="270" y="294"/>
      <point x="253" y="294" type="curve" smooth="yes"/>
      <point x="26" y="294" type="line" smooth="yes"/>
      <point x="18" y="294"/>
      <point x="10" y="326"/>
      <point x="10" y="344" type="curve" smooth="yes"/>
      <point x="10" y="348"/>
      <point x="11" y="352"/>
      <point x="12" y="354" type="curve" smooth="yes"/>
      <point x="179" y="536" type="line" smooth="yes"/>
      <point x="194" y="552"/>
      <point x="207" y="576"/>
      <point x="207" y="597" type="curve" smooth="yes"/>
      <point x="207" y="625"/>
      <point x="187" y="639"/>
      <point x="157" y="639" type="curve" smooth="yes"/>
      <point x="116" y="639"/>
      <point x="97" y="614"/>
      <point x="87" y="614" type="curve" smooth="yes"/>
      <point x="70" y="614"/>
      <point x="57" y="636"/>
      <point x="57" y="651" type="curve" smooth="yes"/>
      <point x="57" y="691"/>
      <point x="129" y="708"/>
    </contour>
  </outline>
</glyph>
<glyph name="threesuperior" format="1">
  <advance width="320"/>
  <unicode hex="00B3"/>
  <outline>
    <contour>
      <point x="169" y="708" type="curve" smooth="yes"/>
      <point x="237" y="708"/>
      <point x="279" y="674"/>
      <point x="279" y="618" type="curve" smooth="yes"/>
      <point x="279" y="572"/>
      <point x="252" y="536"/>
      <point x="214" y="521" type="curve"/>
      <point x="214" y="516" type="line"/>
      <point x="254" y="501"/>
      <point x="272" y="470"/>
      <point x="272" y="429" type="curve" smooth="yes"/>
      <point x="272" y="342"/>
      <point x="208" y="290"/>
      <point x="126" y="290" type="curve" smooth="yes"/>
      <point x="96" y="290"/>
      <point x="24" y="293"/>
      <point x="24" y="326" type="curve" smooth="yes"/>
      <point x="24" y="369"/>
      <point x="32" y="381"/>
      <point x="38" y="381" type="curve" smooth="yes"/>
      <point x="46" y="381"/>
      <point x="70" y="358"/>
      <point x="120" y="358" type="curve" smooth="yes"/>
      <point x="158" y="358"/>
      <point x="184" y="383"/>
      <point x="184" y="425" type="curve" smooth="yes"/>
      <point x="184" y="457"/>
      <point x="166" y="475"/>
      <point x="121" y="475" type="curve" smooth="yes"/>
      <point x="104" y="475" type="line" smooth="yes"/>
      <point x="94" y="475"/>
      <point x="89" y="481"/>
      <point x="89" y="496" type="curve" smooth="yes"/>
      <point x="89" y="523"/>
      <point x="94" y="543"/>
      <point x="112" y="543" type="curve" smooth="yes"/>
      <point x="123" y="543" type="line" smooth="yes"/>
      <point x="165" y="543"/>
      <point x="189" y="566"/>
      <point x="189" y="600" type="curve" smooth="yes"/>
      <point x="189" y="624"/>
      <point x="175" y="639"/>
      <point x="147" y="639" type="curve" smooth="yes"/>
      <point x="102" y="639"/>
      <point x="86" y="621"/>
      <point x="75" y="621" type="curve" smooth="yes"/>
      <point x="64" y="621"/>
      <point x="51" y="648"/>
      <point x="51" y="664" type="curve" smooth="yes"/>
      <point x="51" y="694"/>
      <point x="110" y="708"/>
    </contour>
  </outline>
</glyph>
<glyph name="acute" format="1">
  <advance width="320"/>
  <unicode hex="00B4"/>
  <outline>
    <contour>
      <point x="140" y="700" type="move" name="Anchor-3"/>
    </contour>
    <contour>
      <point x="212" y="734" type="curve" smooth="yes"/>
      <point x="250" y="734"/>
      <point x="270" y="731"/>
      <point x="270" y="721" type="curve" smooth="yes"/>
      <point x="270" y="708"/>
      <point x="266" y="710"/>
      <point x="154" y="600" type="curve" smooth="yes"/>
      <point x="142" y="588"/>
      <point x="123" y="575"/>
      <point x="76" y="575" type="curve" smooth="yes"/>
      <point x="54" y="575"/>
      <point x="47" y="578"/>
      <point x="47" y="588" type="curve" smooth="yes"/>
      <point x="47" y="599"/>
      <point x="66" y="619"/>
      <point x="124" y="707" type="curve" smooth="yes"/>
      <point x="138" y="728"/>
      <point x="172" y="734"/>
    </contour>
  </outline>
</glyph>
<glyph name="cedilla" format="1">
  <advance width="320"/>
  <unicode hex="00B8"/>
  <outline>
    <contour>
      <point x="146" y="-203" type="move" name="Anchor-2"/>
    </contour>
    <contour>
      <point x="225" y="10" type="line"/>
      <point x="207" y="-35" type="line"/>
      <point x="239" y="-41"/>
      <point x="277" y="-63"/>
      <point x="277" y="-110" type="curve" smooth="yes"/>
      <point x="277" y="-177"/>
      <point x="228" y="-212"/>
      <point x="148" y="-212" type="curve" smooth="yes"/>
      <point x="119" y="-212"/>
      <point x="45" y="-207"/>
      <point x="45" y="-160" type="curve" smooth="yes"/>
      <point x="45" y="-120"/>
      <point x="53" y="-112"/>
      <point x="59" y="-112" type="curve" smooth="yes"/>
      <point x="71" y="-112"/>
      <point x="102" y="-139"/>
      <point x="148" y="-139" type="curve" smooth="yes"/>
      <point x="166" y="-139"/>
      <point x="172" y="-133"/>
      <point x="173" y="-122" type="curve" smooth="yes"/>
      <point x="172" y="-98"/>
      <point x="125" y="-98"/>
      <point x="125" y="-74" type="curve" smooth="yes"/>
      <point x="125" y="-70"/>
      <point x="126" y="-64"/>
      <point x="159" y="10" type="curve"/>
    </contour>
  </outline>
</glyph>
<glyph name="onesuperior" format="1">
  <advance width="217"/>
  <unicode hex="00B9"/>
  <outline>
    <contour>
      <point x="36" y="678" type="curve" smooth="yes"/>
      <point x="184" y="704" type="line" smooth="yes"/>
      <point x="193" y="704"/>
      <point x="206" y="697"/>
      <point x="206" y="690" type="curve" smooth="yes"/>
      <point x="166" y="312" type="line" smooth="yes"/>
      <point x="165" y="300"/>
      <point x="153" y="293"/>
      <point x="129" y="293" type="curve" smooth="yes"/>
      <point x="113" y="293" type="line" smooth="yes"/>
      <point x="88" y="293"/>
      <point x="80" y="300"/>
      <point x="80" y="312" type="curve" smooth="yes"/>
      <point x="113" y="624" type="line"/>
      <point x="33" y="611" type="line" smooth="yes"/>
      <point x="21" y="611"/>
      <point x="18" y="631"/>
      <point x="18" y="647" type="curve" smooth="yes"/>
      <point x="18" y="664"/>
      <point x="20" y="675"/>
    </contour>
  </outline>
</glyph>
<glyph name="onequarter" format="1">
  <advance width="671"/>
  <unicode hex="00BC"/>
  <outline>
    <contour>
      <point x="64" y="678" type="curve" smooth="yes"/>
      <point x="212" y="704" type="line" smooth="yes"/>
      <point x="221" y="704"/>
      <point x="234" y="697"/>
      <point x="234" y="690" type="curve" smooth="yes"/>
      <point x="194" y="312" type="line" smooth="yes"/>
      <point x="193" y="300"/>
      <point x="181" y="293"/>
      <point x="157" y="293" type="curve" smooth="yes"/>
      <point x="141" y="293" type="line" smooth="yes"/>
      <point x="116" y="293"/>
      <point x="108" y="300"/>
      <point x="108" y="312" type="curve" smooth="yes"/>
      <point x="141" y="624" type="line"/>
      <point x="61" y="611" type="line" smooth="yes"/>
      <point x="49" y="611"/>
      <point x="46" y="631"/>
      <point x="46" y="647" type="curve" smooth="yes"/>
      <point x="46" y="664"/>
      <point x="48" y="675"/>
    </contour>
    <contour>
      <point x="558" y="700" type="curve" smooth="yes"/>
      <point x="575" y="700" type="line" smooth="yes"/>
      <point x="588" y="700"/>
      <point x="595" y="696"/>
      <point x="595" y="690" type="curve" smooth="yes"/>
      <point x="595" y="686"/>
      <point x="592" y="680"/>
      <point x="587" y="674" type="curve" smooth="yes"/>
      <point x="160" y="26" type="line" smooth="yes"/>
      <point x="147" y="7"/>
      <point x="133" y="0"/>
      <point x="113" y="0" type="curve" smooth="yes"/>
      <point x="96" y="0" type="line" smooth="yes"/>
      <point x="83" y="0"/>
      <point x="76" y="2"/>
      <point x="76" y="9" type="curve" smooth="yes"/>
      <point x="76" y="14"/>
      <point x="78" y="19"/>
      <point x="83" y="26" type="curve" smooth="yes"/>
      <point x="510" y="674" type="line" smooth="yes"/>
      <point x="522" y="692"/>
      <point x="538" y="700"/>
    </contour>
    <contour>
      <point x="564" y="410" type="curve" smooth="yes"/>
      <point x="580" y="410" type="line" smooth="yes"/>
      <point x="605" y="410"/>
      <point x="613" y="403"/>
      <point x="613" y="391" type="curve" smooth="yes"/>
      <point x="588" y="151" type="line"/>
      <point x="611" y="151" type="line" smooth="yes"/>
      <point x="622" y="151"/>
      <point x="626" y="144"/>
      <point x="626" y="130" type="curve" smooth="yes"/>
      <point x="626" y="103"/>
      <point x="621" y="82"/>
      <point x="604" y="82" type="curve" smooth="yes"/>
      <point x="581" y="82" type="line"/>
      <point x="574" y="17" type="line" smooth="yes"/>
      <point x="573" y="5"/>
      <point x="562" y="-2"/>
      <point x="537" y="-2" type="curve" smooth="yes"/>
      <point x="521" y="-2" type="line" smooth="yes"/>
      <point x="496" y="-2"/>
      <point x="488" y="5"/>
      <point x="488" y="17" type="curve" smooth="yes"/>
      <point x="495" y="82" type="line"/>
      <point x="341" y="82" type="line" smooth="yes"/>
      <point x="332" y="82"/>
      <point x="326" y="116"/>
      <point x="326" y="133" type="curve" smooth="yes"/>
      <point x="326" y="137"/>
      <point x="326" y="142"/>
      <point x="327" y="143" type="curve" smooth="yes"/>
      <point x="527" y="399" type="line" smooth="yes"/>
      <point x="535" y="409"/>
      <point x="547" y="410"/>
    </contour>
    <contour>
      <point x="519" y="291" type="line"/>
      <point x="414" y="151" type="line"/>
      <point x="502" y="151" type="line"/>
      <point x="511" y="236" type="line"/>
      <point x="523" y="291" type="line"/>
    </contour>
  </outline>
</glyph>
<glyph name="onehalf" format="1">
  <advance width="746"/>
  <unicode hex="00BD"/>
  <outline>
    <contour>
      <point x="64" y="678" type="curve" smooth="yes"/>
      <point x="212" y="704" type="line" smooth="yes"/>
      <point x="221" y="704"/>
      <point x="234" y="697"/>
      <point x="234" y="690" type="curve" smooth="yes"/>
      <point x="194" y="312" type="line" smooth="yes"/>
      <point x="193" y="300"/>
      <point x="181" y="293"/>
      <point x="157" y="293" type="curve" smooth="yes"/>
      <point x="141" y="293" type="line" smooth="yes"/>
      <point x="116" y="293"/>
      <point x="108" y="300"/>
      <point x="108" y="312" type="curve" smooth="yes"/>
      <point x="141" y="624" type="line"/>
      <point x="61" y="611" type="line" smooth="yes"/>
      <point x="49" y="611"/>
      <point x="46" y="631"/>
      <point x="46" y="647" type="curve" smooth="yes"/>
      <point x="46" y="664"/>
      <point x="48" y="675"/>
    </contour>
    <contour>
      <point x="558" y="700" type="curve" smooth="yes"/>
      <point x="575" y="700" type="line" smooth="yes"/>
      <point x="588" y="700"/>
      <point x="595" y="696"/>
      <point x="595" y="690" type="curve" smooth="yes"/>
      <point x="595" y="686"/>
      <point x="592" y="680"/>
      <point x="587" y="674" type="curve" smooth="yes"/>
      <point x="160" y="26" type="line" smooth="yes"/>
      <point x="147" y="7"/>
      <point x="133" y="0"/>
      <point x="113" y="0" type="curve" smooth="yes"/>
      <point x="96" y="0" type="line" smooth="yes"/>
      <point x="83" y="0"/>
      <point x="76" y="2"/>
      <point x="76" y="9" type="curve" smooth="yes"/>
      <point x="76" y="14"/>
      <point x="78" y="19"/>
      <point x="83" y="26" type="curve" smooth="yes"/>
      <point x="510" y="674" type="line" smooth="yes"/>
      <point x="522" y="692"/>
      <point x="538" y="700"/>
    </contour>
    <contour>
      <point x="569" y="414" type="curve" smooth="yes"/>
      <point x="644" y="414"/>
      <point x="689" y="368"/>
      <point x="689" y="314" type="curve" smooth="yes"/>
      <point x="689" y="271"/>
      <point x="672" y="240"/>
      <point x="614" y="175" type="curve" smooth="yes"/>
      <point x="515" y="68" type="line"/>
      <point x="654" y="68" type="line" smooth="yes"/>
      <point x="665" y="68"/>
      <point x="670" y="62"/>
      <point x="670" y="47" type="curve" smooth="yes"/>
      <point x="670" y="20"/>
      <point x="664" y="0"/>
      <point x="647" y="0" type="curve" smooth="yes"/>
      <point x="420" y="0" type="line" smooth="yes"/>
      <point x="412" y="0"/>
      <point x="404" y="32"/>
      <point x="404" y="50" type="curve" smooth="yes"/>
      <point x="404" y="54"/>
      <point x="405" y="58"/>
      <point x="406" y="60" type="curve" smooth="yes"/>
      <point x="573" y="242" type="line" smooth="yes"/>
      <point x="588" y="258"/>
      <point x="601" y="282"/>
      <point x="601" y="303" type="curve" smooth="yes"/>
      <point x="601" y="331"/>
      <point x="581" y="345"/>
      <point x="551" y="345" type="curve" smooth="yes"/>
      <point x="510" y="345"/>
      <point x="491" y="320"/>
      <point x="481" y="320" type="curve" smooth="yes"/>
      <point x="464" y="320"/>
      <point x="451" y="342"/>
      <point x="451" y="357" type="curve" smooth="yes"/>
      <point x="451" y="397"/>
      <point x="523" y="414"/>
    </contour>
  </outline>
</glyph>
<glyph name="threequarters" format="1">
  <advance width="738"/>
  <unicode hex="00BE"/>
  <outline>
    <contour>
      <point x="190" y="708" type="curve" smooth="yes"/>
      <point x="258" y="708"/>
      <point x="300" y="674"/>
      <point x="300" y="618" type="curve" smooth="yes"/>
      <point x="300" y="572"/>
      <point x="273" y="536"/>
      <point x="235" y="521" type="curve"/>
      <point x="235" y="516" type="line"/>
      <point x="275" y="501"/>
      <point x="293" y="470"/>
      <point x="293" y="429" type="curve" smooth="yes"/>
      <point x="293" y="342"/>
      <point x="229" y="290"/>
      <point x="147" y="290" type="curve" smooth="yes"/>
      <point x="117" y="290"/>
      <point x="45" y="293"/>
      <point x="45" y="326" type="curve" smooth="yes"/>
      <point x="45" y="369"/>
      <point x="53" y="381"/>
      <point x="59" y="381" type="curve" smooth="yes"/>
      <point x="67" y="381"/>
      <point x="91" y="358"/>
      <point x="141" y="358" type="curve" smooth="yes"/>
      <point x="179" y="358"/>
      <point x="205" y="383"/>
      <point x="205" y="425" type="curve" smooth="yes"/>
      <point x="205" y="457"/>
      <point x="187" y="475"/>
      <point x="142" y="475" type="curve" smooth="yes"/>
      <point x="125" y="475" type="line" smooth="yes"/>
      <point x="115" y="475"/>
      <point x="110" y="481"/>
      <point x="110" y="496" type="curve" smooth="yes"/>
      <point x="110" y="523"/>
      <point x="115" y="543"/>
      <point x="133" y="543" type="curve" smooth="yes"/>
      <point x="144" y="543" type="line" smooth="yes"/>
      <point x="186" y="543"/>
      <point x="210" y="566"/>
      <point x="210" y="600" type="curve" smooth="yes"/>
      <point x="210" y="624"/>
      <point x="196" y="639"/>
      <point x="168" y="639" type="curve" smooth="yes"/>
      <point x="123" y="639"/>
      <point x="107" y="621"/>
      <point x="96" y="621" type="curve" smooth="yes"/>
      <point x="85" y="621"/>
      <point x="72" y="648"/>
      <point x="72" y="664" type="curve" smooth="yes"/>
      <point x="72" y="694"/>
      <point x="131" y="708"/>
    </contour>
    <contour>
      <point x="598" y="700" type="curve" smooth="yes"/>
      <point x="615" y="700" type="line" smooth="yes"/>
      <point x="628" y="700"/>
      <point x="635" y="696"/>
      <point x="635" y="690" type="curve" smooth="yes"/>
      <point x="635" y="686"/>
      <point x="632" y="680"/>
      <point x="627" y="674" type="curve" smooth="yes"/>
      <point x="200" y="26" type="line" smooth="yes"/>
      <point x="187" y="7"/>
      <point x="173" y="0"/>
      <point x="153" y="0" type="curve" smooth="yes"/>
      <point x="136" y="0" type="line" smooth="yes"/>
      <point x="123" y="0"/>
      <point x="116" y="2"/>
      <point x="116" y="9" type="curve" smooth="yes"/>
      <point x="116" y="14"/>
      <point x="118" y="19"/>
      <point x="123" y="26" type="curve" smooth="yes"/>
      <point x="550" y="674" type="line" smooth="yes"/>
      <point x="562" y="692"/>
      <point x="578" y="700"/>
    </contour>
    <contour>
      <point x="604" y="410" type="curve" smooth="yes"/>
      <point x="620" y="410" type="line" smooth="yes"/>
      <point x="645" y="410"/>
      <point x="653" y="403"/>
      <point x="653" y="391" type="curve" smooth="yes"/>
      <point x="628" y="151" type="line"/>
      <point x="651" y="151" type="line" smooth="yes"/>
      <point x="662" y="151"/>
      <point x="666" y="144"/>
      <point x="666" y="130" type="curve" smooth="yes"/>
      <point x="666" y="103"/>
      <point x="661" y="82"/>
      <point x="644" y="82" type="curve" smooth="yes"/>
      <point x="621" y="82" type="line"/>
      <point x="614" y="17" type="line" smooth="yes"/>
      <point x="613" y="5"/>
      <point x="602" y="-2"/>
      <point x="577" y="-2" type="curve" smooth="yes"/>
      <point x="561" y="-2" type="line" smooth="yes"/>
      <point x="536" y="-2"/>
      <point x="528" y="5"/>
      <point x="528" y="17" type="curve" smooth="yes"/>
      <point x="535" y="82" type="line"/>
      <point x="381" y="82" type="line" smooth="yes"/>
      <point x="372" y="82"/>
      <point x="366" y="116"/>
      <point x="366" y="133" type="curve" smooth="yes"/>
      <point x="366" y="137"/>
      <point x="366" y="142"/>
      <point x="367" y="143" type="curve" smooth="yes"/>
      <point x="567" y="399" type="line" smooth="yes"/>
      <point x="575" y="409"/>
      <point x="587" y="410"/>
    </contour>
    <contour>
      <point x="559" y="291" type="line"/>
      <point x="454" y="151" type="line"/>
      <point x="542" y="151" type="line"/>
      <point x="551" y="236" type="line"/>
      <point x="563" y="291" type="line"/>
    </contour>
  </outline>
</glyph>
<glyph name="Atilde" format="1">
  <advance width="613"/>
  <unicode hex="00C3"/>
  <outline>
    <contour>
      <point x="369" y="877" type="move" name="Anchor-1"/>
    </contour>
    <contour>
      <point x="301" y="0" type="move" name="Anchor-0"/>
    </contour>
    <contour>
      <point x="476" y="859" type="curve" smooth="yes"/>
      <point x="489" y="867"/>
      <point x="507" y="868"/>
      <point x="520" y="851" type="curve" smooth="yes"/>
      <point x="532" y="835"/>
      <point x="533" y="824"/>
      <point x="512" y="799" type="curve" smooth="yes"/>
      <point x="487" y="774"/>
      <point x="447" y="758"/>
      <point x="406" y="758" type="curve" smooth="yes"/>
      <point x="375" y="758"/>
      <point x="355" y="763"/>
      <point x="335" y="770" type="curve" smooth="yes"/>
      <point x="317" y="776"/>
      <point x="302" y="784"/>
      <point x="283" y="784" type="curve" smooth="yes"/>
      <point x="261" y="784"/>
      <point x="247" y="777"/>
      <point x="233" y="770" type="curve" smooth="yes"/>
      <point x="219" y="762"/>
      <point x="205" y="768"/>
      <point x="195" y="783" type="curve" smooth="yes"/>
      <point x="184" y="799"/>
      <point x="183" y="816"/>
      <point x="196" y="829" type="curve" smooth="yes"/>
      <point x="225" y="852"/>
      <point x="258" y="870"/>
      <point x="299" y="870" type="curve" smooth="yes"/>
      <point x="329" y="870"/>
      <point x="347" y="865"/>
      <point x="368" y="857" type="curve" smooth="yes"/>
      <point x="386" y="850"/>
      <point x="403" y="844"/>
      <point x="422" y="844" type="curve" smooth="yes"/>
      <point x="444" y="844"/>
      <point x="459" y="849"/>
    </contour>
    <contour>
      <point x="319" y="702" type="curve" smooth="yes"/>
      <point x="371" y="702" type="line" smooth="yes"/>
      <point x="400" y="702"/>
      <point x="422" y="697"/>
      <point x="426" y="681" type="curve" smooth="yes"/>
      <point x="584" y="38" type="line" smooth="yes"/>
      <point x="585" y="35"/>
      <point x="587" y="24"/>
      <point x="587" y="21" type="curve" smooth="yes"/>
      <point x="587" y="7"/>
      <point x="568" y="-2"/>
      <point x="533" y="-2" type="curve" smooth="yes"/>
      <point x="489" y="-2" type="line" smooth="yes"/>
      <point x="459" y="-2"/>
      <point x="439" y="3"/>
      <point x="435" y="19" type="curve" smooth="yes"/>
      <point x="406" y="141" type="line"/>
      <point x="164" y="141" type="line"/>
      <point x="109" y="19" type="line" smooth="yes"/>
      <point x="102" y="4"/>
      <point x="85" y="-2"/>
      <point x="61" y="-2" type="curve" smooth="yes"/>
      <point x="21" y="-2" type="line" smooth="yes"/>
      <point x="-18" y="-2"/>
      <point x="-37" y="5"/>
      <point x="-37" y="18" type="curve" smooth="yes"/>
      <point x="-37" y="24"/>
      <point x="-35" y="30"/>
      <point x="-31" y="38" type="curve" smooth="yes"/>
      <point x="260" y="681" type="line" smooth="yes"/>
      <point x="267" y="697"/>
      <point x="290" y="702"/>
    </contour>
    <contour>
      <point x="327" y="515" type="curve"/>
      <point x="323" y="515" type="line"/>
      <point x="317" y="494"/>
      <point x="310" y="471"/>
      <point x="301" y="451" type="curve" smooth="yes"/>
      <point x="221" y="273" type="line"/>
      <point x="375" y="273" type="line"/>
      <point x="335" y="451" type="line" smooth="yes"/>
      <point x="330" y="472"/>
      <point x="328" y="494"/>
    </contour>
  </outline>
</glyph>
<glyph name="Adieresis" format="1">
  <advance width="613"/>
  <unicode hex="00C4"/>
  <outline>
    <contour>
      <point x="368" y="877" type="move" name="Anchor-1"/>
    </contour>
    <contour>
      <point x="301" y="0" type="move" name="Anchor-0"/>
    </contour>
    <contour>
      <point x="275" y="879" type="curve" smooth="yes"/>
      <point x="318" y="879"/>
      <point x="332" y="868"/>
      <point x="332" y="847" type="curve" smooth="yes"/>
      <point x="325" y="787" type="line" smooth="yes"/>
      <point x="322" y="766"/>
      <point x="302" y="755"/>
      <point x="262" y="755" type="curve" smooth="yes"/>
      <point x="219" y="755"/>
      <point x="205" y="766"/>
      <point x="205" y="787" type="curve" smooth="yes"/>
      <point x="212" y="847" type="line" smooth="yes"/>
      <point x="214" y="868"/>
      <point x="233" y="879"/>
    </contour>
    <contour>
      <point x="455" y="879" type="curve" smooth="yes"/>
      <point x="498" y="879"/>
      <point x="512" y="868"/>
      <point x="512" y="847" type="curve" smooth="yes"/>
      <point x="505" y="787" type="line" smooth="yes"/>
      <point x="502" y="766"/>
      <point x="482" y="755"/>
      <point x="442" y="755" type="curve" smooth="yes"/>
      <point x="399" y="755"/>
      <point x="385" y="766"/>
      <point x="385" y="787" type="curve" smooth="yes"/>
      <point x="392" y="847" type="line" smooth="yes"/>
      <point x="394" y="868"/>
      <point x="413" y="879"/>
    </contour>
    <contour>
      <point x="319" y="702" type="curve" smooth="yes"/>
      <point x="371" y="702" type="line" smooth="yes"/>
      <point x="400" y="702"/>
      <point x="422" y="697"/>
      <point x="426" y="681" type="curve" smooth="yes"/>
      <point x="584" y="38" type="line" smooth="yes"/>
      <point x="585" y="35"/>
      <point x="587" y="24"/>
      <point x="587" y="21" type="curve" smooth="yes"/>
      <point x="587" y="7"/>
      <point x="568" y="-2"/>
      <point x="533" y="-2" type="curve" smooth="yes"/>
      <point x="489" y="-2" type="line" smooth="yes"/>
      <point x="459" y="-2"/>
      <point x="439" y="3"/>
      <point x="435" y="19" type="curve" smooth="yes"/>
      <point x="406" y="141" type="line"/>
      <point x="164" y="141" type="line"/>
      <point x="109" y="19" type="line" smooth="yes"/>
      <point x="102" y="4"/>
      <point x="85" y="-2"/>
      <point x="61" y="-2" type="curve" smooth="yes"/>
      <point x="21" y="-2" type="line" smooth="yes"/>
      <point x="-18" y="-2"/>
      <point x="-37" y="5"/>
      <point x="-37" y="18" type="curve" smooth="yes"/>
      <point x="-37" y="24"/>
      <point x="-35" y="30"/>
      <point x="-31" y="38" type="curve" smooth="yes"/>
      <point x="260" y="681" type="line" smooth="yes"/>
      <point x="267" y="697"/>
      <point x="290" y="702"/>
    </contour>
    <contour>
      <point x="327" y="515" type="curve"/>
      <point x="323" y="515" type="line"/>
      <point x="317" y="494"/>
      <point x="310" y="471"/>
      <point x="301" y="451" type="curve" smooth="yes"/>
      <point x="221" y="273" type="line"/>
      <point x="375" y="273" type="line"/>
      <point x="335" y="451" type="line" smooth="yes"/>
      <point x="330" y="472"/>
      <point x="328" y="494"/>
    </contour>
  </outline>
</glyph>
<glyph name="Aring" format="1">
  <advance width="613"/>
  <unicode hex="00C5"/>
  <outline>
    <contour>
      <point x="369" y="877" type="move" name="Anchor-1"/>
    </contour>
    <contour>
      <point x="301" y="0" type="move" name="Anchor-0"/>
    </contour>
    <contour>
      <point x="369" y="926" type="curve" smooth="yes"/>
      <point x="421" y="926"/>
      <point x="458" y="888"/>
      <point x="458" y="837" type="curve" smooth="yes"/>
      <point x="458" y="776"/>
      <point x="418" y="727"/>
      <point x="348" y="727" type="curve" smooth="yes"/>
      <point x="295" y="727"/>
      <point x="258" y="765"/>
      <point x="258" y="816" type="curve" smooth="yes"/>
      <point x="258" y="877"/>
      <point x="301" y="926"/>
    </contour>
    <contour>
      <point x="362" y="862" type="curve" smooth="yes"/>
      <point x="341" y="862"/>
      <point x="322" y="843"/>
      <point x="322" y="821" type="curve" smooth="yes"/>
      <point x="322" y="803"/>
      <point x="336" y="789"/>
      <point x="355" y="789" type="curve" smooth="yes"/>
      <point x="376" y="789"/>
      <point x="395" y="807"/>
      <point x="395" y="828" type="curve" smooth="yes"/>
      <point x="395" y="847"/>
      <point x="381" y="862"/>
    </contour>
    <contour>
      <point x="319" y="702" type="curve" smooth="yes"/>
      <point x="371" y="702" type="line" smooth="yes"/>
      <point x="400" y="702"/>
      <point x="422" y="697"/>
      <point x="426" y="681" type="curve" smooth="yes"/>
      <point x="584" y="38" type="line" smooth="yes"/>
      <point x="585" y="35"/>
      <point x="587" y="24"/>
      <point x="587" y="21" type="curve" smooth="yes"/>
      <point x="587" y="7"/>
      <point x="568" y="-2"/>
      <point x="533" y="-2" type="curve" smooth="yes"/>
      <point x="489" y="-2" type="line" smooth="yes"/>
      <point x="459" y="-2"/>
      <point x="439" y="3"/>
      <point x="435" y="19" type="curve" smooth="yes"/>
      <point x="406" y="141" type="line"/>
      <point x="164" y="141" type="line"/>
      <point x="109" y="19" type="line" smooth="yes"/>
      <point x="102" y="4"/>
      <point x="85" y="-2"/>
      <point x="61" y="-2" type="curve" smooth="yes"/>
      <point x="21" y="-2" type="line" smooth="yes"/>
      <point x="-18" y="-2"/>
      <point x="-37" y="5"/>
      <point x="-37" y="18" type="curve" smooth="yes"/>
      <point x="-37" y="24"/>
      <point x="-35" y="30"/>
      <point x="-31" y="38" type="curve" smooth="yes"/>
      <point x="260" y="681" type="line" smooth="yes"/>
      <point x="267" y="697"/>
      <point x="290" y="702"/>
    </contour>
    <contour>
      <point x="327" y="515" type="curve"/>
      <point x="323" y="515" type="line"/>
      <point x="317" y="494"/>
      <point x="310" y="471"/>
      <point x="301" y="451" type="curve" smooth="yes"/>
      <point x="221" y="273" type="line"/>
      <point x="375" y="273" type="line"/>
      <point x="335" y="451" type="line" smooth="yes"/>
      <point x="330" y="472"/>
      <point x="328" y="494"/>
    </contour>
  </outline>
</glyph>
<glyph name="AE" format="1">
  <advance width="915"/>
  <unicode hex="00C6"/>
  <outline>
    <contour>
      <point x="458" y="700" type="move" name="Anchor-1"/>
    </contour>
    <contour>
      <point x="0" y="0" type="move" name="Anchor-0"/>
    </contour>
    <contour>
      <point x="406" y="700" type="curve" smooth="yes"/>
      <point x="872" y="700" type="line" smooth="yes"/>
      <point x="890" y="700"/>
      <point x="898" y="688"/>
      <point x="898" y="660" type="curve" smooth="yes"/>
      <point x="898" y="608"/>
      <point x="889" y="569"/>
      <point x="860" y="569" type="curve" smooth="yes"/>
      <point x="540" y="569" type="line"/>
      <point x="552" y="424" type="line"/>
      <point x="816" y="424" type="line" smooth="yes"/>
      <point x="834" y="424"/>
      <point x="842" y="412"/>
      <point x="842" y="384" type="curve" smooth="yes"/>
      <point x="842" y="332"/>
      <point x="833" y="293"/>
      <point x="804" y="293" type="curve" smooth="yes"/>
      <point x="565" y="293" type="line"/>
      <point x="579" y="131" type="line"/>
      <point x="813" y="131" type="line" smooth="yes"/>
      <point x="831" y="131"/>
      <point x="839" y="119"/>
      <point x="839" y="91" type="curve" smooth="yes"/>
      <point x="839" y="39"/>
      <point x="830" y="0"/>
      <point x="801" y="0" type="curve" smooth="yes"/>
      <point x="467" y="0" type="line" smooth="yes"/>
      <point x="445" y="0"/>
      <point x="437" y="9"/>
      <point x="435" y="30" type="curve" smooth="yes"/>
      <point x="426" y="141" type="line"/>
      <point x="183" y="141" type="line"/>
      <point x="110" y="19" type="line" smooth="yes"/>
      <point x="101" y="5"/>
      <point x="86" y="-2"/>
      <point x="62" y="-2" type="curve" smooth="yes"/>
      <point x="25" y="-2" type="line" smooth="yes"/>
      <point x="1" y="-2"/>
      <point x="-35" y="0"/>
      <point x="-35" y="20" type="curve" smooth="yes"/>
      <point x="-35" y="25"/>
      <point x="-32" y="31"/>
      <point x="-27" y="38" type="curve" smooth="yes"/>
      <point x="360" y="673" type="line" smooth="yes"/>
      <point x="372" y="692"/>
      <point x="385" y="700"/>
    </contour>
    <contour>
      <point x="406" y="537" type="line"/>
      <point x="370" y="455" type="line"/>
      <point x="262" y="273" type="line"/>
      <point x="416" y="273" type="line"/>
      <point x="402" y="454" type="line"/>
      <point x="410" y="537" type="line"/>
    </contour>
  </outline>
</glyph>
<glyph name="Ccedilla" format="1">
  <advance width="619"/>
  <unicode hex="00C7"/>
  <outline>
    <contour>
      <point x="399" y="700" type="move" name="Anchor-1"/>
    </contour>
    <contour>
      <point x="269" y="-203" type="move" name="Anchor-0"/>
    </contour>
    <contour>
      <point x="400" y="576" type="curve" smooth="yes"/>
      <point x="272" y="576"/>
      <point x="201" y="483"/>
      <point x="201" y="298" type="curve" smooth="yes"/>
      <point x="201" y="183"/>
      <point x="250" y="123"/>
      <point x="351" y="123" type="curve" smooth="yes"/>
      <point x="464" y="123"/>
      <point x="538" y="178"/>
      <point x="552" y="178" type="curve" smooth="yes"/>
      <point x="558" y="178"/>
      <point x="564" y="176"/>
      <point x="564" y="163" type="curve" smooth="yes"/>
      <point x="564" y="156"/>
      <point x="563" y="116"/>
      <point x="554" y="68" type="curve" smooth="yes"/>
      <point x="542" y="8"/>
      <point x="394" y="-7"/>
      <point x="341" y="-8" type="curve"/>
      <point x="330" y="-35" type="line"/>
      <point x="362" y="-41"/>
      <point x="400" y="-63"/>
      <point x="400" y="-110" type="curve" smooth="yes"/>
      <point x="400" y="-177"/>
      <point x="351" y="-212"/>
      <point x="271" y="-212" type="curve" smooth="yes"/>
      <point x="242" y="-212"/>
      <point x="168" y="-207"/>
      <point x="168" y="-160" type="curve" smooth="yes"/>
      <point x="168" y="-120"/>
      <point x="176" y="-112"/>
      <point x="182" y="-112" type="curve" smooth="yes"/>
      <point x="194" y="-112"/>
      <point x="225" y="-139"/>
      <point x="271" y="-139" type="curve" smooth="yes"/>
      <point x="289" y="-139"/>
      <point x="295" y="-133"/>
      <point x="296" y="-122" type="curve" smooth="yes"/>
      <point x="295" y="-98"/>
      <point x="248" y="-98"/>
      <point x="248" y="-74" type="curve" smooth="yes"/>
      <point x="248" y="-70"/>
      <point x="249" y="-65"/>
      <point x="275" y="-5" type="curve"/>
      <point x="117" y="13"/>
      <point x="42" y="103"/>
      <point x="42" y="276" type="curve" smooth="yes"/>
      <point x="42" y="506"/>
      <point x="133" y="708"/>
      <point x="417" y="708" type="curve" smooth="yes"/>
      <point x="503" y="708"/>
      <point x="619" y="681"/>
      <point x="619" y="640" type="curve" smooth="yes"/>
      <point x="619" y="613"/>
      <point x="569" y="544"/>
      <point x="544" y="544" type="curve" smooth="yes"/>
      <point x="532" y="544"/>
      <point x="495" y="576"/>
    </contour>
  </outline>
</glyph>
<glyph name="Egrave" format="1">
  <advance width="546"/>
  <unicode hex="00C8"/>
  <outline>
    <contour>
      <point x="346" y="877" type="move" name="Anchor-1"/>
    </contour>
    <contour>
      <point x="253" y="0" type="move" name="Anchor-0"/>
    </contour>
    <contour>
      <point x="258" y="911" type="curve" smooth="yes"/>
      <point x="298" y="911"/>
      <point x="330" y="905"/>
      <point x="340" y="884" type="curve" smooth="yes"/>
      <point x="377" y="805"/>
      <point x="393" y="779"/>
      <point x="393" y="768" type="curve" smooth="yes"/>
      <point x="393" y="756"/>
      <point x="384" y="752"/>
      <point x="360" y="752" type="curve" smooth="yes"/>
      <point x="313" y="752"/>
      <point x="298" y="765"/>
      <point x="288" y="777" type="curve" smooth="yes"/>
      <point x="206" y="877"/>
      <point x="196" y="885"/>
      <point x="196" y="895" type="curve" smooth="yes"/>
      <point x="196" y="908"/>
      <point x="216" y="911"/>
    </contour>
    <contour>
      <point x="149" y="700" type="curve" smooth="yes"/>
      <point x="515" y="700" type="line" smooth="yes"/>
      <point x="533" y="700"/>
      <point x="541" y="688"/>
      <point x="541" y="660" type="curve" smooth="yes"/>
      <point x="541" y="608"/>
      <point x="532" y="569"/>
      <point x="503" y="569" type="curve" smooth="yes"/>
      <point x="251" y="569" type="line"/>
      <point x="235" y="424" type="line"/>
      <point x="459" y="424" type="line" smooth="yes"/>
      <point x="477" y="424"/>
      <point x="485" y="412"/>
      <point x="485" y="384" type="curve" smooth="yes"/>
      <point x="485" y="332"/>
      <point x="476" y="293"/>
      <point x="447" y="293" type="curve" smooth="yes"/>
      <point x="222" y="293" type="line"/>
      <point x="204" y="131" type="line"/>
      <point x="456" y="131" type="line" smooth="yes"/>
      <point x="474" y="131"/>
      <point x="482" y="119"/>
      <point x="482" y="91" type="curve" smooth="yes"/>
      <point x="482" y="39"/>
      <point x="473" y="0"/>
      <point x="444" y="0" type="curve" smooth="yes"/>
      <point x="76" y="0" type="line" smooth="yes"/>
      <point x="49" y="0"/>
      <point x="40" y="8"/>
      <point x="40" y="32" type="curve" smooth="yes"/>
      <point x="40" y="38"/>
      <point x="105" y="660"/>
      <point x="105" y="660" type="curve" smooth="yes"/>
      <point x="108" y="688"/>
      <point x="121" y="700"/>
    </contour>
  </outline>
</glyph>
<glyph name="Eacute" format="1">
  <advance width="546"/>
  <unicode hex="00C9"/>
  <outline>
    <contour>
      <point x="364" y="877" type="move" name="Anchor-1"/>
    </contour>
    <contour>
      <point x="253" y="0" type="move" name="Anchor-0"/>
    </contour>
    <contour>
      <point x="436" y="911" type="curve" smooth="yes"/>
      <point x="474" y="911"/>
      <point x="494" y="908"/>
      <point x="494" y="898" type="curve" smooth="yes"/>
      <point x="494" y="885"/>
      <point x="490" y="887"/>
      <point x="378" y="777" type="curve" smooth="yes"/>
      <point x="366" y="765"/>
      <point x="347" y="752"/>
      <point x="300" y="752" type="curve" smooth="yes"/>
      <point x="278" y="752"/>
      <point x="271" y="755"/>
      <point x="271" y="765" type="curve" smooth="yes"/>
      <point x="271" y="776"/>
      <point x="290" y="796"/>
      <point x="348" y="884" type="curve" smooth="yes"/>
      <point x="362" y="905"/>
      <point x="396" y="911"/>
    </contour>
    <contour>
      <point x="149" y="700" type="curve" smooth="yes"/>
      <point x="515" y="700" type="line" smooth="yes"/>
      <point x="533" y="700"/>
      <point x="541" y="688"/>
      <point x="541" y="660" type="curve" smooth="yes"/>
      <point x="541" y="608"/>
      <point x="532" y="569"/>
      <point x="503" y="569" type="curve" smooth="yes"/>
      <point x="251" y="569" type="line"/>
      <point x="235" y="424" type="line"/>
      <point x="459" y="424" type="line" smooth="yes"/>
      <point x="477" y="424"/>
      <point x="485" y="412"/>
      <point x="485" y="384" type="curve" smooth="yes"/>
      <point x="485" y="332"/>
      <point x="476" y="293"/>
      <point x="447" y="293" type="curve" smooth="yes"/>
      <point x="222" y="293" type="line"/>
      <point x="204" y="131" type="line"/>
      <point x="456" y="131" type="line" smooth="yes"/>
      <point x="474" y="131"/>
      <point x="482" y="119"/>
      <point x="482" y="91" type="curve" smooth="yes"/>
      <point x="482" y="39"/>
      <point x="473" y="0"/>
      <point x="444" y="0" type="curve" smooth="yes"/>
      <point x="76" y="0" type="line" smooth="yes"/>
      <point x="49" y="0"/>
      <point x="40" y="8"/>
      <point x="40" y="32" type="curve" smooth="yes"/>
      <point x="40" y="38"/>
      <point x="105" y="660"/>
      <point x="105" y="660" type="curve" smooth="yes"/>
      <point x="108" y="688"/>
      <point x="121" y="700"/>
    </contour>
  </outline>
</glyph>
<glyph name="Edieresis" format="1">
  <advance width="546"/>
  <unicode hex="00CB"/>
  <outline>
    <contour>
      <point x="351" y="877" type="move" name="Anchor-1"/>
    </contour>
    <contour>
      <point x="253" y="0" type="move" name="Anchor-0"/>
    </contour>
    <contour>
      <point x="258" y="879" type="curve" smooth="yes"/>
      <point x="301" y="879"/>
      <point x="315" y="868"/>
      <point x="315" y="847" type="curve" smooth="yes"/>
      <point x="308" y="787" type="line" smooth="yes"/>
      <point x="305" y="766"/>
      <point x="285" y="755"/>
      <point x="245" y="755" type="curve" smooth="yes"/>
      <point x="202" y="755"/>
      <point x="188" y="766"/>
      <point x="188" y="787" type="curve" smooth="yes"/>
      <point x="195" y="847" type="line" smooth="yes"/>
      <point x="197" y="868"/>
      <point x="216" y="879"/>
    </contour>
    <contour>
      <point x="438" y="879" type="curve" smooth="yes"/>
      <point x="481" y="879"/>
      <point x="495" y="868"/>
      <point x="495" y="847" type="curve" smooth="yes"/>
      <point x="488" y="787" type="line" smooth="yes"/>
      <point x="485" y="766"/>
      <point x="465" y="755"/>
      <point x="425" y="755" type="curve" smooth="yes"/>
      <point x="382" y="755"/>
      <point x="368" y="766"/>
      <point x="368" y="787" type="curve" smooth="yes"/>
      <point x="375" y="847" type="line" smooth="yes"/>
      <point x="377" y="868"/>
      <point x="396" y="879"/>
    </contour>
    <contour>
      <point x="149" y="700" type="curve" smooth="yes"/>
      <point x="515" y="700" type="line" smooth="yes"/>
      <point x="533" y="700"/>
      <point x="541" y="688"/>
      <point x="541" y="660" type="curve" smooth="yes"/>
      <point x="541" y="608"/>
      <point x="532" y="569"/>
      <point x="503" y="569" type="curve" smooth="yes"/>
      <point x="251" y="569" type="line"/>
      <point x="235" y="424" type="line"/>
      <point x="459" y="424" type="line" smooth="yes"/>
      <point x="477" y="424"/>
      <point x="485" y="412"/>
      <point x="485" y="384" type="curve" smooth="yes"/>
      <point x="485" y="332"/>
      <point x="476" y="293"/>
      <point x="447" y="293" type="curve" smooth="yes"/>
      <point x="222" y="293" type="line"/>
      <point x="204" y="131" type="line"/>
      <point x="456" y="131" type="line" smooth="yes"/>
      <point x="474" y="131"/>
      <point x="482" y="119"/>
      <point x="482" y="91" type="curve" smooth="yes"/>
      <point x="482" y="39"/>
      <point x="473" y="0"/>
      <point x="444" y="0" type="curve" smooth="yes"/>
      <point x="76" y="0" type="line" smooth="yes"/>
      <point x="49" y="0"/>
      <point x="40" y="8"/>
      <point x="40" y="32" type="curve" smooth="yes"/>
      <point x="40" y="38"/>
      <point x="105" y="660"/>
      <point x="105" y="660" type="curve" smooth="yes"/>
      <point x="108" y="688"/>
      <point x="121" y="700"/>
    </contour>
  </outline>
</glyph>
<glyph name="Igrave" format="1">
  <advance width="282"/>
  <unicode hex="00CC"/>
  <outline>
    <contour>
      <point x="199" y="877" type="move" name="Anchor-1"/>
    </contour>
    <contour>
      <point x="103" y="0" type="move" name="Anchor-0"/>
    </contour>
    <contour>
      <point x="111" y="911" type="curve" smooth="yes"/>
      <point x="151" y="911"/>
      <point x="183" y="905"/>
      <point x="193" y="884" type="curve" smooth="yes"/>
      <point x="230" y="805"/>
      <point x="246" y="779"/>
      <point x="246" y="768" type="curve" smooth="yes"/>
      <point x="246" y="756"/>
      <point x="237" y="752"/>
      <point x="213" y="752" type="curve" smooth="yes"/>
      <point x="166" y="752"/>
      <point x="151" y="765"/>
      <point x="141" y="777" type="curve" smooth="yes"/>
      <point x="59" y="877"/>
      <point x="49" y="885"/>
      <point x="49" y="895" type="curve" smooth="yes"/>
      <point x="49" y="908"/>
      <point x="69" y="911"/>
    </contour>
    <contour>
      <point x="160" y="702" type="curve" smooth="yes"/>
      <point x="195" y="702" type="line" smooth="yes"/>
      <point x="212" y="702"/>
      <point x="252" y="700"/>
      <point x="252" y="671" type="curve" smooth="yes"/>
      <point x="185" y="30" type="line" smooth="yes"/>
      <point x="183" y="9"/>
      <point x="161" y="-2"/>
      <point x="122" y="-2" type="curve" smooth="yes"/>
      <point x="87" y="-2" type="line" smooth="yes"/>
      <point x="70" y="-2"/>
      <point x="30" y="0"/>
      <point x="30" y="29" type="curve" smooth="yes"/>
      <point x="97" y="670" type="line" smooth="yes"/>
      <point x="99" y="691"/>
      <point x="121" y="702"/>
    </contour>
  </outline>
</glyph>
<glyph name="Icircumflex" format="1">
  <advance width="282"/>
  <unicode hex="00CE"/>
  <outline>
    <contour>
      <point x="376" y="774" type="move" name="Anchor-1"/>
    </contour>
    <contour>
      <point x="103" y="0" type="move" name="Anchor-0"/>
    </contour>
    <contour>
      <point x="191" y="895" type="curve" smooth="yes"/>
      <point x="202" y="895" type="line" smooth="yes"/>
      <point x="231" y="895"/>
      <point x="251" y="894"/>
      <point x="261" y="876" type="curve" smooth="yes"/>
      <point x="315" y="774" type="line" smooth="yes"/>
      <point x="317" y="769"/>
      <point x="318" y="766"/>
      <point x="318" y="762" type="curve" smooth="yes"/>
      <point x="318" y="754"/>
      <point x="312" y="749"/>
      <point x="299" y="749" type="curve" smooth="yes"/>
      <point x="277" y="749" type="line" smooth="yes"/>
      <point x="247" y="749"/>
      <point x="225" y="754"/>
      <point x="213" y="773" type="curve" smooth="yes"/>
      <point x="188" y="813" type="line"/>
      <point x="157" y="774" type="line" smooth="yes"/>
      <point x="140" y="752"/>
      <point x="116" y="749"/>
      <point x="88" y="749" type="curve" smooth="yes"/>
      <point x="64" y="749" type="line" smooth="yes"/>
      <point x="52" y="749"/>
      <point x="45" y="753"/>
      <point x="45" y="759" type="curve" smooth="yes"/>
      <point x="45" y="763"/>
      <point x="47" y="768"/>
      <point x="52" y="774" type="curve" smooth="yes"/>
      <point x="128" y="876" type="line" smooth="yes"/>
      <point x="141" y="894"/>
      <point x="162" y="895"/>
    </contour>
    <contour>
      <point x="160" y="702" type="curve" smooth="yes"/>
      <point x="195" y="702" type="line" smooth="yes"/>
      <point x="212" y="702"/>
      <point x="252" y="700"/>
      <point x="252" y="671" type="curve" smooth="yes"/>
      <point x="185" y="30" type="line" smooth="yes"/>
      <point x="183" y="9"/>
      <point x="161" y="-2"/>
      <point x="122" y="-2" type="curve" smooth="yes"/>
      <point x="87" y="-2" type="line" smooth="yes"/>
      <point x="70" y="-2"/>
      <point x="30" y="0"/>
      <point x="30" y="29" type="curve" smooth="yes"/>
      <point x="97" y="670" type="line" smooth="yes"/>
      <point x="99" y="691"/>
      <point x="121" y="702"/>
    </contour>
  </outline>
</glyph>
<glyph name="Idieresis" format="1">
  <advance width="282"/>
  <unicode hex="00CF"/>
  <outline>
    <contour>
      <point x="204" y="877" type="move" name="Anchor-1"/>
    </contour>
    <contour>
      <point x="103" y="0" type="move" name="Anchor-0"/>
    </contour>
    <contour>
      <point x="111" y="879" type="curve" smooth="yes"/>
      <point x="154" y="879"/>
      <point x="168" y="868"/>
      <point x="168" y="847" type="curve" smooth="yes"/>
      <point x="161" y="787" type="line" smooth="yes"/>
      <point x="158" y="766"/>
      <point x="138" y="755"/>
      <point x="98" y="755" type="curve" smooth="yes"/>
      <point x="55" y="755"/>
      <point x="41" y="766"/>
      <point x="41" y="787" type="curve" smooth="yes"/>
      <point x="48" y="847" type="line" smooth="yes"/>
      <point x="50" y="868"/>
      <point x="69" y="879"/>
    </contour>
    <contour>
      <point x="291" y="879" type="curve" smooth="yes"/>
      <point x="334" y="879"/>
      <point x="348" y="868"/>
      <point x="348" y="847" type="curve" smooth="yes"/>
      <point x="341" y="787" type="line" smooth="yes"/>
      <point x="338" y="766"/>
      <point x="318" y="755"/>
      <point x="278" y="755" type="curve" smooth="yes"/>
      <point x="235" y="755"/>
      <point x="221" y="766"/>
      <point x="221" y="787" type="curve" smooth="yes"/>
      <point x="228" y="847" type="line" smooth="yes"/>
      <point x="230" y="868"/>
      <point x="249" y="879"/>
    </contour>
    <contour>
      <point x="160" y="702" type="curve" smooth="yes"/>
      <point x="195" y="702" type="line" smooth="yes"/>
      <point x="212" y="702"/>
      <point x="252" y="700"/>
      <point x="252" y="671" type="curve" smooth="yes"/>
      <point x="185" y="30" type="line" smooth="yes"/>
      <point x="183" y="9"/>
      <point x="161" y="-2"/>
      <point x="122" y="-2" type="curve" smooth="yes"/>
      <point x="87" y="-2" type="line" smooth="yes"/>
      <point x="70" y="-2"/>
      <point x="30" y="0"/>
      <point x="30" y="29" type="curve" smooth="yes"/>
      <point x="97" y="670" type="line" smooth="yes"/>
      <point x="99" y="691"/>
      <point x="121" y="702"/>
    </contour>
  </outline>
</glyph>
<glyph name="Eth" format="1">
  <advance width="696"/>
  <unicode hex="00D0"/>
  <outline>
    <contour>
      <point x="348" y="700" type="move" name="Anchor-1"/>
    </contour>
    <contour>
      <point x="291" y="0" type="move" name="Anchor-0"/>
    </contour>
    <contour>
      <point x="149" y="700" type="curve" smooth="yes"/>
      <point x="373" y="700" type="line" smooth="yes"/>
      <point x="560" y="700"/>
      <point x="660" y="598"/>
      <point x="660" y="411" type="curve" smooth="yes"/>
      <point x="660" y="146"/>
      <point x="519" y="0"/>
      <point x="300" y="0" type="curve" smooth="yes"/>
      <point x="76" y="0" type="line" smooth="yes"/>
      <point x="49" y="0"/>
      <point x="40" y="9"/>
      <point x="40" y="33" type="curve" smooth="yes"/>
      <point x="40" y="39"/>
      <point x="52" y="153"/>
      <point x="66" y="290" type="curve"/>
      <point x="35" y="290" type="line" smooth="yes"/>
      <point x="17" y="290"/>
      <point x="9" y="302"/>
      <point x="9" y="330" type="curve" smooth="yes"/>
      <point x="9" y="382"/>
      <point x="18" y="421"/>
      <point x="47" y="421" type="curve" smooth="yes"/>
      <point x="80" y="421" type="line"/>
      <point x="105" y="660" type="line" smooth="yes"/>
      <point x="108" y="688"/>
      <point x="121" y="700"/>
    </contour>
    <contour>
      <point x="204" y="131" type="line"/>
      <point x="313" y="131" type="line" smooth="yes"/>
      <point x="428" y="131"/>
      <point x="501" y="225"/>
      <point x="501" y="397" type="curve" smooth="yes"/>
      <point x="501" y="509"/>
      <point x="454" y="569"/>
      <point x="360" y="569" type="curve" smooth="yes"/>
      <point x="251" y="569" type="line"/>
      <point x="235" y="421" type="line"/>
      <point x="292" y="421" type="line" smooth="yes"/>
      <point x="310" y="421"/>
      <point x="318" y="409"/>
      <point x="318" y="381" type="curve" smooth="yes"/>
      <point x="318" y="329"/>
      <point x="309" y="290"/>
      <point x="280" y="290" type="curve" smooth="yes"/>
      <point x="221" y="290" type="line"/>
    </contour>
  </outline>
</glyph>
<glyph name="Ntilde" format="1">
  <advance width="719"/>
  <unicode hex="00D1"/>
  <outline>
    <contour>
      <point x="420" y="877" type="move" name="Anchor-1"/>
    </contour>
    <contour>
      <point x="341" y="0" type="move" name="Anchor-0"/>
    </contour>
    <contour>
      <point x="527" y="859" type="curve" smooth="yes"/>
      <point x="540" y="867"/>
      <point x="558" y="868"/>
      <point x="571" y="851" type="curve" smooth="yes"/>
      <point x="583" y="835"/>
      <point x="584" y="824"/>
      <point x="563" y="799" type="curve" smooth="yes"/>
      <point x="538" y="774"/>
      <point x="498" y="758"/>
      <point x="457" y="758" type="curve" smooth="yes"/>
      <point x="426" y="758"/>
      <point x="406" y="763"/>
      <point x="386" y="770" type="curve" smooth="yes"/>
      <point x="368" y="776"/>
      <point x="353" y="784"/>
      <point x="334" y="784" type="curve" smooth="yes"/>
      <point x="312" y="784"/>
      <point x="298" y="777"/>
      <point x="284" y="770" type="curve" smooth="yes"/>
      <point x="270" y="762"/>
      <point x="256" y="768"/>
      <point x="246" y="783" type="curve" smooth="yes"/>
      <point x="235" y="799"/>
      <point x="234" y="816"/>
      <point x="247" y="829" type="curve" smooth="yes"/>
      <point x="276" y="852"/>
      <point x="309" y="870"/>
      <point x="350" y="870" type="curve" smooth="yes"/>
      <point x="380" y="870"/>
      <point x="398" y="865"/>
      <point x="419" y="857" type="curve" smooth="yes"/>
      <point x="437" y="850"/>
      <point x="454" y="844"/>
      <point x="473" y="844" type="curve" smooth="yes"/>
      <point x="495" y="844"/>
      <point x="510" y="849"/>
    </contour>
    <contour>
      <point x="597" y="702" type="curve" smooth="yes"/>
      <point x="626" y="702" type="line" smooth="yes"/>
      <point x="669" y="702"/>
      <point x="683" y="691"/>
      <point x="683" y="670" type="curve" smooth="yes"/>
      <point x="616" y="30" type="line" smooth="yes"/>
      <point x="614" y="9"/>
      <point x="595" y="-2"/>
      <point x="553" y="-2" type="curve" smooth="yes"/>
      <point x="515" y="-2" type="line" smooth="yes"/>
      <point x="486" y="-2"/>
      <point x="464" y="2"/>
      <point x="451" y="25" type="curve" smooth="yes"/>
      <point x="239" y="412" type="line"/>
      <point x="226" y="435" type="line"/>
      <point x="184" y="30" type="line" smooth="yes"/>
      <point x="182" y="9"/>
      <point x="163" y="-2"/>
      <point x="121" y="-2" type="curve" smooth="yes"/>
      <point x="92" y="-2" type="line" smooth="yes"/>
      <point x="49" y="-2"/>
      <point x="35" y="9"/>
      <point x="35" y="30" type="curve" smooth="yes"/>
      <point x="102" y="670" type="line" smooth="yes"/>
      <point x="104" y="691"/>
      <point x="123" y="702"/>
      <point x="165" y="702" type="curve" smooth="yes"/>
      <point x="208" y="702" type="line" smooth="yes"/>
      <point x="237" y="702"/>
      <point x="259" y="698"/>
      <point x="272" y="675" type="curve" smooth="yes"/>
      <point x="476" y="300" type="line"/>
      <point x="492" y="270" type="line"/>
      <point x="534" y="670" type="line" smooth="yes"/>
      <point x="536" y="691"/>
      <point x="555" y="702"/>
    </contour>
  </outline>
</glyph>
<glyph name="Oacute" format="1">
  <advance width="731"/>
  <unicode hex="00D3"/>
  <outline>
    <contour>
      <point x="432" y="877" type="move" name="Anchor-1"/>
    </contour>
    <contour>
      <point x="327" y="0" type="move" name="Anchor-0"/>
    </contour>
    <contour>
      <point x="504" y="911" type="curve" smooth="yes"/>
      <point x="542" y="911"/>
      <point x="562" y="908"/>
      <point x="562" y="898" type="curve" smooth="yes"/>
      <point x="562" y="885"/>
      <point x="558" y="887"/>
      <point x="446" y="777" type="curve" smooth="yes"/>
      <point x="434" y="765"/>
      <point x="415" y="752"/>
      <point x="368" y="752" type="curve" smooth="yes"/>
      <point x="346" y="752"/>
      <point x="339" y="755"/>
      <point x="339" y="765" type="curve" smooth="yes"/>
      <point x="339" y="776"/>
      <point x="358" y="796"/>
      <point x="416" y="884" type="curve" smooth="yes"/>
      <point x="430" y="905"/>
      <point x="464" y="911"/>
    </contour>
    <contour>
      <point x="403" y="708" type="curve" smooth="yes"/>
      <point x="589" y="708"/>
      <point x="689" y="604"/>
      <point x="689" y="414" type="curve" smooth="yes"/>
      <point x="689" y="143"/>
      <point x="562" y="-8"/>
      <point x="328" y="-8" type="curve" smooth="yes"/>
      <point x="142" y="-8"/>
      <point x="41" y="95"/>
      <point x="41" y="284" type="curve" smooth="yes"/>
      <point x="41" y="496"/>
      <point x="140" y="708"/>
    </contour>
    <contour>
      <point x="389" y="576" type="curve" smooth="yes"/>
      <point x="273" y="576"/>
      <point x="200" y="478"/>
      <point x="200" y="298" type="curve" smooth="yes"/>
      <point x="200" y="184"/>
      <point x="248" y="123"/>
      <point x="342" y="123" type="curve" smooth="yes"/>
      <point x="456" y="123"/>
      <point x="531" y="221"/>
      <point x="531" y="400" type="curve" smooth="yes"/>
      <point x="531" y="515"/>
      <point x="483" y="576"/>
    </contour>
  </outline>
</glyph>
<glyph name="Ocircumflex" format="1">
  <advance width="731"/>
  <unicode hex="00D4"/>
  <outline>
    <contour>
      <point x="591" y="774" type="move" name="Anchor-1"/>
    </contour>
    <contour>
      <point x="327" y="0" type="move" name="Anchor-0"/>
    </contour>
    <contour>
      <point x="406" y="895" type="curve" smooth="yes"/>
      <point x="417" y="895" type="line" smooth="yes"/>
      <point x="446" y="895"/>
      <point x="466" y="894"/>
      <point x="476" y="876" type="curve" smooth="yes"/>
      <point x="530" y="774" type="line" smooth="yes"/>
      <point x="532" y="769"/>
      <point x="533" y="766"/>
      <point x="533" y="762" type="curve" smooth="yes"/>
      <point x="533" y="754"/>
      <point x="527" y="749"/>
      <point x="514" y="749" type="curve" smooth="yes"/>
      <point x="492" y="749" type="line" smooth="yes"/>
      <point x="462" y="749"/>
      <point x="440" y="754"/>
      <point x="428" y="773" type="curve" smooth="yes"/>
      <point x="403" y="813" type="line"/>
      <point x="372" y="774" type="line" smooth="yes"/>
      <point x="355" y="752"/>
      <point x="331" y="749"/>
      <point x="303" y="749" type="curve" smooth="yes"/>
      <point x="279" y="749" type="line" smooth="yes"/>
      <point x="267" y="749"/>
      <point x="260" y="753"/>
      <point x="260" y="759" type="curve" smooth="yes"/>
      <point x="260" y="763"/>
      <point x="262" y="768"/>
      <point x="267" y="774" type="curve" smooth="yes"/>
      <point x="343" y="876" type="line" smooth="yes"/>
      <point x="356" y="894"/>
      <point x="377" y="895"/>
    </contour>
    <contour>
      <point x="403" y="708" type="curve" smooth="yes"/>
      <point x="589" y="708"/>
      <point x="689" y="604"/>
      <point x="689" y="414" type="curve" smooth="yes"/>
      <point x="689" y="143"/>
      <point x="562" y="-8"/>
      <point x="328" y="-8" type="curve" smooth="yes"/>
      <point x="142" y="-8"/>
      <point x="41" y="95"/>
      <point x="41" y="284" type="curve" smooth="yes"/>
      <point x="41" y="496"/>
      <point x="140" y="708"/>
    </contour>
    <contour>
      <point x="389" y="576" type="curve" smooth="yes"/>
      <point x="273" y="576"/>
      <point x="200" y="478"/>
      <point x="200" y="298" type="curve" smooth="yes"/>
      <point x="200" y="184"/>
      <point x="248" y="123"/>
      <point x="342" y="123" type="curve" smooth="yes"/>
      <point x="456" y="123"/>
      <point x="531" y="221"/>
      <point x="531" y="400" type="curve" smooth="yes"/>
      <point x="531" y="515"/>
      <point x="483" y="576"/>
    </contour>
  </outline>
</glyph>
